STARTFONT 2.1
COMMENT
COMMENT Converted from TrueType font "times.ttf" by "ttf2bdf 2.6".
COMMENT
FONT -FreeType-Times New Roman-Medium-R-Normal--25-180-100-100-P-122-ISO10646-1
SIZE 18 100 100
FONTBOUNDINGBOX 42 33 -15 -8
STARTPROPERTIES 22
FOUNDRY "FreeType"
FAMILY_NAME "Times New Roman"
WEIGHT_NAME "Medium"
SLANT "R"
SETWIDTH_NAME "Normal"
ADD_STYLE_NAME ""
PIXEL_SIZE 25
POINT_SIZE 180
RESOLUTION_X 100
RESOLUTION_Y 100
SPACING "P"
AVERAGE_WIDTH 122
CHARSET_REGISTRY "ISO10646"
CHARSET_ENCODING "1"
FONT_ASCENT 22
FONT_DESCENT 5
COPYRIGHT "Typeface © The Monotype Corporation plc. Data © The Monotype Corporation plc/Type Solutions Inc. 1990-1992. All Rights Reserved"
_TTF_FONTFILE "times.ttf"
_TTF_PSNAME "TimesNewRomanPSMT"
_XFREE86_GLYPH_RANGES "32_126 160_383 399 402 416_417 431_432 461_476 506_511 601 710_711 713 728_733 768_769 771 777 803 894 900_906 908 910_929 931_974 1025_1036 1038_1103 1105_1116 1118_1119 1168_1171 1174_1175 1178_1181 1186_1187 1198_1203 1208_1211 1240_1241 1256_1257 1456_1475 1488_1514 1520_1524 1548 1563 1567 1569_1594 1600_1621 1632_1773 1776_1790 7808_7813 7840_7929 8204_8207 8211_8213 8215_8222 8224_8226 8230 8234_8238 8240 8242_8243 8249_8250 8252 8254 8260 8298_8303 8319 8355_8356 8359"
_XFREE86_GLYPH_RANGES "8362_8364 8453 8467 8470 8482 8486 8494 8531_8532 8539_8542 8592_8597 8616 8706 8710 8719 8721_8722 8725 8729_8730 8734_8735 8745 8747 8776 8800_8801 8804_8805 8962 8976 8992_8993 9472 9474 9484 9488 9492 9496 9500 9508 9516 9524 9532 9552_9580 9600 9604 9608 9612 9616_9619 9632_9633 9642_9644 9650 9658 9660 9668 9674_9675 9679 9688_9689 9702 9786_9788 9792 9794 9824 9827 9829_9830 9834_9835 59393_59397 59416 59450 61441_61442 61444_61489 64257_64258 64285_64288 64298_64310"
_XFREE86_GLYPH_RANGES "64312_64316 64318 64320_64321 64323_64324 64326_64433 64467_64487 64508_64511 64606_64610 64830_64831 65010 65152_65276 65532"
ENDPROPERTIES
CHARS 1419
STARTCHAR 0020
ENCODING 32
SWIDTH 240 0
DWIDTH 6 0
BBX 1 1 0 0
BITMAP
00
ENDCHAR
STARTCHAR 0021
ENCODING 33
SWIDTH 320 0
DWIDTH 8 0
BBX 2 17 3 0
BITMAP
C0
C0
C0
C0
C0
C0
C0
C0
80
80
80
80
80
00
00
C0
C0
ENDCHAR
STARTCHAR 0022
ENCODING 34
SWIDTH 400 0
DWIDTH 10 0
BBX 6 7 2 10
BITMAP
CC
CC
CC
CC
88
88
88
ENDCHAR
STARTCHAR 0023
ENCODING 35
SWIDTH 520 0
DWIDTH 13 0
BBX 11 18 1 0
BITMAP
0840
0840
0840
1080
1080
1080
FFE0
1080
1080
2100
2100
FFE0
2100
2100
2100
4200
4200
4200
ENDCHAR
STARTCHAR 0024
ENCODING 36
SWIDTH 480 0
DWIDTH 12 0
BBX 10 20 1 -2
BITMAP
0800
3E00
6980
C980
C880
C880
E800
7800
7C00
1E00
0F00
0B80
09C0
08C0
88C0
88C0
C980
7E00
0800
0800
ENDCHAR
STARTCHAR 0025
ENCODING 37
SWIDTH 840 0
DWIDTH 21 0
BBX 19 17 1 0
BITMAP
380100
6C0200
C60400
C60400
C60800
C61000
C62000
6C2000
384380
0086C0
008C60
010C60
020C60
040C60
040C60
0806C0
100380
ENDCHAR
STARTCHAR 0026
ENCODING 38
SWIDTH 760 0
DWIDTH 19 0
BBX 18 17 1 0
BITMAP
03C000
066000
0C2000
0C2000
0C2000
0E4000
069F00
070C00
1B0C00
338800
619000
C1D000
C0E000
C06040
E0F8C0
713F80
3E0F00
ENDCHAR
STARTCHAR 0027
ENCODING 39
SWIDTH 160 0
DWIDTH 4 0
BBX 2 7 1 10
BITMAP
C0
C0
C0
C0
80
80
80
ENDCHAR
STARTCHAR 0028
ENCODING 40
SWIDTH 320 0
DWIDTH 8 0
BBX 7 23 1 -5
BITMAP
02
04
18
10
20
60
60
40
C0
C0
C0
C0
C0
C0
C0
40
60
60
20
10
18
04
02
ENDCHAR
STARTCHAR 0029
ENCODING 41
SWIDTH 320 0
DWIDTH 8 0
BBX 7 23 0 -5
BITMAP
80
40
30
10
08
0C
0C
04
06
06
06
06
06
06
06
04
0C
0C
08
10
30
40
80
ENDCHAR
STARTCHAR 002A
ENCODING 42
SWIDTH 520 0
DWIDTH 13 0
BBX 9 10 2 8
BITMAP
0800
0C00
C980
EB80
3E00
3E00
EB80
C980
0800
0800
ENDCHAR
STARTCHAR 002B
ENCODING 43
SWIDTH 560 0
DWIDTH 14 0
BBX 13 13 0 2
BITMAP
0200
0200
0200
0200
0200
0200
FFF8
0200
0200
0200
0200
0200
0200
ENDCHAR
STARTCHAR 002C
ENCODING 44
SWIDTH 240 0
DWIDTH 6 0
BBX 4 6 1 -4
BITMAP
E0
F0
10
10
20
C0
ENDCHAR
STARTCHAR 002D
ENCODING 45
SWIDTH 320 0
DWIDTH 8 0
BBX 6 2 1 5
BITMAP
FC
FC
ENDCHAR
STARTCHAR 002E
ENCODING 46
SWIDTH 240 0
DWIDTH 6 0
BBX 2 2 2 0
BITMAP
C0
C0
ENDCHAR
STARTCHAR 002F
ENCODING 47
SWIDTH 280 0
DWIDTH 7 0
BBX 7 18 0 0
BITMAP
02
04
04
04
08
08
08
10
10
10
20
20
20
40
40
40
80
80
ENDCHAR
STARTCHAR 0030
ENCODING 48
SWIDTH 480 0
DWIDTH 12 0
BBX 10 17 1 0
BITMAP
1E00
3300
6180
6180
4080
C0C0
C0C0
C0C0
C0C0
C0C0
C0C0
C0C0
4080
6180
6180
3300
1E00
ENDCHAR
STARTCHAR 0031
ENCODING 49
SWIDTH 480 0
DWIDTH 12 0
BBX 6 17 3 0
BITMAP
30
F0
30
30
30
30
30
30
30
30
30
30
30
30
30
30
FC
ENDCHAR
STARTCHAR 0032
ENCODING 50
SWIDTH 480 0
DWIDTH 12 0
BBX 10 17 1 0
BITMAP
1E00
7F00
4780
8380
8180
0180
0180
0100
0300
0200
0400
0C00
0800
1000
2040
7F80
FF80
ENDCHAR
STARTCHAR 0033
ENCODING 51
SWIDTH 480 0
DWIDTH 12 0
BBX 10 17 1 0
BITMAP
3E00
7F00
C380
0180
0180
0100
0300
0700
1F80
03C0
01C0
00C0
00C0
00C0
0080
E100
FE00
ENDCHAR
STARTCHAR 0034
ENCODING 52
SWIDTH 480 0
DWIDTH 12 0
BBX 11 17 1 0
BITMAP
0180
0180
0380
0780
0580
0980
0980
1180
2180
2180
4180
C180
FFE0
0180
0180
0180
0180
ENDCHAR
STARTCHAR 0035
ENCODING 53
SWIDTH 480 0
DWIDTH 12 0
BBX 10 17 1 0
BITMAP
0FC0
1F80
1000
2000
3800
7E00
0F00
0380
01C0
00C0
00C0
00C0
00C0
0080
0100
C200
7C00
ENDCHAR
STARTCHAR 0036
ENCODING 54
SWIDTH 480 0
DWIDTH 12 0
BBX 10 17 1 0
BITMAP
01C0
0600
1800
1000
2000
6000
5F00
E380
C180
C0C0
C0C0
C0C0
C0C0
60C0
6180
3100
1E00
ENDCHAR
STARTCHAR 0037
ENCODING 55
SWIDTH 480 0
DWIDTH 12 0
BBX 11 17 1 0
BITMAP
3FE0
7FC0
4040
80C0
0080
0080
0100
0100
0100
0300
0200
0200
0600
0400
0400
0800
0800
ENDCHAR
STARTCHAR 0038
ENCODING 56
SWIDTH 480 0
DWIDTH 12 0
BBX 10 17 1 0
BITMAP
3F00
6180
C0C0
C0C0
C0C0
E180
7100
3A00
1E00
3700
6380
C1C0
C0C0
C0C0
C0C0
6180
3E00
ENDCHAR
STARTCHAR 0039
ENCODING 57
SWIDTH 480 0
DWIDTH 12 0
BBX 10 17 1 0
BITMAP
1E00
2300
4180
C180
C0C0
C0C0
C0C0
C0C0
60C0
71C0
1E80
0180
0100
0200
0600
1800
E000
ENDCHAR
STARTCHAR 003A
ENCODING 58
SWIDTH 240 0
DWIDTH 6 0
BBX 2 12 2 0
BITMAP
C0
C0
00
00
00
00
00
00
00
00
C0
C0
ENDCHAR
STARTCHAR 003B
ENCODING 59
SWIDTH 280 0
DWIDTH 7 0
BBX 4 16 2 -4
BITMAP
C0
C0
00
00
00
00
00
00
00
00
E0
F0
10
10
20
C0
ENDCHAR
STARTCHAR 003C
ENCODING 60
SWIDTH 560 0
DWIDTH 14 0
BBX 12 13 1 2
BITMAP
0010
0060
0180
0600
1800
6000
8000
6000
1800
0600
0180
0060
0010
ENDCHAR
STARTCHAR 003D
ENCODING 61
SWIDTH 560 0
DWIDTH 14 0
BBX 14 5 0 6
BITMAP
FFFC
0000
0000
0000
FFFC
ENDCHAR
STARTCHAR 003E
ENCODING 62
SWIDTH 560 0
DWIDTH 14 0
BBX 12 13 1 2
BITMAP
8000
6000
1800
0600
0180
0060
0010
0060
0180
0600
1800
6000
8000
ENDCHAR
STARTCHAR 003F
ENCODING 63
SWIDTH 440 0
DWIDTH 11 0
BBX 9 17 1 0
BITMAP
3E00
4300
8180
C180
C180
C180
0100
0300
0200
0400
0800
1000
1000
1000
0000
1800
1800
ENDCHAR
STARTCHAR 0040
ENCODING 64
SWIDTH 920 0
DWIDTH 23 0
BBX 21 24 1 -6
BITMAP
00FC00
030380
0C00C0
180040
100020
2039A0
606710
40C310
418310
838310
830210
830610
860620
860E20
860C20
861C40
472C80
43CF08
400010
200020
100040
080080
060300
01FC00
ENDCHAR
STARTCHAR 0041
ENCODING 65
SWIDTH 720 0
DWIDTH 18 0
BBX 18 17 0 0
BITMAP
004000
00C000
00E000
016000
016000
023000
023000
023000
041800
041800
0FFC00
080C00
080C00
100600
100600
300700
FC0FC0
ENDCHAR
STARTCHAR 0042
ENCODING 66
SWIDTH 640 0
DWIDTH 16 0
BBX 14 17 1 0
BITMAP
FFC0
3070
3030
3018
3018
3018
3030
3070
3FC0
3030
3018
300C
300C
300C
3018
3038
FFE0
ENDCHAR
STARTCHAR 0043
ENCODING 67
SWIDTH 680 0
DWIDTH 17 0
BBX 15 17 1 0
BITMAP
07E4
181C
300C
6004
6004
4004
C000
C000
C000
C000
C000
C000
6000
6002
3004
1C18
07E0
ENDCHAR
STARTCHAR 0044
ENCODING 68
SWIDTH 720 0
DWIDTH 18 0
BBX 16 17 1 0
BITMAP
FFE0
3038
300C
3006
3006
3003
3003
3003
3003
3003
3003
3003
3006
3006
300C
3038
FFE0
ENDCHAR
STARTCHAR 0045
ENCODING 69
SWIDTH 600 0
DWIDTH 15 0
BBX 13 17 1 0
BITMAP
FFF0
3030
3010
3010
3000
3000
3040
3040
3FC0
3040
3040
3000
3000
3008
3018
3030
FFF0
ENDCHAR
STARTCHAR 0046
ENCODING 70
SWIDTH 560 0
DWIDTH 14 0
BBX 12 17 1 0
BITMAP
FFF0
3030
3010
3010
3000
3000
3040
3040
3FC0
3040
3040
3000
3000
3000
3000
3000
FC00
ENDCHAR
STARTCHAR 0047
ENCODING 71
SWIDTH 720 0
DWIDTH 18 0
BBX 17 17 1 0
BITMAP
03F200
0C1E00
100600
200200
600200
400000
C00000
C00000
C01F80
C00600
C00600
E00600
600600
700600
380600
0C0E00
03F800
ENDCHAR
STARTCHAR 0048
ENCODING 72
SWIDTH 720 0
DWIDTH 18 0
BBX 16 17 1 0
BITMAP
FC3F
300C
300C
300C
300C
300C
300C
300C
3FFC
300C
300C
300C
300C
300C
300C
300C
FC3F
ENDCHAR
STARTCHAR 0049
ENCODING 73
SWIDTH 320 0
DWIDTH 8 0
BBX 6 17 1 0
BITMAP
FC
30
30
30
30
30
30
30
30
30
30
30
30
30
30
30
FC
ENDCHAR
STARTCHAR 004A
ENCODING 74
SWIDTH 400 0
DWIDTH 10 0
BBX 8 17 1 0
BITMAP
3F
0C
0C
0C
0C
0C
0C
0C
0C
0C
0C
0C
0C
0C
CC
E8
70
ENDCHAR
STARTCHAR 004B
ENCODING 75
SWIDTH 720 0
DWIDTH 18 0
BBX 17 17 1 0
BITMAP
FC7E00
301800
303000
304000
308000
310000
320000
3E0000
360000
330000
318000
30C000
306000
303000
301800
301E00
FC3F80
ENDCHAR
STARTCHAR 004C
ENCODING 76
SWIDTH 600 0
DWIDTH 15 0
BBX 13 17 1 0
BITMAP
FC00
3000
3000
3000
3000
3000
3000
3000
3000
3000
3000
3000
3008
3018
3018
3030
FFF0
ENDCHAR
STARTCHAR 004D
ENCODING 77
SWIDTH 880 0
DWIDTH 22 0
BBX 20 17 1 0
BITMAP
F800F0
3801C0
3801C0
3C03C0
2C02C0
2E02C0
2604C0
2604C0
2708C0
2308C0
2390C0
2190C0
21A0C0
20E0C0
20E0C0
20C0C0
F843F0
ENDCHAR
STARTCHAR 004E
ENCODING 78
SWIDTH 720 0
DWIDTH 18 0
BBX 17 17 0 0
BITMAP
F00F80
380200
1C0200
1C0200
160200
130200
138200
118200
10C200
106200
107200
103200
101A00
100E00
100E00
100600
7C0200
ENDCHAR
STARTCHAR 004F
ENCODING 79
SWIDTH 720 0
DWIDTH 18 0
BBX 16 17 1 0
BITMAP
07E0
1838
300C
6006
6006
C003
C003
C003
C003
C003
C003
C003
6006
6006
300C
1838
07E0
ENDCHAR
STARTCHAR 0050
ENCODING 80
SWIDTH 560 0
DWIDTH 14 0
BBX 12 17 1 0
BITMAP
FF80
30E0
3060
3030
3030
3030
3030
3060
30E0
3F80
3000
3000
3000
3000
3000
3000
FC00
ENDCHAR
STARTCHAR 0051
ENCODING 81
SWIDTH 720 0
DWIDTH 18 0
BBX 16 22 1 -5
BITMAP
07E0
1838
300C
6004
6006
C002
C003
C003
C003
C003
C003
C003
6006
6006
300C
1818
07E0
03C0
00E0
0070
001C
0007
ENDCHAR
STARTCHAR 0052
ENCODING 82
SWIDTH 680 0
DWIDTH 17 0
BBX 16 17 1 0
BITMAP
FF80
30E0
3060
3030
3030
3030
3060
30E0
3F80
3380
3180
30C0
30E0
3060
3030
303C
FC1F
ENDCHAR
STARTCHAR 0053
ENCODING 83
SWIDTH 560 0
DWIDTH 14 0
BBX 11 17 2 0
BITMAP
3E40
61C0
C0C0
C040
C040
E000
7800
3C00
0F00
0780
01C0
80E0
8060
C060
C060
F0C0
9F00
ENDCHAR
STARTCHAR 0054
ENCODING 84
SWIDTH 560 0
DWIDTH 14 0
BBX 14 17 0 0
BITMAP
FFFC
C30C
8304
8304
0300
0300
0300
0300
0300
0300
0300
0300
0300
0300
0300
0300
0FC0
ENDCHAR
STARTCHAR 0055
ENCODING 85
SWIDTH 680 0
DWIDTH 17 0
BBX 17 17 0 0
BITMAP
FC0F80
300200
300200
300200
300200
300200
300200
300200
300200
300200
300200
300200
300200
300600
180400
0C1800
07F000
ENDCHAR
STARTCHAR 0056
ENCODING 86
SWIDTH 720 0
DWIDTH 18 0
BBX 17 17 1 0
BITMAP
FC0F80
780600
300200
180400
180400
0C0400
0C0800
0C0800
061000
061000
031000
033000
01A000
01A000
01C000
00C000
00C000
ENDCHAR
STARTCHAR 0057
ENCODING 87
SWIDTH 960 0
DWIDTH 24 0
BBX 24 17 0 0
BITMAP
FCFC1F
38380C
38380C
181808
181808
181C10
0C1C10
0C1C10
062620
062620
062620
034340
034340
034340
018180
018180
018180
ENDCHAR
STARTCHAR 0058
ENCODING 88
SWIDTH 720 0
DWIDTH 18 0
BBX 17 17 1 0
BITMAP
FE1F80
780600
180400
1C0800
0E1000
063000
032000
01C000
01C000
01C000
016000
023000
043800
081800
100C00
300E00
F83F80
ENDCHAR
STARTCHAR 0059
ENCODING 89
SWIDTH 680 0
DWIDTH 17 0
BBX 16 17 1 0
BITMAP
FE1F
380C
1808
1C10
0C10
0E20
0620
0340
0340
0180
0180
0180
0180
0180
0180
0180
07E0
ENDCHAR
STARTCHAR 005A
ENCODING 90
SWIDTH 560 0
DWIDTH 14 0
BBX 14 17 0 0
BITMAP
3FF8
3030
2070
2060
00C0
01C0
0180
0300
0700
0600
0C00
1C00
1804
3004
700C
600C
FFF8
ENDCHAR
STARTCHAR 005B
ENCODING 91
SWIDTH 320 0
DWIDTH 8 0
BBX 5 23 2 -5
BITMAP
F8
C0
C0
C0
C0
C0
C0
C0
C0
C0
C0
C0
C0
C0
C0
C0
C0
C0
C0
C0
C0
C0
F8
ENDCHAR
STARTCHAR 005C
ENCODING 92
SWIDTH 280 0
DWIDTH 7 0
BBX 7 18 0 0
BITMAP
80
80
40
40
40
20
20
20
10
10
10
08
08
08
04
04
04
02
ENDCHAR
STARTCHAR 005D
ENCODING 93
SWIDTH 320 0
DWIDTH 8 0
BBX 5 23 1 -5
BITMAP
F8
18
18
18
18
18
18
18
18
18
18
18
18
18
18
18
18
18
18
18
18
18
F8
ENDCHAR
STARTCHAR 005E
ENCODING 94
SWIDTH 480 0
DWIDTH 12 0
BBX 12 9 0 8
BITMAP
0600
0900
0900
1080
2080
2040
4020
4020
8010
ENDCHAR
STARTCHAR 005F
ENCODING 95
SWIDTH 520 0
DWIDTH 13 0
BBX 13 1 0 -5
BITMAP
FFF8
ENDCHAR
STARTCHAR 0060
ENCODING 96
SWIDTH 320 0
DWIDTH 8 0
BBX 3 4 1 13
BITMAP
C0
40
20
20
ENDCHAR
STARTCHAR 0061
ENCODING 97
SWIDTH 440 0
DWIDTH 11 0
BBX 10 12 1 0
BITMAP
3C00
4200
C300
C300
0700
1B00
6300
C300
C300
C300
E740
7B80
ENDCHAR
STARTCHAR 0062
ENCODING 98
SWIDTH 520 0
DWIDTH 13 0
BBX 12 18 0 0
BITMAP
3000
F000
3000
3000
3000
3000
3380
3CE0
3060
3030
3030
3030
3030
3030
3020
3060
38C0
0F00
ENDCHAR
STARTCHAR 0063
ENCODING 99
SWIDTH 440 0
DWIDTH 11 0
BBX 9 12 1 0
BITMAP
1E00
2300
6180
C180
C000
C000
C000
C080
E080
7100
3F00
1C00
ENDCHAR
STARTCHAR 0064
ENCODING 100
SWIDTH 520 0
DWIDTH 13 0
BBX 12 18 1 0
BITMAP
00C0
03C0
00C0
00C0
00C0
00C0
1EC0
31C0
60C0
40C0
C0C0
C0C0
C0C0
C0C0
C0C0
60C0
71F0
1EC0
ENDCHAR
STARTCHAR 0065
ENCODING 101
SWIDTH 440 0
DWIDTH 11 0
BBX 9 12 1 0
BITMAP
1E00
2300
4180
8180
FF80
8000
8000
8000
C080
6180
7F00
1E00
ENDCHAR
STARTCHAR 0066
ENCODING 102
SWIDTH 320 0
DWIDTH 8 0
BBX 10 18 1 0
BITMAP
0780
19C0
10C0
3000
3000
3000
FE00
3000
3000
3000
3000
3000
3000
3000
3000
3000
3000
FE00
ENDCHAR
STARTCHAR 0067
ENCODING 103
SWIDTH 480 0
DWIDTH 12 0
BBX 12 17 0 -5
BITMAP
1F00
31F0
60C0
60C0
60C0
60C0
3180
1F00
2000
6000
7FC0
3FE0
2020
4020
C020
E040
7F80
ENDCHAR
STARTCHAR 0068
ENCODING 104
SWIDTH 520 0
DWIDTH 13 0
BBX 13 18 0 0
BITMAP
3000
F000
3000
3000
3000
3000
33C0
3CC0
3060
3060
3060
3060
3060
3060
3060
3060
3060
FCF8
ENDCHAR
STARTCHAR 0069
ENCODING 105
SWIDTH 240 0
DWIDTH 6 0
BBX 6 18 0 0
BITMAP
30
30
00
00
00
00
30
F0
30
30
30
30
30
30
30
30
30
FC
ENDCHAR
STARTCHAR 006A
ENCODING 106
SWIDTH 280 0
DWIDTH 7 0
BBX 7 23 -2 -5
BITMAP
06
06
00
00
00
00
06
1E
06
06
06
06
06
06
06
06
06
06
06
06
04
C4
F8
ENDCHAR
STARTCHAR 006B
ENCODING 107
SWIDTH 480 0
DWIDTH 12 0
BBX 12 18 0 0
BITMAP
3000
F000
3000
3000
3000
3000
31F0
3080
3100
3200
3400
3C00
3600
3300
3180
30C0
3060
FCF0
ENDCHAR
STARTCHAR 006C
ENCODING 108
SWIDTH 240 0
DWIDTH 6 0
BBX 6 18 0 0
BITMAP
30
F0
30
30
30
30
30
30
30
30
30
30
30
30
30
30
30
FC
ENDCHAR
STARTCHAR 006D
ENCODING 109
SWIDTH 800 0
DWIDTH 20 0
BBX 19 12 0 0
BITMAP
33C780
FCF980
3060C0
3060C0
3060C0
3060C0
3060C0
3060C0
3060C0
3060C0
3060C0
FCF9E0
ENDCHAR
STARTCHAR 006E
ENCODING 110
SWIDTH 520 0
DWIDTH 13 0
BBX 13 12 0 0
BITMAP
33C0
FCC0
3060
3060
3060
3060
3060
3060
3060
3060
3060
F8F8
ENDCHAR
STARTCHAR 006F
ENCODING 111
SWIDTH 520 0
DWIDTH 13 0
BBX 11 12 1 0
BITMAP
1F00
2180
60C0
40E0
C060
C060
C060
C060
E040
60C0
3080
1F00
ENDCHAR
STARTCHAR 0070
ENCODING 112
SWIDTH 520 0
DWIDTH 13 0
BBX 12 17 0 -5
BITMAP
33C0
FCE0
3060
3030
3030
3030
3030
3030
3020
3060
38C0
3780
3000
3000
3000
3000
FC00
ENDCHAR
STARTCHAR 0071
ENCODING 113
SWIDTH 520 0
DWIDTH 13 0
BBX 12 17 1 -5
BITMAP
1E40
31C0
60C0
40C0
C0C0
C0C0
C0C0
C0C0
C0C0
60C0
71C0
3EC0
00C0
00C0
00C0
00C0
03F0
ENDCHAR
STARTCHAR 0072
ENCODING 114
SWIDTH 320 0
DWIDTH 8 0
BBX 8 12 0 0
BITMAP
37
FB
30
30
30
30
30
30
30
30
30
FC
ENDCHAR
STARTCHAR 0073
ENCODING 115
SWIDTH 400 0
DWIDTH 10 0
BBX 8 12 1 0
BITMAP
3A
46
82
C0
F0
7C
1E
07
83
83
C6
BC
ENDCHAR
STARTCHAR 0074
ENCODING 116
SWIDTH 280 0
DWIDTH 7 0
BBX 7 16 0 0
BITMAP
10
10
30
30
FE
30
30
30
30
30
30
30
30
30
32
1C
ENDCHAR
STARTCHAR 0075
ENCODING 117
SWIDTH 520 0
DWIDTH 13 0
BBX 13 12 0 0
BITMAP
F1E0
3060
3060
3060
3060
3060
3060
3060
3060
3060
39F8
1E60
ENDCHAR
STARTCHAR 0076
ENCODING 118
SWIDTH 480 0
DWIDTH 12 0
BBX 12 12 0 0
BITMAP
F8F0
7060
3040
3040
3880
1880
1880
0D00
0D00
0E00
0600
0600
ENDCHAR
STARTCHAR 0077
ENCODING 119
SWIDTH 720 0
DWIDTH 18 0
BBX 18 12 0 0
BITMAP
FBF3C0
60C180
30C100
30C100
30E200
196200
193200
1A3400
0E1400
0C1800
0C1800
040800
ENDCHAR
STARTCHAR 0078
ENCODING 120
SWIDTH 520 0
DWIDTH 13 0
BBX 13 12 0 0
BITMAP
F8F0
3060
18C0
1C80
0F00
0600
0700
0980
11C0
30C0
6060
F0F8
ENDCHAR
STARTCHAR 0079
ENCODING 121
SWIDTH 480 0
DWIDTH 12 0
BBX 13 17 0 -5
BITMAP
F878
7030
3020
3040
1840
1840
0C80
0C80
0700
0700
0200
0200
0200
0400
0C00
7800
7000
ENDCHAR
STARTCHAR 007A
ENCODING 122
SWIDTH 440 0
DWIDTH 11 0
BBX 11 12 0 0
BITMAP
7FE0
40C0
4180
0380
0300
0600
0C00
1800
3800
3020
6020
FFE0
ENDCHAR
STARTCHAR 007B
ENCODING 123
SWIDTH 480 0
DWIDTH 12 0
BBX 7 23 3 -5
BITMAP
06
0C
10
30
30
30
30
30
30
20
60
80
60
20
30
30
30
30
30
30
10
0C
06
ENDCHAR
STARTCHAR 007C
ENCODING 124
SWIDTH 200 0
DWIDTH 5 0
BBX 1 23 2 -5
BITMAP
80
80
80
80
80
80
80
80
80
80
80
80
80
80
80
80
80
80
80
80
80
80
80
ENDCHAR
STARTCHAR 007D
ENCODING 125
SWIDTH 480 0
DWIDTH 12 0
BBX 7 23 2 -5
BITMAP
C0
60
10
18
18
18
18
18
18
08
0C
02
0C
08
18
18
18
18
18
18
10
60
C0
ENDCHAR
STARTCHAR 007E
ENCODING 126
SWIDTH 560 0
DWIDTH 14 0
BBX 14 3 0 5
BITMAP
7804
C78C
80F8
ENDCHAR
STARTCHAR 00A0
ENCODING 160
SWIDTH 240 0
DWIDTH 6 0
BBX 1 1 0 0
BITMAP
00
ENDCHAR
STARTCHAR 00A1
ENCODING 161
SWIDTH 320 0
DWIDTH 8 0
BBX 2 17 3 -5
BITMAP
C0
C0
00
00
40
40
40
40
40
C0
C0
C0
C0
C0
C0
C0
C0
ENDCHAR
STARTCHAR 00A2
ENCODING 162
SWIDTH 480 0
DWIDTH 12 0
BBX 10 20 1 -4
BITMAP
0080
0080
0100
0100
0F00
3380
62C0
C4C0
C400
C400
C800
E840
F0C0
7180
3F00
3E00
2000
4000
4000
8000
ENDCHAR
STARTCHAR 00A3
ENCODING 163
SWIDTH 480 0
DWIDTH 12 0
BBX 11 17 1 0
BITMAP
0780
0CC0
0800
1800
1800
1800
1800
1800
7F00
1800
1800
1800
1800
1820
7860
BFC0
E380
ENDCHAR
STARTCHAR 00A4
ENCODING 164
SWIDTH 520 0
DWIDTH 13 0
BBX 10 12 2 3
BITMAP
8040
5E80
6100
4080
8040
8040
8040
8040
4080
6180
5E80
8040
ENDCHAR
STARTCHAR 00A5
ENCODING 165
SWIDTH 520 0
DWIDTH 13 0
BBX 12 17 0 0
BITMAP
F8F0
7020
3040
3840
1880
1880
0C80
0D00
0D00
FFF0
0600
0600
FFF0
0600
0600
0600
1F80
ENDCHAR
STARTCHAR 00A6
ENCODING 166
SWIDTH 200 0
DWIDTH 5 0
BBX 1 23 2 -5
BITMAP
80
80
80
80
80
80
80
80
80
80
00
00
00
00
80
80
80
80
80
80
80
80
80
ENDCHAR
STARTCHAR 00A7
ENCODING 167
SWIDTH 520 0
DWIDTH 13 0
BBX 9 22 2 -5
BITMAP
1E00
1300
2300
2300
3000
1800
1C00
2E00
4700
8380
8180
C080
E080
7100
3A00
1C00
0C00
0600
6200
6200
6400
3800
ENDCHAR
STARTCHAR 00A8
ENCODING 168
SWIDTH 320 0
DWIDTH 8 0
BBX 6 2 1 14
BITMAP
CC
CC
ENDCHAR
STARTCHAR 00A9
ENCODING 169
SWIDTH 760 0
DWIDTH 19 0
BBX 17 17 1 0
BITMAP
03E000
0C1800
300600
21FA00
461900
4C0900
980080
980080
980080
980080
980080
4C0100
461900
23E200
300600
0C1800
03E000
ENDCHAR
STARTCHAR 00AA
ENCODING 170
SWIDTH 240 0
DWIDTH 6 0
BBX 6 8 0 9
BITMAP
70
88
88
38
48
88
98
EC
ENDCHAR
STARTCHAR 00AB
ENCODING 171
SWIDTH 480 0
DWIDTH 12 0
BBX 10 12 1 0
BITMAP
0840
1080
3180
2100
6300
C600
C600
6300
2100
3180
1080
0840
ENDCHAR
STARTCHAR 00AC
ENCODING 172
SWIDTH 560 0
DWIDTH 14 0
BBX 13 5 0 6
BITMAP
FFF8
0008
0008
0008
0008
ENDCHAR
STARTCHAR 00AD
ENCODING 173
SWIDTH 320 0
DWIDTH 8 0
BBX 6 2 1 5
BITMAP
FC
FC
ENDCHAR
STARTCHAR 00AE
ENCODING 174
SWIDTH 760 0
DWIDTH 19 0
BBX 17 17 1 0
BITMAP
03E000
0C1800
300600
2FC200
466100
463100
863080
866080
87C080
86C080
866080
463100
463100
2F1A00
300600
0C1800
03E000
ENDCHAR
STARTCHAR 00AF
ENCODING 175
SWIDTH 520 0
DWIDTH 13 0
BBX 13 1 0 18
BITMAP
FFF8
ENDCHAR
STARTCHAR 00B0
ENCODING 176
SWIDTH 400 0
DWIDTH 10 0
BBX 8 8 1 9
BITMAP
3C
42
81
81
81
81
42
3C
ENDCHAR
STARTCHAR 00B1
ENCODING 177
SWIDTH 560 0
DWIDTH 14 0
BBX 13 13 0 2
BITMAP
0200
0200
0200
0200
0200
0200
FFF8
0200
0200
0200
0200
0200
FFF8
ENDCHAR
STARTCHAR 00B2
ENCODING 178
SWIDTH 320 0
DWIDTH 8 0
BBX 7 9 0 8
BITMAP
7C
86
02
04
08
10
20
40
FE
ENDCHAR
STARTCHAR 00B3
ENCODING 179
SWIDTH 280 0
DWIDTH 7 0
BBX 6 9 0 8
BITMAP
78
84
04
08
38
0C
04
04
F8
ENDCHAR
STARTCHAR 00B4
ENCODING 180
SWIDTH 280 0
DWIDTH 7 0
BBX 3 4 3 13
BITMAP
60
40
80
80
ENDCHAR
STARTCHAR 00B5
ENCODING 181
SWIDTH 560 0
DWIDTH 14 0
BBX 12 17 1 -5
BITMAP
60C0
60C0
60C0
60C0
60C0
60C0
60C0
60C0
60C0
61C0
72D0
5C60
4000
C000
C000
C000
C000
ENDCHAR
STARTCHAR 00B6
ENCODING 182
SWIDTH 480 0
DWIDTH 12 0
BBX 12 22 0 -5
BITMAP
1FF0
7E40
FE40
FE40
FE40
FE40
FE40
7E40
1E40
0240
0240
0240
0240
0240
0240
0240
0240
0240
0240
0240
0240
0240
ENDCHAR
STARTCHAR 00B7
ENCODING 183
SWIDTH 280 0
DWIDTH 7 0
BBX 3 3 2 7
BITMAP
E0
E0
E0
ENDCHAR
STARTCHAR 00B8
ENCODING 184
SWIDTH 280 0
DWIDTH 7 0
BBX 4 5 2 -5
BITMAP
20
60
30
30
E0
ENDCHAR
STARTCHAR 00B9
ENCODING 185
SWIDTH 320 0
DWIDTH 8 0
BBX 3 9 2 8
BITMAP
40
C0
40
40
40
40
40
40
E0
ENDCHAR
STARTCHAR 00BA
ENCODING 186
SWIDTH 320 0
DWIDTH 8 0
BBX 7 8 0 9
BITMAP
38
44
86
82
82
C2
44
38
ENDCHAR
STARTCHAR 00BB
ENCODING 187
SWIDTH 480 0
DWIDTH 12 0
BBX 10 12 1 0
BITMAP
8400
4200
6300
2100
3180
18C0
18C0
3180
2100
6300
4200
8400
ENDCHAR
STARTCHAR 00BC
ENCODING 188
SWIDTH 760 0
DWIDTH 19 0
BBX 16 17 2 0
BITMAP
4004
C008
4010
4010
4020
4040
4040
4080
E102
0106
020A
040A
0812
0822
103F
2002
2002
ENDCHAR
STARTCHAR 00BD
ENCODING 189
SWIDTH 760 0
DWIDTH 19 0
BBX 16 17 2 0
BITMAP
4008
C008
4010
4020
4020
4040
4080
4080
E13C
0246
0202
0402
0804
1008
1010
2020
407F
ENDCHAR
STARTCHAR 00BE
ENCODING 190
SWIDTH 760 0
DWIDTH 19 0
BBX 17 17 1 0
BITMAP
780400
840400
040800
081000
381000
0C2000
044000
044000
F88100
010300
010500
020500
040900
041100
081F80
100100
100100
ENDCHAR
STARTCHAR 00BF
ENCODING 191
SWIDTH 480 0
DWIDTH 12 0
BBX 9 17 2 -5
BITMAP
1800
1800
0000
0000
0800
0800
1000
1000
2000
6000
6000
C000
C180
C180
C080
6100
3E00
ENDCHAR
STARTCHAR 00C0
ENCODING 192
SWIDTH 720 0
DWIDTH 18 0
BBX 18 23 0 0
BITMAP
018000
008000
004000
004000
000000
000000
004000
00C000
00E000
016000
016000
023000
023000
023000
041800
041800
0FFC00
080C00
080C00
100600
100600
300700
FC0FC0
ENDCHAR
STARTCHAR 00C1
ENCODING 193
SWIDTH 720 0
DWIDTH 18 0
BBX 18 23 0 0
BITMAP
006000
004000
008000
008000
000000
000000
004000
00C000
00E000
016000
016000
023000
023000
023000
041800
041800
0FFC00
080C00
080C00
100600
100600
300700
FC0FC0
ENDCHAR
STARTCHAR 00C2
ENCODING 194
SWIDTH 720 0
DWIDTH 18 0
BBX 18 23 0 0
BITMAP
00E000
01B000
011000
020800
000000
000000
004000
00C000
00E000
016000
016000
023000
023000
023000
041800
041800
0FFC00
080C00
080C00
100600
100600
300700
FC0FC0
ENDCHAR
STARTCHAR 00C3
ENCODING 195
SWIDTH 720 0
DWIDTH 18 0
BBX 18 22 0 0
BITMAP
038800
04C800
047000
000000
000000
004000
00C000
00E000
016000
016000
023000
023000
023000
041800
041800
0FFC00
080C00
080C00
100600
100600
300700
FC0FC0
ENDCHAR
STARTCHAR 00C4
ENCODING 196
SWIDTH 720 0
DWIDTH 18 0
BBX 18 21 0 0
BITMAP
033000
033000
000000
000000
004000
00C000
00E000
016000
016000
023000
023000
023000
041800
041800
0FFC00
080C00
080C00
100600
100600
300700
FC0FC0
ENDCHAR
STARTCHAR 00C5
ENCODING 197
SWIDTH 720 0
DWIDTH 18 0
BBX 18 20 0 0
BITMAP
00C000
012000
012000
00C000
00C000
00E000
016000
016000
023000
023000
023000
041800
041800
0FFC00
080C00
080C00
100600
100600
300700
FC0FC0
ENDCHAR
STARTCHAR 00C6
ENCODING 198
SWIDTH 880 0
DWIDTH 22 0
BBX 22 17 -1 0
BITMAP
01FFF8
007818
005808
005808
009800
009800
011820
021820
021FE0
041820
07F820
081800
081800
101804
10180C
201818
F87FF8
ENDCHAR
STARTCHAR 00C7
ENCODING 199
SWIDTH 680 0
DWIDTH 17 0
BBX 15 22 1 -5
BITMAP
07E4
181C
300C
6004
6004
4004
C000
C000
C000
C000
C000
C000
6000
6002
3004
1C18
07E0
0080
0180
00C0
00C0
0380
ENDCHAR
STARTCHAR 00C8
ENCODING 200
SWIDTH 600 0
DWIDTH 15 0
BBX 13 23 1 0
BITMAP
0C00
0400
0200
0200
0000
0000
FFF0
3030
3010
3010
3000
3000
3040
3040
3FC0
3040
3040
3000
3000
3008
3018
3030
FFF0
ENDCHAR
STARTCHAR 00C9
ENCODING 201
SWIDTH 600 0
DWIDTH 15 0
BBX 13 23 1 0
BITMAP
0180
0100
0200
0200
0000
0000
FFF0
3030
3010
3010
3000
3000
3040
3040
3FC0
3040
3040
3000
3000
3008
3018
3030
FFF0
ENDCHAR
STARTCHAR 00CA
ENCODING 202
SWIDTH 600 0
DWIDTH 15 0
BBX 13 23 1 0
BITMAP
0700
0D80
0880
1040
0000
0000
FFF0
3030
3010
3010
3000
3000
3040
3040
3FC0
3040
3040
3000
3000
3008
3018
3030
FFF0
ENDCHAR
STARTCHAR 00CB
ENCODING 203
SWIDTH 600 0
DWIDTH 15 0
BBX 13 21 1 0
BITMAP
1980
1980
0000
0000
FFF0
3030
3010
3010
3000
3000
3040
3040
3FC0
3040
3040
3000
3000
3008
3018
3030
FFF0
ENDCHAR
STARTCHAR 00CC
ENCODING 204
SWIDTH 320 0
DWIDTH 8 0
BBX 6 23 1 0
BITMAP
60
20
10
10
00
00
FC
30
30
30
30
30
30
30
30
30
30
30
30
30
30
30
FC
ENDCHAR
STARTCHAR 00CD
ENCODING 205
SWIDTH 320 0
DWIDTH 8 0
BBX 6 23 1 0
BITMAP
18
10
20
20
00
00
FC
30
30
30
30
30
30
30
30
30
30
30
30
30
30
30
FC
ENDCHAR
STARTCHAR 00CE
ENCODING 206
SWIDTH 320 0
DWIDTH 8 0
BBX 7 23 1 0
BITMAP
38
6C
44
82
00
00
FC
30
30
30
30
30
30
30
30
30
30
30
30
30
30
30
FC
ENDCHAR
STARTCHAR 00CF
ENCODING 207
SWIDTH 320 0
DWIDTH 8 0
BBX 6 21 1 0
BITMAP
CC
CC
00
00
FC
30
30
30
30
30
30
30
30
30
30
30
30
30
30
30
FC
ENDCHAR
STARTCHAR 00D0
ENCODING 208
SWIDTH 720 0
DWIDTH 18 0
BBX 16 17 1 0
BITMAP
FFE0
3038
300C
3006
3006
3003
3003
3003
FF83
3003
3003
3003
3006
3006
300C
3038
FFE0
ENDCHAR
STARTCHAR 00D1
ENCODING 209
SWIDTH 720 0
DWIDTH 18 0
BBX 17 22 0 0
BITMAP
038800
04C800
047000
000000
000000
F00F80
380200
1C0200
1C0200
160200
130200
138200
118200
10C200
106200
107200
103200
101A00
100E00
100E00
100600
7C0200
ENDCHAR
STARTCHAR 00D2
ENCODING 210
SWIDTH 720 0
DWIDTH 18 0
BBX 16 23 1 0
BITMAP
0300
0100
0080
0080
0000
0000
07E0
1838
300C
6006
6006
C003
C003
C003
C003
C003
C003
C003
6006
6006
300C
1838
07E0
ENDCHAR
STARTCHAR 00D3
ENCODING 211
SWIDTH 720 0
DWIDTH 18 0
BBX 16 23 1 0
BITMAP
00C0
0080
0100
0100
0000
0000
07E0
1838
300C
6006
6006
C003
C003
C003
C003
C003
C003
C003
6006
6006
300C
1838
07E0
ENDCHAR
STARTCHAR 00D4
ENCODING 212
SWIDTH 720 0
DWIDTH 18 0
BBX 16 23 1 0
BITMAP
01C0
0360
0220
0410
0000
0000
07E0
1838
300C
6006
6006
C003
C003
C003
C003
C003
C003
C003
6006
6006
300C
1838
07E0
ENDCHAR
STARTCHAR 00D5
ENCODING 213
SWIDTH 720 0
DWIDTH 18 0
BBX 16 22 1 0
BITMAP
0710
0990
08E0
0000
0000
07E0
1838
300C
6006
6006
C003
C003
C003
C003
C003
C003
C003
6006
6006
300C
1838
07E0
ENDCHAR
STARTCHAR 00D6
ENCODING 214
SWIDTH 720 0
DWIDTH 18 0
BBX 16 21 1 0
BITMAP
0660
0660
0000
0000
07E0
1838
300C
6006
6006
C003
C003
C003
C003
C003
C003
C003
6006
6006
300C
1838
07E0
ENDCHAR
STARTCHAR 00D7
ENCODING 215
SWIDTH 560 0
DWIDTH 14 0
BBX 10 10 2 3
BITMAP
8040
4080
2100
1200
0C00
0C00
1200
2100
4080
8040
ENDCHAR
STARTCHAR 00D8
ENCODING 216
SWIDTH 720 0
DWIDTH 18 0
BBX 16 17 1 0
BITMAP
07E2
083A
300C
200E
6016
C023
C043
C083
C183
C103
C203
C402
6806
7004
300C
5C10
47E0
ENDCHAR
STARTCHAR 00D9
ENCODING 217
SWIDTH 680 0
DWIDTH 17 0
BBX 17 23 0 0
BITMAP
018000
008000
004000
004000
000000
000000
FC0F80
300200
300200
300200
300200
300200
300200
300200
300200
300200
300200
300200
300200
300600
180400
0C1800
07F000
ENDCHAR
STARTCHAR 00DA
ENCODING 218
SWIDTH 680 0
DWIDTH 17 0
BBX 17 23 0 0
BITMAP
006000
004000
008000
008000
000000
000000
FC0F80
300200
300200
300200
300200
300200
300200
300200
300200
300200
300200
300200
300200
300600
180400
0C1800
07F000
ENDCHAR
STARTCHAR 00DB
ENCODING 219
SWIDTH 680 0
DWIDTH 17 0
BBX 17 23 0 0
BITMAP
01C000
036000
022000
041000
000000
000000
FC0F80
300200
300200
300200
300200
300200
300200
300200
300200
300200
300200
300200
300200
300600
180400
0C1800
07F000
ENDCHAR
STARTCHAR 00DC
ENCODING 220
SWIDTH 680 0
DWIDTH 17 0
BBX 17 21 0 0
BITMAP
033000
033000
000000
000000
FC0F80
300200
300200
300200
300200
300200
300200
300200
300200
300200
300200
300200
300200
300600
180400
0C1800
07F000
ENDCHAR
STARTCHAR 00DD
ENCODING 221
SWIDTH 680 0
DWIDTH 17 0
BBX 16 23 1 0
BITMAP
0060
0040
0080
0080
0000
0000
FE1F
380C
1808
1C10
0C10
0E20
0620
0340
0340
0180
0180
0180
0180
0180
0180
0180
07E0
ENDCHAR
STARTCHAR 00DE
ENCODING 222
SWIDTH 560 0
DWIDTH 14 0
BBX 12 17 1 0
BITMAP
FC00
3000
3000
3000
3F80
30E0
3060
3030
3030
3030
3060
30E0
3F80
3000
3000
3000
FC00
ENDCHAR
STARTCHAR 00DF
ENCODING 223
SWIDTH 520 0
DWIDTH 13 0
BBX 12 18 0 0
BITMAP
0F80
18C0
3060
3060
3060
3060
30C0
3380
30E0
3060
3070
3030
3030
3030
3030
3020
3660
F3C0
ENDCHAR
STARTCHAR 00E0
ENCODING 224
SWIDTH 440 0
DWIDTH 11 0
BBX 10 18 1 0
BITMAP
3000
1000
0800
0800
0000
0000
3C00
4200
C300
C300
0700
1B00
6300
C300
C300
C300
E740
7B80
ENDCHAR
STARTCHAR 00E1
ENCODING 225
SWIDTH 440 0
DWIDTH 11 0
BBX 10 18 1 0
BITMAP
0C00
0800
1000
1000
0000
0000
3C00
4200
C300
C300
0700
1B00
6300
C300
C300
C300
E740
7B80
ENDCHAR
STARTCHAR 00E2
ENCODING 226
SWIDTH 440 0
DWIDTH 11 0
BBX 10 18 1 0
BITMAP
1C00
3600
2200
4100
0000
0000
3C00
4200
C300
C300
0700
1B00
6300
C300
C300
C300
E740
7B80
ENDCHAR
STARTCHAR 00E3
ENCODING 227
SWIDTH 440 0
DWIDTH 11 0
BBX 10 17 1 0
BITMAP
7100
9900
8E00
0000
0000
3C00
4200
C300
C300
0700
1B00
6300
C300
C300
C300
E740
7B80
ENDCHAR
STARTCHAR 00E4
ENCODING 228
SWIDTH 440 0
DWIDTH 11 0
BBX 10 16 1 0
BITMAP
6600
6600
0000
0000
3C00
4200
C300
C300
0700
1B00
6300
C300
C300
C300
E740
7B80
ENDCHAR
STARTCHAR 00E5
ENCODING 229
SWIDTH 440 0
DWIDTH 11 0
BBX 10 18 1 0
BITMAP
1800
2400
2400
1800
0000
0000
3C00
4200
C300
C300
0700
1B00
6300
C300
C300
C300
E740
7B80
ENDCHAR
STARTCHAR 00E6
ENCODING 230
SWIDTH 680 0
DWIDTH 17 0
BBX 15 12 1 0
BITMAP
3E78
C78C
C306
C306
07FE
1B00
6300
C302
C306
C38C
E5FC
78F0
ENDCHAR
STARTCHAR 00E7
ENCODING 231
SWIDTH 440 0
DWIDTH 11 0
BBX 9 17 1 -5
BITMAP
1E00
2300
6180
C180
C000
C000
C000
C080
E080
7100
3F00
1C00
0800
1800
0C00
0C00
3800
ENDCHAR
STARTCHAR 00E8
ENCODING 232
SWIDTH 440 0
DWIDTH 11 0
BBX 9 18 1 0
BITMAP
1800
0800
0400
0400
0000
0000
1E00
2300
4180
8180
FF80
8000
8000
8000
C080
6180
7F00
1E00
ENDCHAR
STARTCHAR 00E9
ENCODING 233
SWIDTH 440 0
DWIDTH 11 0
BBX 9 18 1 0
BITMAP
0300
0200
0400
0400
0000
0000
1E00
2300
4180
8180
FF80
8000
8000
8000
C080
6180
7F00
1E00
ENDCHAR
STARTCHAR 00EA
ENCODING 234
SWIDTH 440 0
DWIDTH 11 0
BBX 9 18 1 0
BITMAP
1C00
3600
2200
4100
0000
0000
1E00
2300
4180
8180
FF80
8000
8000
8000
C080
6180
7F00
1E00
ENDCHAR
STARTCHAR 00EB
ENCODING 235
SWIDTH 440 0
DWIDTH 11 0
BBX 9 16 1 0
BITMAP
3300
3300
0000
0000
1E00
2300
4180
8180
FF80
8000
8000
8000
C080
6180
7F00
1E00
ENDCHAR
STARTCHAR 00EC
ENCODING 236
SWIDTH 240 0
DWIDTH 6 0
BBX 6 18 0 0
BITMAP
60
20
10
10
00
00
30
F0
30
30
30
30
30
30
30
30
30
FC
ENDCHAR
STARTCHAR 00ED
ENCODING 237
SWIDTH 240 0
DWIDTH 6 0
BBX 6 18 0 0
BITMAP
18
10
20
20
00
00
30
F0
30
30
30
30
30
30
30
30
30
FC
ENDCHAR
STARTCHAR 00EE
ENCODING 238
SWIDTH 240 0
DWIDTH 6 0
BBX 7 18 -1 0
BITMAP
38
6C
44
82
00
00
18
78
18
18
18
18
18
18
18
18
18
7E
ENDCHAR
STARTCHAR 00EF
ENCODING 239
SWIDTH 240 0
DWIDTH 6 0
BBX 6 16 0 0
BITMAP
CC
CC
00
00
30
F0
30
30
30
30
30
30
30
30
30
FC
ENDCHAR
STARTCHAR 00F0
ENCODING 240
SWIDTH 520 0
DWIDTH 13 0
BBX 11 18 1 0
BITMAP
2080
1B00
0C00
3600
4300
0180
1FC0
21C0
60C0
40E0
C060
C060
C060
C060
E040
60C0
3080
1F00
ENDCHAR
STARTCHAR 00F1
ENCODING 241
SWIDTH 520 0
DWIDTH 13 0
BBX 13 17 0 0
BITMAP
0E20
1320
11C0
0000
0000
33C0
FCC0
3060
3060
3060
3060
3060
3060
3060
3060
3060
F8F8
ENDCHAR
STARTCHAR 00F2
ENCODING 242
SWIDTH 520 0
DWIDTH 13 0
BBX 11 18 1 0
BITMAP
1800
0800
0400
0400
0000
0000
1F00
2180
60C0
40E0
C060
C060
C060
C060
E040
60C0
3080
1F00
ENDCHAR
STARTCHAR 00F3
ENCODING 243
SWIDTH 520 0
DWIDTH 13 0
BBX 11 18 1 0
BITMAP
0300
0200
0400
0400
0000
0000
1F00
2180
60C0
40E0
C060
C060
C060
C060
E040
60C0
3080
1F00
ENDCHAR
STARTCHAR 00F4
ENCODING 244
SWIDTH 520 0
DWIDTH 13 0
BBX 11 18 1 0
BITMAP
0E00
1B00
1100
2080
0000
0000
1F00
2180
60C0
40E0
C060
C060
C060
C060
E040
60C0
3080
1F00
ENDCHAR
STARTCHAR 00F5
ENCODING 245
SWIDTH 520 0
DWIDTH 13 0
BBX 11 17 1 0
BITMAP
1C40
2640
2380
0000
0000
1F00
2180
60C0
40E0
C060
C060
C060
C060
E040
60C0
3080
1F00
ENDCHAR
STARTCHAR 00F6
ENCODING 246
SWIDTH 520 0
DWIDTH 13 0
BBX 11 16 1 0
BITMAP
1980
1980
0000
0000
1F00
2180
60C0
40E0
C060
C060
C060
C060
E040
60C0
3080
1F00
ENDCHAR
STARTCHAR 00F7
ENCODING 247
SWIDTH 560 0
DWIDTH 14 0
BBX 12 9 1 4
BITMAP
0600
0600
0000
0000
FFF0
0000
0000
0600
0600
ENDCHAR
STARTCHAR 00F8
ENCODING 248
SWIDTH 520 0
DWIDTH 13 0
BBX 12 12 1 0
BITMAP
1F30
21A0
60C0
40E0
C160
C260
C460
C860
F040
60C0
7080
9F00
ENDCHAR
STARTCHAR 00F9
ENCODING 249
SWIDTH 520 0
DWIDTH 13 0
BBX 13 18 0 0
BITMAP
0C00
0400
0200
0200
0000
0000
F1E0
3060
3060
3060
3060
3060
3060
3060
3060
3060
39F8
1E60
ENDCHAR
STARTCHAR 00FA
ENCODING 250
SWIDTH 520 0
DWIDTH 13 0
BBX 13 18 0 0
BITMAP
0300
0200
0400
0400
0000
0000
F1E0
3060
3060
3060
3060
3060
3060
3060
3060
3060
39F8
1E60
ENDCHAR
STARTCHAR 00FB
ENCODING 251
SWIDTH 520 0
DWIDTH 13 0
BBX 13 18 0 0
BITMAP
0700
0D80
0880
1040
0000
0000
F1E0
3060
3060
3060
3060
3060
3060
3060
3060
3060
39F8
1E60
ENDCHAR
STARTCHAR 00FC
ENCODING 252
SWIDTH 520 0
DWIDTH 13 0
BBX 13 16 0 0
BITMAP
1980
1980
0000
0000
F1E0
3060
3060
3060
3060
3060
3060
3060
3060
3060
39F8
1E60
ENDCHAR
STARTCHAR 00FD
ENCODING 253
SWIDTH 520 0
DWIDTH 13 0
BBX 13 23 0 -5
BITMAP
0180
0100
0200
0200
0000
0000
F878
7030
3020
3040
1840
1840
0C80
0C80
0700
0700
0200
0200
0200
0400
0C00
7800
7000
ENDCHAR
STARTCHAR 00FE
ENCODING 254
SWIDTH 520 0
DWIDTH 13 0
BBX 12 23 0 -5
BITMAP
3000
F000
3000
3000
3000
3000
33C0
3CE0
3060
3030
3030
3030
3030
3030
3020
3060
38C0
3780
3000
3000
3000
3000
FC00
ENDCHAR
STARTCHAR 00FF
ENCODING 255
SWIDTH 520 0
DWIDTH 13 0
BBX 13 21 0 -5
BITMAP
0CC0
0CC0
0000
0000
F878
7030
3020
3040
1840
1840
0C80
0C80
0700
0700
0200
0200
0200
0400
0C00
7800
7000
ENDCHAR
STARTCHAR 0100
ENCODING 256
SWIDTH 720 0
DWIDTH 18 0
BBX 18 20 0 0
BITMAP
07F800
000000
000000
004000
00C000
00E000
016000
016000
023000
023000
023000
041800
041800
0FFC00
080C00
080C00
100600
100600
300700
FC0FC0
ENDCHAR
STARTCHAR 0101
ENCODING 257
SWIDTH 440 0
DWIDTH 11 0
BBX 10 15 1 0
BITMAP
FF00
0000
0000
3C00
4200
C300
C300
0700
1B00
6300
C300
C300
C300
E740
7B80
ENDCHAR
STARTCHAR 0102
ENCODING 258
SWIDTH 720 0
DWIDTH 18 0
BBX 18 22 0 0
BITMAP
021000
03F000
01E000
000000
000000
004000
00C000
00E000
016000
016000
023000
023000
023000
041800
041800
0FFC00
080C00
080C00
100600
100600
300700
FC0FC0
ENDCHAR
STARTCHAR 0103
ENCODING 259
SWIDTH 440 0
DWIDTH 11 0
BBX 10 17 1 0
BITMAP
4200
7E00
3C00
0000
0000
3C00
4200
C300
C300
0700
1B00
6300
C300
C300
C300
E740
7B80
ENDCHAR
STARTCHAR 0104
ENCODING 260
SWIDTH 720 0
DWIDTH 18 0
BBX 18 22 0 -5
BITMAP
004000
00C000
00E000
016000
016000
023000
023000
023000
041800
041800
0FFC00
080C00
080C00
100600
100600
300700
FC0FC0
000200
000200
000200
000300
0001C0
ENDCHAR
STARTCHAR 0105
ENCODING 261
SWIDTH 440 0
DWIDTH 11 0
BBX 10 17 1 -5
BITMAP
3C00
4200
C300
C300
0700
1B00
6300
C300
C300
C300
E740
7B80
0200
0200
0200
0300
01C0
ENDCHAR
STARTCHAR 0106
ENCODING 262
SWIDTH 680 0
DWIDTH 17 0
BBX 15 23 1 0
BITMAP
00C0
0080
0100
0100
0000
0000
07E4
181C
300C
6004
6004
4004
C000
C000
C000
C000
C000
C000
6000
6002
3004
1C18
07E0
ENDCHAR
STARTCHAR 0107
ENCODING 263
SWIDTH 440 0
DWIDTH 11 0
BBX 9 18 1 0
BITMAP
0600
0400
0800
0800
0000
0000
1E00
2300
6180
C180
C000
C000
C000
C080
E080
7100
3F00
1C00
ENDCHAR
STARTCHAR 0108
ENCODING 264
SWIDTH 680 0
DWIDTH 17 0
BBX 15 23 1 0
BITMAP
01C0
0360
0220
0410
0000
0000
07E4
181C
300C
6004
6004
4004
C000
C000
C000
C000
C000
C000
6000
6002
3004
1C18
07E0
ENDCHAR
STARTCHAR 0109
ENCODING 265
SWIDTH 440 0
DWIDTH 11 0
BBX 9 18 1 0
BITMAP
0E00
1B00
1100
2080
0000
0000
1E00
2300
6180
C180
C000
C000
C000
C080
E080
7100
3F00
1C00
ENDCHAR
STARTCHAR 010A
ENCODING 266
SWIDTH 680 0
DWIDTH 17 0
BBX 15 21 1 0
BITMAP
0180
0180
0000
0000
07E4
181C
300C
6004
6004
4004
C000
C000
C000
C000
C000
C000
6000
6002
3004
1C18
07E0
ENDCHAR
STARTCHAR 010B
ENCODING 267
SWIDTH 440 0
DWIDTH 11 0
BBX 9 16 1 0
BITMAP
0C00
0C00
0000
0000
1E00
2300
6180
C180
C000
C000
C000
C080
E080
7100
3F00
1C00
ENDCHAR
STARTCHAR 010C
ENCODING 268
SWIDTH 680 0
DWIDTH 17 0
BBX 15 23 1 0
BITMAP
0820
0440
06C0
0380
0000
0000
07E4
181C
300C
6004
6004
4004
C000
C000
C000
C000
C000
C000
6000
6002
3004
1C18
07E0
ENDCHAR
STARTCHAR 010D
ENCODING 269
SWIDTH 440 0
DWIDTH 11 0
BBX 9 18 1 0
BITMAP
2080
1100
1B00
0E00
0000
0000
1E00
2300
6180
C180
C000
C000
C000
C080
E080
7100
3F00
1C00
ENDCHAR
STARTCHAR 010E
ENCODING 270
SWIDTH 720 0
DWIDTH 18 0
BBX 16 23 1 0
BITMAP
0820
0440
06C0
0380
0000
0000
FFE0
3038
300C
3006
3006
3003
3003
3003
3003
3003
3003
3003
3006
3006
300C
3038
FFE0
ENDCHAR
STARTCHAR 010F
ENCODING 271
SWIDTH 640 0
DWIDTH 16 0
BBX 15 18 1 0
BITMAP
00DC
03DE
00C2
00C2
00C4
00C8
1EC0
31C0
60C0
40C0
C0C0
C0C0
C0C0
C0C0
C0C0
60C0
71F0
1EC0
ENDCHAR
STARTCHAR 0110
ENCODING 272
SWIDTH 720 0
DWIDTH 18 0
BBX 16 17 1 0
BITMAP
FFE0
3038
301C
300E
3006
3003
3003
FF83
3003
3003
3003
3003
3006
300E
301C
3038
FFE0
ENDCHAR
STARTCHAR 0111
ENCODING 273
SWIDTH 520 0
DWIDTH 13 0
BBX 12 18 1 0
BITMAP
00C0
03C0
00C0
0FF0
00C0
00C0
1EC0
31C0
60C0
40C0
C0C0
C0C0
C0C0
C0C0
C0C0
60C0
71F0
1EC0
ENDCHAR
STARTCHAR 0112
ENCODING 274
SWIDTH 600 0
DWIDTH 15 0
BBX 13 20 1 0
BITMAP
1FE0
0000
0000
FFF0
3030
3010
3010
3000
3000
3040
3040
3FC0
3040
3040
3000
3000
3008
3018
3030
FFF0
ENDCHAR
STARTCHAR 0113
ENCODING 275
SWIDTH 440 0
DWIDTH 11 0
BBX 9 15 1 0
BITMAP
7F80
0000
0000
1E00
2300
4180
8180
FF80
8000
8000
8000
C080
6180
7F00
1E00
ENDCHAR
STARTCHAR 0114
ENCODING 276
SWIDTH 600 0
DWIDTH 15 0
BBX 13 22 1 0
BITMAP
0840
0FC0
0780
0000
0000
FFF0
3030
3010
3010
3000
3000
3040
3040
3FC0
3040
3040
3000
3000
3008
3018
3030
FFF0
ENDCHAR
STARTCHAR 0115
ENCODING 277
SWIDTH 440 0
DWIDTH 11 0
BBX 9 17 1 0
BITMAP
2100
3F00
1E00
0000
0000
1E00
2300
4180
8180
FF80
8000
8000
8000
C080
6180
7F00
1E00
ENDCHAR
STARTCHAR 0116
ENCODING 278
SWIDTH 600 0
DWIDTH 15 0
BBX 13 21 1 0
BITMAP
0300
0300
0000
0000
FFF0
3030
3010
3010
3000
3000
3040
3040
3FC0
3040
3040
3000
3000
3008
3018
3030
FFF0
ENDCHAR
STARTCHAR 0117
ENCODING 279
SWIDTH 440 0
DWIDTH 11 0
BBX 9 16 1 0
BITMAP
0C00
0C00
0000
0000
1E00
2300
4180
8180
FF80
8000
8000
8000
C080
6180
7F00
1E00
ENDCHAR
STARTCHAR 0118
ENCODING 280
SWIDTH 600 0
DWIDTH 15 0
BBX 13 22 1 -5
BITMAP
FFF0
3030
3010
3010
3000
3000
3040
3040
3FC0
3040
3040
3000
3000
3008
3018
3030
FFF0
0040
0040
0040
0060
0038
ENDCHAR
STARTCHAR 0119
ENCODING 281
SWIDTH 440 0
DWIDTH 11 0
BBX 9 17 1 -5
BITMAP
1E00
2300
4180
8180
FF80
8000
8000
8000
C080
6180
7F00
1E00
0800
0800
0800
0C00
0700
ENDCHAR
STARTCHAR 011A
ENCODING 282
SWIDTH 600 0
DWIDTH 15 0
BBX 13 23 1 0
BITMAP
1040
0880
0D80
0700
0000
0000
FFF0
3030
3010
3010
3000
3000
3040
3040
3FC0
3040
3040
3000
3000
3008
3018
3030
FFF0
ENDCHAR
STARTCHAR 011B
ENCODING 283
SWIDTH 440 0
DWIDTH 11 0
BBX 9 18 1 0
BITMAP
4100
2200
3600
1C00
0000
0000
1E00
2300
4180
8180
FF80
8000
8000
8000
C080
6180
7F00
1E00
ENDCHAR
STARTCHAR 011C
ENCODING 284
SWIDTH 720 0
DWIDTH 18 0
BBX 17 23 1 0
BITMAP
01C000
036000
022000
041000
000000
000000
03F200
0C1E00
100600
200200
600200
400000
C00000
C00000
C01F80
C00600
C00600
E00600
600600
700600
380600
0C0E00
03F800
ENDCHAR
STARTCHAR 011D
ENCODING 285
SWIDTH 480 0
DWIDTH 12 0
BBX 12 23 0 -5
BITMAP
0E00
1B00
1100
2080
0000
0000
1F00
31F0
60C0
60C0
60C0
60C0
3180
1F00
2000
6000
7FC0
3FE0
2020
4020
C020
E040
7F80
ENDCHAR
STARTCHAR 011E
ENCODING 286
SWIDTH 720 0
DWIDTH 18 0
BBX 17 22 1 0
BITMAP
021000
03F000
01E000
000000
000000
03F200
0C1E00
100600
200200
600200
400000
C00000
C00000
C01F80
C00600
C00600
E00600
600600
700600
380600
0C0E00
03F800
ENDCHAR
STARTCHAR 011F
ENCODING 287
SWIDTH 480 0
DWIDTH 12 0
BBX 12 22 0 -5
BITMAP
1080
1F80
0F00
0000
0000
1F00
31F0
60C0
60C0
60C0
60C0
3180
1F00
2000
6000
7FC0
3FE0
2020
4020
C020
E040
7F80
ENDCHAR
STARTCHAR 0120
ENCODING 288
SWIDTH 720 0
DWIDTH 18 0
BBX 17 21 1 0
BITMAP
00C000
00C000
000000
000000
03F200
0C1E00
100600
200200
600200
400000
C00000
C00000
C01F80
C00600
C00600
E00600
600600
700600
380600
0C0E00
03F800
ENDCHAR
STARTCHAR 0121
ENCODING 289
SWIDTH 480 0
DWIDTH 12 0
BBX 12 21 0 -5
BITMAP
0600
0600
0000
0000
1F00
31F0
60C0
60C0
60C0
60C0
3180
1F00
2000
6000
7FC0
3FE0
2020
4020
C020
E040
7F80
ENDCHAR
STARTCHAR 0122
ENCODING 290
SWIDTH 720 0
DWIDTH 18 0
BBX 17 22 1 -5
BITMAP
03F200
0C1E00
100600
200200
600200
400000
C00000
C00000
C01F80
C00600
C00600
E00600
600600
700600
380600
0C0E00
03F800
008000
018000
00C000
00C000
038000
ENDCHAR
STARTCHAR 0123
ENCODING 291
SWIDTH 480 0
DWIDTH 12 0
BBX 12 24 0 -5
BITMAP
0600
0800
0800
0E00
0600
0000
0000
1F00
31F0
60C0
60C0
60C0
60C0
3180
1F00
2000
6000
7FC0
3FE0
2020
4020
C020
E040
7F80
ENDCHAR
STARTCHAR 0124
ENCODING 292
SWIDTH 720 0
DWIDTH 18 0
BBX 16 23 1 0
BITMAP
01C0
0360
0220
0410
0000
0000
FC3F
300C
300C
300C
300C
300C
300C
300C
3FFC
300C
300C
300C
300C
300C
300C
300C
FC3F
ENDCHAR
STARTCHAR 0125
ENCODING 293
SWIDTH 520 0
DWIDTH 13 0
BBX 13 23 0 0
BITMAP
0380
06C0
0440
0820
0000
3000
F000
3000
3000
3000
3000
33C0
3CC0
3060
3060
3060
3060
3060
3060
3060
3060
3060
FCF8
ENDCHAR
STARTCHAR 0126
ENCODING 294
SWIDTH 720 0
DWIDTH 18 0
BBX 16 17 1 0
BITMAP
FC3F
300C
300C
FFFF
300C
300C
300C
300C
3FFC
300C
300C
300C
300C
300C
300C
300C
FC3F
ENDCHAR
STARTCHAR 0127
ENCODING 295
SWIDTH 520 0
DWIDTH 13 0
BBX 13 18 0 0
BITMAP
3000
F000
3000
FF00
3000
3000
33C0
3CC0
3060
3060
3060
3060
3060
3060
3060
3060
3060
FFF8
ENDCHAR
STARTCHAR 0128
ENCODING 296
SWIDTH 320 0
DWIDTH 8 0
BBX 8 22 0 0
BITMAP
71
99
8E
00
00
7E
18
18
18
18
18
18
18
18
18
18
18
18
18
18
18
7E
ENDCHAR
STARTCHAR 0129
ENCODING 297
SWIDTH 240 0
DWIDTH 6 0
BBX 8 17 -1 0
BITMAP
71
99
8E
00
00
18
78
18
18
18
18
18
18
18
18
18
7E
ENDCHAR
STARTCHAR 012A
ENCODING 298
SWIDTH 320 0
DWIDTH 8 0
BBX 8 20 0 0
BITMAP
FF
00
00
7E
18
18
18
18
18
18
18
18
18
18
18
18
18
18
18
7E
ENDCHAR
STARTCHAR 012B
ENCODING 299
SWIDTH 240 0
DWIDTH 6 0
BBX 8 15 -1 0
BITMAP
FF
00
00
18
78
18
18
18
18
18
18
18
18
18
7E
ENDCHAR
STARTCHAR 012C
ENCODING 300
SWIDTH 320 0
DWIDTH 8 0
BBX 6 22 1 0
BITMAP
84
FC
78
00
00
FC
30
30
30
30
30
30
30
30
30
30
30
30
30
30
30
FC
ENDCHAR
STARTCHAR 012D
ENCODING 301
SWIDTH 240 0
DWIDTH 6 0
BBX 6 17 0 0
BITMAP
84
FC
78
00
00
30
F0
30
30
30
30
30
30
30
30
30
FC
ENDCHAR
STARTCHAR 012E
ENCODING 302
SWIDTH 320 0
DWIDTH 8 0
BBX 6 22 1 -5
BITMAP
FC
30
30
30
30
30
30
30
30
30
30
30
30
30
30
30
FC
20
20
20
30
1C
ENDCHAR
STARTCHAR 012F
ENCODING 303
SWIDTH 240 0
DWIDTH 6 0
BBX 7 23 0 -5
BITMAP
30
30
00
00
00
00
30
F0
30
30
30
30
30
30
30
30
30
FC
10
10
10
18
0E
ENDCHAR
STARTCHAR 0130
ENCODING 304
SWIDTH 320 0
DWIDTH 8 0
BBX 6 21 1 0
BITMAP
30
30
00
00
FC
30
30
30
30
30
30
30
30
30
30
30
30
30
30
30
FC
ENDCHAR
STARTCHAR 0131
ENCODING 305
SWIDTH 240 0
DWIDTH 6 0
BBX 6 12 0 0
BITMAP
30
F0
30
30
30
30
30
30
30
30
30
FC
ENDCHAR
STARTCHAR 0132
ENCODING 306
SWIDTH 720 0
DWIDTH 18 0
BBX 16 17 1 0
BITMAP
FC3F
300C
300C
300C
300C
300C
300C
300C
300C
300C
300C
300C
300C
300C
30CC
30E8
FC70
ENDCHAR
STARTCHAR 0133
ENCODING 307
SWIDTH 520 0
DWIDTH 13 0
BBX 11 23 0 -5
BITMAP
3060
3060
0000
0000
0000
0000
3060
F1E0
3060
3060
3060
3060
3060
3060
3060
3060
3060
FC60
0060
0060
0040
0C40
0F80
ENDCHAR
STARTCHAR 0134
ENCODING 308
SWIDTH 400 0
DWIDTH 10 0
BBX 8 23 1 0
BITMAP
1C
36
22
41
00
00
3F
0C
0C
0C
0C
0C
0C
0C
0C
0C
0C
0C
0C
0C
CC
E8
70
ENDCHAR
STARTCHAR 0135
ENCODING 309
SWIDTH 280 0
DWIDTH 7 0
BBX 9 23 -2 -5
BITMAP
0E00
1B00
1100
2080
0000
0000
0600
1E00
0600
0600
0600
0600
0600
0600
0600
0600
0600
0600
0600
0600
0400
C400
F800
ENDCHAR
STARTCHAR 0136
ENCODING 310
SWIDTH 720 0
DWIDTH 18 0
BBX 17 22 1 -5
BITMAP
FC7E00
301800
303000
304000
308000
310000
320000
3E0000
360000
330000
318000
30C000
306000
303000
301800
301E00
FC3F80
000000
030000
018000
018000
070000
ENDCHAR
STARTCHAR 0137
ENCODING 311
SWIDTH 480 0
DWIDTH 12 0
BBX 12 23 0 -5
BITMAP
3000
F000
3000
3000
3000
3000
31F0
3080
3100
3200
3400
3C00
3600
3300
3180
30C0
3060
FCF0
0000
0600
0300
0300
0E00
ENDCHAR
STARTCHAR 0138
ENCODING 312
SWIDTH 520 0
DWIDTH 13 0
BBX 13 12 0 0
BITMAP
FDF0
30C0
3100
3200
3400
3C00
3600
3300
3180
30C0
3060
FDF8
ENDCHAR
STARTCHAR 0139
ENCODING 313
SWIDTH 600 0
DWIDTH 15 0
BBX 13 23 1 0
BITMAP
0C00
0800
1000
1000
0000
0000
FC00
3000
3000
3000
3000
3000
3000
3000
3000
3000
3000
3000
3008
3018
3018
3030
FFF0
ENDCHAR
STARTCHAR 013A
ENCODING 314
SWIDTH 240 0
DWIDTH 6 0
BBX 6 23 0 0
BITMAP
18
10
20
20
00
30
F0
30
30
30
30
30
30
30
30
30
30
30
30
30
30
30
FC
ENDCHAR
STARTCHAR 013B
ENCODING 315
SWIDTH 600 0
DWIDTH 15 0
BBX 13 22 1 -5
BITMAP
FC00
3000
3000
3000
3000
3000
3000
3000
3000
3000
3000
3000
3008
3018
3018
3030
FFF0
0000
0300
0180
0180
0700
ENDCHAR
STARTCHAR 013C
ENCODING 316
SWIDTH 240 0
DWIDTH 6 0
BBX 6 23 0 -5
BITMAP
30
F0
30
30
30
30
30
30
30
30
30
30
30
30
30
30
30
FC
00
30
18
18
70
ENDCHAR
STARTCHAR 013D
ENCODING 317
SWIDTH 600 0
DWIDTH 15 0
BBX 13 17 1 0
BITMAP
FC70
3078
3008
3018
3030
3040
3000
3000
3000
3000
3000
3000
3008
3018
3018
3030
FFF0
ENDCHAR
STARTCHAR 013E
ENCODING 318
SWIDTH 400 0
DWIDTH 10 0
BBX 10 18 0 0
BITMAP
3380
F3C0
3040
3040
3180
3200
3000
3000
3000
3000
3000
3000
3000
3000
3000
3000
3000
FC00
ENDCHAR
STARTCHAR 013F
ENCODING 319
SWIDTH 600 0
DWIDTH 15 0
BBX 13 17 1 0
BITMAP
FC00
3000
3000
3000
3000
3000
3000
3000
3180
3180
3000
3000
3008
3018
3018
3030
FFF0
ENDCHAR
STARTCHAR 0140
ENCODING 320
SWIDTH 360 0
DWIDTH 9 0
BBX 7 18 0 0
BITMAP
30
F0
30
30
30
30
30
30
30
36
36
30
30
30
30
30
30
FC
ENDCHAR
STARTCHAR 0141
ENCODING 321
SWIDTH 600 0
DWIDTH 15 0
BBX 14 17 0 0
BITMAP
7E00
1800
1800
1800
1800
1900
1A00
1C00
1800
3800
5800
9800
1804
180C
180C
1818
7FF8
ENDCHAR
STARTCHAR 0142
ENCODING 322
SWIDTH 240 0
DWIDTH 6 0
BBX 6 18 0 0
BITMAP
30
F0
30
30
30
30
34
38
30
30
70
B0
30
30
30
30
30
FC
ENDCHAR
STARTCHAR 0143
ENCODING 323
SWIDTH 720 0
DWIDTH 18 0
BBX 17 23 0 0
BITMAP
003000
002000
004000
004000
000000
000000
F00F80
380200
1C0200
1C0200
160200
130200
138200
118200
10C200
106200
107200
103200
101A00
100E00
100E00
100600
7C0200
ENDCHAR
STARTCHAR 0144
ENCODING 324
SWIDTH 520 0
DWIDTH 13 0
BBX 13 18 0 0
BITMAP
0300
0200
0400
0400
0000
0000
33C0
FCC0
3060
3060
3060
3060
3060
3060
3060
3060
3060
F8F8
ENDCHAR
STARTCHAR 0145
ENCODING 325
SWIDTH 720 0
DWIDTH 18 0
BBX 17 22 0 -5
BITMAP
F00F80
380200
1C0200
1C0200
160200
130200
138200
118200
10C200
106200
107200
103200
101A00
100E00
100E00
100600
7C0200
000000
018000
00C000
00C000
038000
ENDCHAR
STARTCHAR 0146
ENCODING 326
SWIDTH 520 0
DWIDTH 13 0
BBX 13 17 0 -5
BITMAP
33C0
FCC0
3060
3060
3060
3060
3060
3060
3060
3060
3060
F8F8
0000
0600
0300
0300
0E00
ENDCHAR
STARTCHAR 0147
ENCODING 327
SWIDTH 720 0
DWIDTH 18 0
BBX 17 23 0 0
BITMAP
020800
011000
01B000
00E000
000000
000000
F00F80
380200
1C0200
1C0200
160200
130200
138200
118200
10C200
106200
107200
103200
101A00
100E00
100E00
100600
7C0200
ENDCHAR
STARTCHAR 0148
ENCODING 328
SWIDTH 520 0
DWIDTH 13 0
BBX 13 18 0 0
BITMAP
1040
0880
0D80
0700
0000
0000
33C0
FCC0
3060
3060
3060
3060
3060
3060
3060
3060
3060
F8F8
ENDCHAR
STARTCHAR 0149
ENCODING 329
SWIDTH 600 0
DWIDTH 15 0
BBX 15 17 0 0
BITMAP
E000
F000
1000
1000
2000
4CF0
3F30
0C18
0C18
0C18
0C18
0C18
0C18
0C18
0C18
0C18
3E3E
ENDCHAR
STARTCHAR 014A
ENCODING 330
SWIDTH 720 0
DWIDTH 18 0
BBX 16 17 1 0
BITMAP
F1F0
320C
3406
3806
3003
3003
3003
3003
3003
3003
3003
3003
3002
30C2
30C4
30C4
FC78
ENDCHAR
STARTCHAR 014B
ENCODING 331
SWIDTH 480 0
DWIDTH 12 0
BBX 11 17 0 -5
BITMAP
33C0
F4C0
3860
3060
3060
3060
3060
3060
3060
3060
3060
FC60
0060
0060
0040
0E40
0F80
ENDCHAR
STARTCHAR 014C
ENCODING 332
SWIDTH 720 0
DWIDTH 18 0
BBX 16 20 1 0
BITMAP
0FF0
0000
0000
07E0
1838
300C
6006
6006
C003
C003
C003
C003
C003
C003
C003
6006
6006
300C
1838
07E0
ENDCHAR
STARTCHAR 014D
ENCODING 333
SWIDTH 520 0
DWIDTH 13 0
BBX 11 15 1 0
BITMAP
3FC0
0000
0000
1F00
2180
60C0
40E0
C060
C060
C060
C060
E040
60C0
3080
1F00
ENDCHAR
STARTCHAR 014E
ENCODING 334
SWIDTH 720 0
DWIDTH 18 0
BBX 16 22 1 0
BITMAP
0420
07E0
03C0
0000
0000
07E0
1838
300C
6006
6006
C003
C003
C003
C003
C003
C003
C003
6006
6006
300C
1838
07E0
ENDCHAR
STARTCHAR 014F
ENCODING 335
SWIDTH 520 0
DWIDTH 13 0
BBX 11 17 1 0
BITMAP
2100
3F00
1E00
0000
0000
1F00
2180
60C0
40E0
C060
C060
C060
C060
E040
60C0
3080
1F00
ENDCHAR
STARTCHAR 0150
ENCODING 336
SWIDTH 720 0
DWIDTH 18 0
BBX 16 23 1 0
BITMAP
01B0
0120
0240
0000
0000
0000
07E0
1838
300C
6006
6006
C003
C003
C003
C003
C003
C003
C003
6006
6006
300C
1838
07E0
ENDCHAR
STARTCHAR 0151
ENCODING 337
SWIDTH 520 0
DWIDTH 13 0
BBX 11 18 1 0
BITMAP
06C0
0480
0900
0000
0000
0000
1F00
2180
60C0
40E0
C060
C060
C060
C060
E040
60C0
3080
1F00
ENDCHAR
STARTCHAR 0152
ENCODING 338
SWIDTH 880 0
DWIDTH 22 0
BBX 20 17 1 0
BITMAP
07FFE0
18E060
306020
606020
606000
C06000
C06080
C06080
C07F80
C06080
C06080
C06000
606000
606010
306020
18E060
07FFE0
ENDCHAR
STARTCHAR 0153
ENCODING 339
SWIDTH 720 0
DWIDTH 18 0
BBX 16 12 1 0
BITMAP
1E1C
23A6
41C3
C1C3
C0FF
C0C0
C0C0
C0C0
E0E1
60F3
31BE
1E1C
ENDCHAR
STARTCHAR 0154
ENCODING 340
SWIDTH 680 0
DWIDTH 17 0
BBX 16 23 1 0
BITMAP
0300
0200
0400
0400
0000
0000
FF80
30E0
3060
3030
3030
3030
3060
30E0
3F80
3380
3180
30C0
30E0
3060
3030
303C
FC1F
ENDCHAR
STARTCHAR 0155
ENCODING 341
SWIDTH 320 0
DWIDTH 8 0
BBX 8 18 0 0
BITMAP
06
04
08
08
00
00
37
FB
30
30
30
30
30
30
30
30
30
FC
ENDCHAR
STARTCHAR 0156
ENCODING 342
SWIDTH 680 0
DWIDTH 17 0
BBX 16 22 1 -5
BITMAP
FF80
30E0
3060
3030
3030
3030
3060
30E0
3F80
3380
3180
30C0
30E0
3060
3030
303C
FC1F
0000
0300
0180
0180
0700
ENDCHAR
STARTCHAR 0157
ENCODING 343
SWIDTH 320 0
DWIDTH 8 0
BBX 8 17 0 -5
BITMAP
37
FB
30
30
30
30
30
30
30
30
30
FC
00
18
0C
0C
38
ENDCHAR
STARTCHAR 0158
ENCODING 344
SWIDTH 680 0
DWIDTH 17 0
BBX 16 23 1 0
BITMAP
1040
0880
0D80
0700
0000
0000
FF80
30E0
3060
3030
3030
3030
3060
30E0
3F80
3380
3180
30C0
30E0
3060
3030
303C
FC1F
ENDCHAR
STARTCHAR 0159
ENCODING 345
SWIDTH 320 0
DWIDTH 8 0
BBX 8 18 0 0
BITMAP
41
22
36
1C
00
00
37
FB
30
30
30
30
30
30
30
30
30
FC
ENDCHAR
STARTCHAR 015A
ENCODING 346
SWIDTH 560 0
DWIDTH 14 0
BBX 11 23 2 0
BITMAP
0600
0400
0800
0800
0000
0000
3E40
61C0
C0C0
C040
C040
E000
7800
3C00
0F00
0780
01C0
80E0
8060
C060
C060
F0C0
9F00
ENDCHAR
STARTCHAR 015B
ENCODING 347
SWIDTH 400 0
DWIDTH 10 0
BBX 8 18 1 0
BITMAP
0C
08
10
10
00
00
3A
46
82
C0
F0
7C
1E
07
83
83
C6
BC
ENDCHAR
STARTCHAR 015C
ENCODING 348
SWIDTH 560 0
DWIDTH 14 0
BBX 11 23 2 0
BITMAP
0E00
1B00
1100
2080
0000
0000
3E40
61C0
C0C0
C040
C040
E000
7800
3C00
0F00
0780
01C0
80E0
8060
C060
C060
F0C0
9F00
ENDCHAR
STARTCHAR 015D
ENCODING 349
SWIDTH 400 0
DWIDTH 10 0
BBX 8 18 1 0
BITMAP
1C
36
22
41
00
00
3A
46
82
C0
F0
7C
1E
07
83
83
C6
BC
ENDCHAR
STARTCHAR 015E
ENCODING 350
SWIDTH 560 0
DWIDTH 14 0
BBX 11 22 2 -5
BITMAP
3E40
61C0
C0C0
C040
C040
E000
7800
3C00
0F00
0780
01C0
80E0
8060
C060
C060
F0C0
9F00
0400
0C00
0600
0600
1C00
ENDCHAR
STARTCHAR 015F
ENCODING 351
SWIDTH 400 0
DWIDTH 10 0
BBX 8 17 1 -5
BITMAP
3A
46
82
C0
F0
7C
1E
07
83
83
C6
BC
08
18
0C
0C
38
ENDCHAR
STARTCHAR 0160
ENCODING 352
SWIDTH 560 0
DWIDTH 14 0
BBX 11 23 2 0
BITMAP
2080
1100
1B00
0E00
0000
0000
3E40
61C0
C0C0
C040
C040
E000
7800
3C00
0F00
0780
01C0
80E0
8060
C060
C060
F0C0
9F00
ENDCHAR
STARTCHAR 0161
ENCODING 353
SWIDTH 400 0
DWIDTH 10 0
BBX 8 18 1 0
BITMAP
82
44
6C
38
00
00
3A
46
82
C0
F0
7C
1E
07
83
83
C6
BC
ENDCHAR
STARTCHAR 0162
ENCODING 354
SWIDTH 600 0
DWIDTH 15 0
BBX 14 23 1 -6
BITMAP
FFFC
C30C
8304
0300
0300
0300
0300
0300
0300
0300
0300
0300
0300
0300
0300
0300
0FC0
0000
0380
0380
0080
0100
0300
ENDCHAR
STARTCHAR 0163
ENCODING 355
SWIDTH 280 0
DWIDTH 7 0
BBX 7 22 0 -6
BITMAP
10
10
30
30
FE
30
30
30
30
30
30
30
30
30
32
1C
00
30
38
08
18
30
ENDCHAR
STARTCHAR 0164
ENCODING 356
SWIDTH 560 0
DWIDTH 14 0
BBX 14 23 0 0
BITMAP
0820
0440
06C0
0380
0000
0000
FFFC
C30C
8304
8304
0300
0300
0300
0300
0300
0300
0300
0300
0300
0300
0300
0300
0FC0
ENDCHAR
STARTCHAR 0165
ENCODING 357
SWIDTH 440 0
DWIDTH 11 0
BBX 11 18 0 0
BITMAP
01C0
01E0
1020
1040
3080
7100
FE00
3000
3000
3000
3000
3000
3000
3000
3000
3000
3200
1C00
ENDCHAR
STARTCHAR 0166
ENCODING 358
SWIDTH 560 0
DWIDTH 14 0
BBX 14 17 0 0
BITMAP
FFFC
C30C
8304
8304
0300
0300
0300
0300
3FF0
0300
0300
0300
0300
0300
0300
0300
0FC0
ENDCHAR
STARTCHAR 0167
ENCODING 359
SWIDTH 280 0
DWIDTH 7 0
BBX 7 16 0 0
BITMAP
10
10
30
30
FE
30
30
30
FE
30
30
30
30
30
32
1C
ENDCHAR
STARTCHAR 0168
ENCODING 360
SWIDTH 680 0
DWIDTH 17 0
BBX 17 22 0 0
BITMAP
038800
04C800
047000
000000
000000
FC0F80
300200
300200
300200
300200
300200
300200
300200
300200
300200
300200
300200
300200
300600
180400
0C1800
07F000
ENDCHAR
STARTCHAR 0169
ENCODING 361
SWIDTH 520 0
DWIDTH 13 0
BBX 13 17 0 0
BITMAP
0E20
1320
11C0
0000
0000
F1E0
3060
3060
3060
3060
3060
3060
3060
3060
3060
39F8
1E60
ENDCHAR
STARTCHAR 016A
ENCODING 362
SWIDTH 680 0
DWIDTH 17 0
BBX 17 20 0 0
BITMAP
07F800
000000
000000
FC0F80
300200
300200
300200
300200
300200
300200
300200
300200
300200
300200
300200
300200
300600
180400
0C1800
07F000
ENDCHAR
STARTCHAR 016B
ENCODING 363
SWIDTH 520 0
DWIDTH 13 0
BBX 13 15 0 0
BITMAP
1FE0
0000
0000
F1E0
3060
3060
3060
3060
3060
3060
3060
3060
3060
39F8
1E60
ENDCHAR
STARTCHAR 016C
ENCODING 364
SWIDTH 680 0
DWIDTH 17 0
BBX 17 22 0 0
BITMAP
021000
03F000
01E000
000000
000000
FC0F80
300200
300200
300200
300200
300200
300200
300200
300200
300200
300200
300200
300200
300600
180400
0C1800
07F000
ENDCHAR
STARTCHAR 016D
ENCODING 365
SWIDTH 520 0
DWIDTH 13 0
BBX 13 17 0 0
BITMAP
0840
0FC0
0780
0000
0000
F1E0
3060
3060
3060
3060
3060
3060
3060
3060
3060
39F8
1E60
ENDCHAR
STARTCHAR 016E
ENCODING 366
SWIDTH 680 0
DWIDTH 17 0
BBX 17 23 0 0
BITMAP
00C000
012000
012000
00C000
000000
000000
FC0F80
300200
300200
300200
300200
300200
300200
300200
300200
300200
300200
300200
300200
300600
180400
0C1800
07F000
ENDCHAR
STARTCHAR 016F
ENCODING 367
SWIDTH 520 0
DWIDTH 13 0
BBX 13 18 0 0
BITMAP
0600
0900
0900
0600
0000
0000
F1E0
3060
3060
3060
3060
3060
3060
3060
3060
3060
39F8
1E60
ENDCHAR
STARTCHAR 0170
ENCODING 368
SWIDTH 680 0
DWIDTH 17 0
BBX 17 23 0 0
BITMAP
00D800
009000
012000
000000
000000
000000
FC0F80
300200
300200
300200
300200
300200
300200
300200
300200
300200
300200
300200
300200
300600
180400
0C1800
07F000
ENDCHAR
STARTCHAR 0171
ENCODING 369
SWIDTH 520 0
DWIDTH 13 0
BBX 13 18 0 0
BITMAP
06C0
0480
0900
0000
0000
0000
F1E0
3060
3060
3060
3060
3060
3060
3060
3060
3060
39F8
1E60
ENDCHAR
STARTCHAR 0172
ENCODING 370
SWIDTH 680 0
DWIDTH 17 0
BBX 17 22 0 -5
BITMAP
FC0F80
300200
300200
300200
300200
300200
300200
300200
300200
300200
300200
300200
300200
300600
180400
0C1800
07F000
004000
004000
004000
006000
003800
ENDCHAR
STARTCHAR 0173
ENCODING 371
SWIDTH 520 0
DWIDTH 13 0
BBX 13 17 0 -5
BITMAP
F1E0
3060
3060
3060
3060
3060
3060
3060
3060
3060
39F8
1E60
0040
0040
0040
0060
0038
ENDCHAR
STARTCHAR 0174
ENCODING 372
SWIDTH 960 0
DWIDTH 24 0
BBX 24 23 0 0
BITMAP
001C00
003600
002200
004100
000000
000000
FCFC1F
38380C
38380C
181808
181808
181C10
0C1C10
0C1C10
062620
062620
062620
034340
034340
034340
018180
018180
018180
ENDCHAR
STARTCHAR 0175
ENCODING 373
SWIDTH 720 0
DWIDTH 18 0
BBX 18 18 0 0
BITMAP
00E000
01B000
011000
020800
000000
000000
FBF3C0
60C180
30C100
30C100
30E200
196200
193200
1A3400
0E1400
0C1800
0C1800
040800
ENDCHAR
STARTCHAR 0176
ENCODING 374
SWIDTH 680 0
DWIDTH 17 0
BBX 16 23 1 0
BITMAP
0380
06C0
0440
0820
0000
0000
FE1F
380C
1808
1C10
0C10
0E20
0620
0340
0340
0180
0180
0180
0180
0180
0180
0180
07E0
ENDCHAR
STARTCHAR 0177
ENCODING 375
SWIDTH 520 0
DWIDTH 13 0
BBX 13 23 0 -5
BITMAP
0700
0D80
0880
1040
0000
0000
F878
7030
3020
3040
1840
1840
0C80
0C80
0700
0700
0200
0200
0200
0400
0C00
7800
7000
ENDCHAR
STARTCHAR 0178
ENCODING 376
SWIDTH 680 0
DWIDTH 17 0
BBX 16 21 1 0
BITMAP
0660
0660
0000
0000
FE1F
380C
1808
1C10
0C10
0E20
0620
0340
0340
0180
0180
0180
0180
0180
0180
0180
07E0
ENDCHAR
STARTCHAR 0179
ENCODING 377
SWIDTH 560 0
DWIDTH 14 0
BBX 14 23 0 0
BITMAP
00C0
0080
0100
0100
0000
0000
3FF8
3030
2070
2060
00C0
01C0
0180
0300
0700
0600
0C00
1C00
1804
3004
700C
600C
FFF8
ENDCHAR
STARTCHAR 017A
ENCODING 378
SWIDTH 440 0
DWIDTH 11 0
BBX 11 18 0 0
BITMAP
0180
0100
0200
0200
0000
0000
7FE0
40C0
4180
0380
0300
0600
0C00
1800
3800
3020
6020
FFE0
ENDCHAR
STARTCHAR 017B
ENCODING 379
SWIDTH 560 0
DWIDTH 14 0
BBX 14 21 0 0
BITMAP
0300
0300
0000
0000
3FF8
3030
2070
2060
00C0
01C0
0180
0300
0700
0600
0C00
1C00
1804
3004
700C
600C
FFF8
ENDCHAR
STARTCHAR 017C
ENCODING 380
SWIDTH 440 0
DWIDTH 11 0
BBX 11 16 0 0
BITMAP
0600
0600
0000
0000
7FE0
40C0
4180
0380
0300
0600
0C00
1800
3800
3020
6020
FFE0
ENDCHAR
STARTCHAR 017D
ENCODING 381
SWIDTH 560 0
DWIDTH 14 0
BBX 14 23 0 0
BITMAP
1040
0880
0D80
0700
0000
0000
3FF8
3030
2070
2060
00C0
01C0
0180
0300
0700
0600
0C00
1C00
1804
3004
700C
600C
FFF8
ENDCHAR
STARTCHAR 017E
ENCODING 382
SWIDTH 440 0
DWIDTH 11 0
BBX 11 18 0 0
BITMAP
1040
0880
0D80
0700
0000
0000
7FE0
40C0
4180
0380
0300
0600
0C00
1800
3800
3020
6020
FFE0
ENDCHAR
STARTCHAR 017F
ENCODING 383
SWIDTH 280 0
DWIDTH 7 0
BBX 10 18 0 0
BITMAP
0780
19C0
10C0
3000
3000
3000
3000
3000
3000
3000
3000
3000
3000
3000
3000
3000
3000
FC00
ENDCHAR
STARTCHAR 018F
ENCODING 399
SWIDTH 720 0
DWIDTH 18 0
BBX 16 17 1 0
BITMAP
47C0
7830
6008
6004
4006
4002
0003
0003
FFFF
C003
C003
C003
6006
6006
300C
1C38
07E0
ENDCHAR
STARTCHAR 0192
ENCODING 402
SWIDTH 480 0
DWIDTH 12 0
BBX 12 22 0 -5
BITMAP
0070
00D0
0180
0180
0180
0380
0FC0
0300
0300
0300
0600
0600
0600
0600
0C00
0C00
0C00
0C00
1800
1800
B000
E000
ENDCHAR
STARTCHAR 01A0
ENCODING 416
SWIDTH 720 0
DWIDTH 18 0
BBX 16 19 1 0
BITMAP
0006
0006
07E2
181C
3008
6004
6006
C002
C003
C003
C003
C003
C003
C003
6006
6006
300C
1838
07E0
ENDCHAR
STARTCHAR 01A1
ENCODING 417
SWIDTH 520 0
DWIDTH 13 0
BBX 12 13 1 0
BITMAP
0030
1F30
2190
60E0
40E0
C060
C060
C060
C060
E040
60C0
3080
1F00
ENDCHAR
STARTCHAR 01AF
ENCODING 431
SWIDTH 760 0
DWIDTH 19 0
BBX 18 20 1 0
BITMAP
0000C0
0000C0
000040
FC0F80
300200
300200
300200
300200
300200
300200
300200
300200
300200
300200
300200
300200
300600
180400
0C1800
07F000
ENDCHAR
STARTCHAR 01B0
ENCODING 432
SWIDTH 560 0
DWIDTH 14 0
BBX 14 13 0 0
BITMAP
000C
F1EC
3064
3078
3060
3060
3060
3060
3060
3060
3060
39F8
1E60
ENDCHAR
STARTCHAR 01CD
ENCODING 461
SWIDTH 720 0
DWIDTH 18 0
BBX 18 23 0 0
BITMAP
020800
011000
01B000
00E000
000000
000000
004000
00C000
00E000
016000
016000
023000
023000
023000
041800
041800
0FFC00
080C00
080C00
100600
100600
300700
FC0FC0
ENDCHAR
STARTCHAR 01CE
ENCODING 462
SWIDTH 440 0
DWIDTH 11 0
BBX 10 18 1 0
BITMAP
4100
2200
3600
1C00
0000
0000
3C00
4200
C300
C300
0700
1B00
6300
C300
C300
C300
E740
7B80
ENDCHAR
STARTCHAR 01CF
ENCODING 463
SWIDTH 320 0
DWIDTH 8 0
BBX 7 23 1 0
BITMAP
82
44
6C
38
00
00
FC
30
30
30
30
30
30
30
30
30
30
30
30
30
30
30
FC
ENDCHAR
STARTCHAR 01D0
ENCODING 464
SWIDTH 240 0
DWIDTH 6 0
BBX 7 18 -1 0
BITMAP
82
44
6C
38
00
00
18
78
18
18
18
18
18
18
18
18
18
7E
ENDCHAR
STARTCHAR 01D1
ENCODING 465
SWIDTH 720 0
DWIDTH 18 0
BBX 16 23 1 0
BITMAP
0410
0220
0360
01C0
0000
0000
07E0
1838
300C
6006
6006
C003
C003
C003
C003
C003
C003
C003
6006
6006
300C
1838
07E0
ENDCHAR
STARTCHAR 01D2
ENCODING 466
SWIDTH 520 0
DWIDTH 13 0
BBX 11 18 1 0
BITMAP
2080
1100
1B00
0E00
0000
0000
1F00
2180
60C0
40E0
C060
C060
C060
C060
E040
60C0
3080
1F00
ENDCHAR
STARTCHAR 01D3
ENCODING 467
SWIDTH 680 0
DWIDTH 17 0
BBX 17 23 0 0
BITMAP
041000
022000
036000
01C000
000000
000000
FC0F80
300200
300200
300200
300200
300200
300200
300200
300200
300200
300200
300200
300200
300600
180400
0C1800
07F000
ENDCHAR
STARTCHAR 01D4
ENCODING 468
SWIDTH 520 0
DWIDTH 13 0
BBX 13 18 0 0
BITMAP
1040
0880
0D80
0700
0000
0000
F1E0
3060
3060
3060
3060
3060
3060
3060
3060
3060
39F8
1E60
ENDCHAR
STARTCHAR 01D5
ENCODING 469
SWIDTH 680 0
DWIDTH 17 0
BBX 17 23 0 0
BITMAP
03F000
000000
033000
033000
000000
000000
FC0F80
300200
300200
300200
300200
300200
300200
300200
300200
300200
300200
300200
300200
300600
180400
0C1800
07F000
ENDCHAR
STARTCHAR 01D6
ENCODING 470
SWIDTH 520 0
DWIDTH 13 0
BBX 13 19 0 0
BITMAP
3FC0
0000
0000
1980
1980
0000
0000
F1E0
3060
3060
3060
3060
3060
3060
3060
3060
3060
39F8
1E60
ENDCHAR
STARTCHAR 01D7
ENCODING 471
SWIDTH 680 0
DWIDTH 17 0
BBX 17 23 0 0
BITMAP
003000
006000
033000
033000
000000
000000
FC0F80
300200
300200
300200
300200
300200
300200
300200
300200
300200
300200
300200
300200
300600
180400
0C1800
07F000
ENDCHAR
STARTCHAR 01D8
ENCODING 472
SWIDTH 520 0
DWIDTH 13 0
BBX 13 22 0 0
BITMAP
0300
0200
0400
0400
0000
0000
1980
1980
0000
0000
F1E0
3060
3060
3060
3060
3060
3060
3060
3060
3060
39F8
1E60
ENDCHAR
STARTCHAR 01D9
ENCODING 473
SWIDTH 680 0
DWIDTH 17 0
BBX 17 23 0 0
BITMAP
012000
00C000
033000
033000
000000
000000
FC0F80
300200
300200
300200
300200
300200
300200
300200
300200
300200
300200
300200
300200
300600
180400
0C1800
07F000
ENDCHAR
STARTCHAR 01DA
ENCODING 474
SWIDTH 520 0
DWIDTH 13 0
BBX 13 22 0 0
BITMAP
1040
0880
0D80
0700
0000
0000
1980
1980
0000
0000
F1E0
3060
3060
3060
3060
3060
3060
3060
3060
3060
39F8
1E60
ENDCHAR
STARTCHAR 01DB
ENCODING 475
SWIDTH 680 0
DWIDTH 17 0
BBX 17 23 0 0
BITMAP
030000
008000
033000
033000
000000
000000
FC0F80
300200
300200
300200
300200
300200
300200
300200
300200
300200
300200
300200
300200
300600
180400
0C1800
07F000
ENDCHAR
STARTCHAR 01DC
ENCODING 476
SWIDTH 520 0
DWIDTH 13 0
BBX 13 22 0 0
BITMAP
0C00
0400
0200
0200
0000
0000
1980
1980
0000
0000
F1E0
3060
3060
3060
3060
3060
3060
3060
3060
3060
39F8
1E60
ENDCHAR
STARTCHAR 01FA
ENCODING 506
SWIDTH 720 0
DWIDTH 18 0
BBX 18 25 0 0
BITMAP
006000
004000
008000
008000
000000
00C000
012000
012000
00C000
00C000
00E000
016000
016000
023000
023000
023000
041800
041800
0FFC00
080C00
080C00
100600
100600
300700
FC0FC0
ENDCHAR
STARTCHAR 01FB
ENCODING 507
SWIDTH 440 0
DWIDTH 11 0
BBX 10 23 1 0
BITMAP
0C00
0800
1000
1000
0000
1800
2400
2400
1800
0000
0000
3C00
4200
C300
C300
0700
1B00
6300
C300
C300
C300
E740
7B80
ENDCHAR
STARTCHAR 01FC
ENCODING 508
SWIDTH 880 0
DWIDTH 22 0
BBX 22 23 -1 0
BITMAP
000C00
000800
001000
001000
000000
000000
01FFF8
007818
005808
005808
009800
009800
011820
021820
021FE0
041820
07F820
081800
081800
101804
10180C
201818
F87FF8
ENDCHAR
STARTCHAR 01FD
ENCODING 509
SWIDTH 680 0
DWIDTH 17 0
BBX 15 18 1 0
BITMAP
0180
0100
0200
0200
0000
0000
3E78
C78C
C306
C306
07FE
1B00
6300
C302
C306
C38C
E5FC
78F0
ENDCHAR
STARTCHAR 01FE
ENCODING 510
SWIDTH 720 0
DWIDTH 18 0
BBX 16 23 1 0
BITMAP
00C0
0080
0100
0100
0000
0000
07E2
083A
300C
200E
6016
C023
C043
C083
C183
C103
C203
C402
6806
7004
300C
5C10
47E0
ENDCHAR
STARTCHAR 01FF
ENCODING 511
SWIDTH 520 0
DWIDTH 13 0
BBX 12 18 1 0
BITMAP
0600
0400
0800
0800
0000
0000
1F30
21A0
60C0
40E0
C160
C260
C460
C860
F040
60C0
7080
9F00
ENDCHAR
STARTCHAR 0259
ENCODING 601
SWIDTH 440 0
DWIDTH 11 0
BBX 9 12 1 0
BITMAP
3C00
7F00
C700
8380
0180
0180
0180
FF80
C180
C100
6300
3C00
ENDCHAR
STARTCHAR 02C6
ENCODING 710
SWIDTH 360 0
DWIDTH 9 0
BBX 7 4 1 14
BITMAP
38
6C
44
82
ENDCHAR
STARTCHAR 02C7
ENCODING 711
SWIDTH 360 0
DWIDTH 9 0
BBX 7 4 1 13
BITMAP
82
44
6C
38
ENDCHAR
STARTCHAR 02C9
ENCODING 713
SWIDTH 360 0
DWIDTH 9 0
BBX 8 1 0 15
BITMAP
FF
ENDCHAR
STARTCHAR 02D8
ENCODING 728
SWIDTH 320 0
DWIDTH 8 0
BBX 6 3 1 14
BITMAP
84
FC
78
ENDCHAR
STARTCHAR 02D9
ENCODING 729
SWIDTH 320 0
DWIDTH 8 0
BBX 2 2 3 14
BITMAP
C0
C0
ENDCHAR
STARTCHAR 02DA
ENCODING 730
SWIDTH 320 0
DWIDTH 8 0
BBX 4 4 2 14
BITMAP
60
90
90
60
ENDCHAR
STARTCHAR 02DB
ENCODING 731
SWIDTH 320 0
DWIDTH 8 0
BBX 4 5 3 -5
BITMAP
80
80
80
C0
70
ENDCHAR
STARTCHAR 02DC
ENCODING 732
SWIDTH 320 0
DWIDTH 8 0
BBX 8 3 0 15
BITMAP
71
99
8E
ENDCHAR
STARTCHAR 02DD
ENCODING 733
SWIDTH 280 0
DWIDTH 7 0
BBX 6 3 1 14
BITMAP
6C
48
90
ENDCHAR
STARTCHAR 0300
ENCODING 768
SWIDTH 0 0
DWIDTH 0 0
BBX 3 4 -6 19
BITMAP
C0
40
20
20
ENDCHAR
STARTCHAR 0301
ENCODING 769
SWIDTH 0 0
DWIDTH 0 0
BBX 3 4 -6 19
BITMAP
60
40
80
80
ENDCHAR
STARTCHAR 0303
ENCODING 771
SWIDTH 0 0
DWIDTH 0 0
BBX 9 2 -10 19
BITMAP
7880
8700
ENDCHAR
STARTCHAR 0309
ENCODING 777
SWIDTH 0 0
DWIDTH 0 0
BBX 4 4 -6 18
BITMAP
F0
90
20
40
ENDCHAR
STARTCHAR 0323
ENCODING 803
SWIDTH 0 0
DWIDTH 0 0
BBX 2 2 -11 -3
BITMAP
C0
C0
ENDCHAR
STARTCHAR 037E
ENCODING 894
SWIDTH 280 0
DWIDTH 7 0
BBX 4 16 2 -4
BITMAP
C0
C0
00
00
00
00
00
00
00
00
E0
F0
10
10
20
C0
ENDCHAR
STARTCHAR 0384
ENCODING 900
SWIDTH 280 0
DWIDTH 7 0
BBX 3 4 3 13
BITMAP
60
40
80
80
ENDCHAR
STARTCHAR 0385
ENCODING 901
SWIDTH 320 0
DWIDTH 8 0
BBX 8 4 0 14
BITMAP
0E
0C
DB
D3
ENDCHAR
STARTCHAR 0386
ENCODING 902
SWIDTH 720 0
DWIDTH 18 0
BBX 18 17 0 0
BITMAP
184000
10C000
20E000
216000
016000
023000
023000
023000
041800
041800
0FFC00
080C00
080C00
100600
100600
300700
FC0FC0
ENDCHAR
STARTCHAR 0387
ENCODING 903
SWIDTH 280 0
DWIDTH 7 0
BBX 3 3 2 9
BITMAP
E0
E0
E0
ENDCHAR
STARTCHAR 0388
ENCODING 904
SWIDTH 680 0
DWIDTH 17 0
BBX 18 17 -1 0
BITMAP
6FFF80
430180
830080
830080
030000
030000
030200
030200
03FE00
030200
030200
030000
030000
030040
030080
030180
0FFF80
ENDCHAR
STARTCHAR 0389
ENCODING 905
SWIDTH 800 0
DWIDTH 20 0
BBX 20 17 -1 0
BITMAP
6FC3F0
4300C0
8300C0
8300C0
0300C0
0300C0
0300C0
0300C0
03FFC0
0300C0
0300C0
0300C0
0300C0
0300C0
0300C0
0300C0
0FC3F0
ENDCHAR
STARTCHAR 038A
ENCODING 906
SWIDTH 400 0
DWIDTH 10 0
BBX 10 17 -1 0
BITMAP
6FC0
4300
8300
8300
0300
0300
0300
0300
0300
0300
0300
0300
0300
0300
0300
0300
0FC0
ENDCHAR
STARTCHAR 038C
ENCODING 908
SWIDTH 720 0
DWIDTH 18 0
BBX 18 17 -1 0
BITMAP
61F800
460E00
8C0300
980180
180180
3000C0
3000C0
3000C0
3000C0
3000C0
3000C0
3000C0
180180
180180
0C0300
060E00
01F800
ENDCHAR
STARTCHAR 038E
ENCODING 910
SWIDTH 800 0
DWIDTH 20 0
BBX 21 17 -1 0
BITMAP
6FC1F8
470060
830040
8180C0
01C080
00C100
006200
006200
003400
001800
001800
001800
001800
001800
001800
001800
007E00
ENDCHAR
STARTCHAR 038F
ENCODING 911
SWIDTH 760 0
DWIDTH 19 0
BBX 18 17 0 0
BITMAP
61F000
460C00
8C0600
980300
100180
300180
300180
300180
300180
300180
100100
180300
0C0600
460C40
420840
7E0FC0
7E0FC0
ENDCHAR
STARTCHAR 0390
ENCODING 912
SWIDTH 280 0
DWIDTH 7 0
BBX 8 18 -1 0
BITMAP
0E
0C
DB
D3
00
00
18
78
18
18
18
18
18
18
18
19
19
0E
ENDCHAR
STARTCHAR 0391
ENCODING 913
SWIDTH 720 0
DWIDTH 18 0
BBX 18 17 0 0
BITMAP
004000
00C000
00E000
016000
016000
023000
023000
023000
041800
041800
0FFC00
080C00
080C00
100600
100600
300700
FC0FC0
ENDCHAR
STARTCHAR 0392
ENCODING 914
SWIDTH 640 0
DWIDTH 16 0
BBX 14 17 1 0
BITMAP
FFC0
3070
3030
3018
3018
3018
3030
3070
3FC0
3030
3018
300C
300C
300C
3018
3038
FFE0
ENDCHAR
STARTCHAR 0393
ENCODING 915
SWIDTH 560 0
DWIDTH 14 0
BBX 12 17 1 0
BITMAP
FFF0
3030
3010
3010
3000
3000
3000
3000
3000
3000
3000
3000
3000
3000
3000
3000
FC00
ENDCHAR
STARTCHAR 0394
ENCODING 916
SWIDTH 640 0
DWIDTH 16 0
BBX 15 17 1 0
BITMAP
0100
0300
0380
0780
0580
04C0
08C0
0860
1060
1030
2030
2038
6018
4018
400C
800C
FFFE
ENDCHAR
STARTCHAR 0395
ENCODING 917
SWIDTH 600 0
DWIDTH 15 0
BBX 13 17 1 0
BITMAP
FFF0
3030
3010
3010
3000
3000
3040
3040
3FC0
3040
3040
3000
3000
3008
3018
3030
FFF0
ENDCHAR
STARTCHAR 0396
ENCODING 918
SWIDTH 560 0
DWIDTH 14 0
BBX 14 17 0 0
BITMAP
3FF8
3030
2070
2060
00C0
01C0
0180
0300
0700
0600
0C00
1C00
1804
3004
700C
600C
FFF8
ENDCHAR
STARTCHAR 0397
ENCODING 919
SWIDTH 720 0
DWIDTH 18 0
BBX 16 17 1 0
BITMAP
FC3F
300C
300C
300C
300C
300C
300C
300C
3FFC
300C
300C
300C
300C
300C
300C
300C
FC3F
ENDCHAR
STARTCHAR 0398
ENCODING 920
SWIDTH 720 0
DWIDTH 18 0
BBX 16 17 1 0
BITMAP
07E0
1818
300C
6006
6006
C813
C833
CFF3
CFF3
CC33
C813
C003
6006
6006
300C
1818
07E0
ENDCHAR
STARTCHAR 0399
ENCODING 921
SWIDTH 320 0
DWIDTH 8 0
BBX 6 17 1 0
BITMAP
FC
30
30
30
30
30
30
30
30
30
30
30
30
30
30
30
FC
ENDCHAR
STARTCHAR 039A
ENCODING 922
SWIDTH 720 0
DWIDTH 18 0
BBX 17 17 1 0
BITMAP
FC7E00
301800
303000
304000
308000
310000
320000
3E0000
360000
330000
318000
30C000
306000
303000
301800
301E00
FC3F80
ENDCHAR
STARTCHAR 039B
ENCODING 923
SWIDTH 720 0
DWIDTH 18 0
BBX 17 17 1 0
BITMAP
008000
018000
018000
01C000
02C000
026000
046000
043000
043000
081800
081800
081800
100C00
100C00
300600
300700
F81F80
ENDCHAR
STARTCHAR 039C
ENCODING 924
SWIDTH 880 0
DWIDTH 22 0
BBX 20 17 1 0
BITMAP
F800F0
3801C0
3801C0
3C03C0
2C02C0
2E02C0
2604C0
2604C0
2708C0
2308C0
2390C0
2190C0
21A0C0
20E0C0
20E0C0
20C0C0
F843F0
ENDCHAR
STARTCHAR 039D
ENCODING 925
SWIDTH 720 0
DWIDTH 18 0
BBX 17 17 0 0
BITMAP
F00F80
380200
1C0200
1C0200
160200
130200
138200
118200
10C200
106200
107200
103200
101A00
100E00
100E00
100600
7C0200
ENDCHAR
STARTCHAR 039E
ENCODING 926
SWIDTH 640 0
DWIDTH 16 0
BBX 14 17 1 0
BITMAP
7FF8
7FF8
4008
4008
0000
0000
1020
1020
1FE0
1FE0
1020
1020
0000
8004
8004
FFFC
FFFC
ENDCHAR
STARTCHAR 039F
ENCODING 927
SWIDTH 720 0
DWIDTH 18 0
BBX 16 17 1 0
BITMAP
07E0
1838
300C
6006
6006
C003
C003
C003
C003
C003
C003
C003
6006
6006
300C
1838
07E0
ENDCHAR
STARTCHAR 03A0
ENCODING 928
SWIDTH 720 0
DWIDTH 18 0
BBX 16 17 1 0
BITMAP
FFFF
300C
300C
300C
300C
300C
300C
300C
300C
300C
300C
300C
300C
300C
300C
300C
FC3F
ENDCHAR
STARTCHAR 03A1
ENCODING 929
SWIDTH 560 0
DWIDTH 14 0
BBX 12 17 1 0
BITMAP
FF80
30E0
3060
3030
3030
3030
3030
3060
30E0
3F80
3000
3000
3000
3000
3000
3000
FC00
ENDCHAR
STARTCHAR 03A3
ENCODING 931
SWIDTH 600 0
DWIDTH 15 0
BBX 14 17 0 0
BITMAP
FFF8
6018
3008
3808
1800
0C00
0600
0700
0300
0200
0400
0800
1004
100C
201C
7FFC
FFF8
ENDCHAR
STARTCHAR 03A4
ENCODING 932
SWIDTH 560 0
DWIDTH 14 0
BBX 14 17 0 0
BITMAP
FFFC
C30C
8304
8304
0300
0300
0300
0300
0300
0300
0300
0300
0300
0300
0300
0300
0FC0
ENDCHAR
STARTCHAR 03A5
ENCODING 933
SWIDTH 680 0
DWIDTH 17 0
BBX 16 17 1 0
BITMAP
FE1F
380C
1808
1C10
0C10
0E20
0620
0340
0340
0180
0180
0180
0180
0180
0180
0180
07E0
ENDCHAR
STARTCHAR 03A6
ENCODING 934
SWIDTH 720 0
DWIDTH 18 0
BBX 16 17 1 0
BITMAP
07E0
0180
0FF0
399C
6186
6186
C183
C183
C183
C183
C183
6186
6186
399C
0FF0
0180
07E0
ENDCHAR
STARTCHAR 03A7
ENCODING 935
SWIDTH 720 0
DWIDTH 18 0
BBX 17 17 1 0
BITMAP
FE1F80
780600
180400
1C0800
0E1000
063000
032000
01C000
01C000
01C000
016000
023000
043800
081800
100C00
300E00
F83F80
ENDCHAR
STARTCHAR 03A8
ENCODING 936
SWIDTH 720 0
DWIDTH 18 0
BBX 16 17 1 0
BITMAP
C7E3
4186
6186
6186
6186
6186
6186
318C
399C
0FF0
0180
0180
0180
0180
0180
0180
07E0
ENDCHAR
STARTCHAR 03A9
ENCODING 937
SWIDTH 760 0
DWIDTH 19 0
BBX 17 17 1 0
BITMAP
03E000
0C1800
180C00
300600
200300
600300
600300
600300
600300
600300
200200
300600
180C00
8C1880
841080
FC1F80
FC1F80
ENDCHAR
STARTCHAR 03AA
ENCODING 938
SWIDTH 320 0
DWIDTH 8 0
BBX 6 21 1 0
BITMAP
CC
CC
00
00
FC
30
30
30
30
30
30
30
30
30
30
30
30
30
30
30
FC
ENDCHAR
STARTCHAR 03AB
ENCODING 939
SWIDTH 680 0
DWIDTH 17 0
BBX 16 21 1 0
BITMAP
0660
0660
0000
0000
FE1F
380C
1808
1C10
0C10
0E20
0620
0340
0340
0180
0180
0180
0180
0180
0180
0180
07E0
ENDCHAR
STARTCHAR 03AC
ENCODING 940
SWIDTH 520 0
DWIDTH 13 0
BBX 13 18 1 0
BITMAP
0300
0200
0400
0400
0000
0000
1C60
6260
61E0
C1C0
C0C0
C0C0
C0C0
C180
C180
41C8
6348
3E30
ENDCHAR
STARTCHAR 03AD
ENCODING 941
SWIDTH 440 0
DWIDTH 11 0
BBX 9 18 1 0
BITMAP
0C00
0800
1000
1000
0000
0000
1E00
7300
6300
6000
2000
1E00
6000
C000
C080
C180
6100
3E00
ENDCHAR
STARTCHAR 03AE
ENCODING 942
SWIDTH 520 0
DWIDTH 13 0
BBX 11 23 0 -5
BITMAP
0300
0200
0400
0400
0000
0000
67C0
B8E0
B060
3060
3060
3060
3060
3060
3060
3060
3060
3060
0060
0060
0060
0060
0060
ENDCHAR
STARTCHAR 03AF
ENCODING 943
SWIDTH 280 0
DWIDTH 7 0
BBX 7 18 0 0
BITMAP
18
10
20
20
00
00
30
F0
30
30
30
30
30
30
30
32
32
1C
ENDCHAR
STARTCHAR 03B0
ENCODING 944
SWIDTH 480 0
DWIDTH 12 0
BBX 12 18 -1 0
BITMAP
0380
0300
36C0
34C0
0000
0000
70C0
9860
9820
1830
1830
1830
1830
1830
1820
1860
0C40
0780
ENDCHAR
STARTCHAR 03B1
ENCODING 945
SWIDTH 520 0
DWIDTH 13 0
BBX 13 12 1 0
BITMAP
1C60
6260
61E0
C1C0
C0C0
C0C0
C0C0
C180
C180
41C8
6348
3E30
ENDCHAR
STARTCHAR 03B2
ENCODING 946
SWIDTH 520 0
DWIDTH 13 0
BBX 10 23 2 -5
BITMAP
3E00
6300
C180
C180
C180
C180
C300
CE00
C100
C180
C0C0
C0C0
C0C0
C0C0
C0C0
C180
E300
DE00
C000
C000
C000
C000
C000
ENDCHAR
STARTCHAR 03B3
ENCODING 947
SWIDTH 440 0
DWIDTH 11 0
BBX 11 17 0 -5
BITMAP
60E0
F0C0
91C0
8980
0980
0B00
0B00
0A00
0A00
0400
0400
0400
0C00
0C00
0C00
0C00
0C00
ENDCHAR
STARTCHAR 03B4
ENCODING 948
SWIDTH 480 0
DWIDTH 12 0
BBX 10 18 1 0
BITMAP
3F00
6380
4180
4000
3000
1800
0400
0F00
3380
6180
C0C0
C0C0
C0C0
C0C0
C0C0
6180
7100
1E00
ENDCHAR
STARTCHAR 03B5
ENCODING 949
SWIDTH 440 0
DWIDTH 11 0
BBX 9 12 1 0
BITMAP
1E00
7300
6300
6000
2000
1E00
6000
C000
C080
C180
6100
3E00
ENDCHAR
STARTCHAR 03B6
ENCODING 950
SWIDTH 400 0
DWIDTH 10 0
BBX 9 23 1 -5
BITMAP
2000
4180
4700
3E00
1000
2000
2000
4000
4000
8000
8000
8000
8000
8000
8000
C000
7F00
3F80
0080
0080
0080
0F00
0E00
ENDCHAR
STARTCHAR 03B7
ENCODING 951
SWIDTH 520 0
DWIDTH 13 0
BBX 11 17 0 -5
BITMAP
67C0
B8E0
B060
3060
3060
3060
3060
3060
3060
3060
3060
3060
0060
0060
0060
0060
0060
ENDCHAR
STARTCHAR 03B8
ENCODING 952
SWIDTH 480 0
DWIDTH 12 0
BBX 10 17 1 0
BITMAP
1E00
3300
6180
4180
4080
C0C0
C0C0
C0C0
FFC0
C0C0
C0C0
C0C0
C080
4180
6180
3300
1E00
ENDCHAR
STARTCHAR 03B9
ENCODING 953
SWIDTH 280 0
DWIDTH 7 0
BBX 7 12 0 0
BITMAP
30
F0
30
30
30
30
30
30
30
32
32
1C
ENDCHAR
STARTCHAR 03BA
ENCODING 954
SWIDTH 520 0
DWIDTH 13 0
BBX 13 12 0 0
BITMAP
3070
F0F0
3100
3200
3400
3C00
3600
3700
3300
3180
30C0
30F8
ENDCHAR
STARTCHAR 03BB
ENCODING 955
SWIDTH 480 0
DWIDTH 12 0
BBX 12 18 0 0
BITMAP
7000
5000
8800
8800
0800
0800
0400
0400
0C00
0C00
1A00
1A00
3A00
3100
3110
6190
60F0
C0E0
ENDCHAR
STARTCHAR 03BC
ENCODING 956
SWIDTH 520 0
DWIDTH 13 0
BBX 13 17 1 -5
BITMAP
60C0
60C0
60C0
60C0
60C0
60C0
60C0
60C0
60C0
60C8
73C8
7C70
4000
4000
C000
C000
C000
ENDCHAR
STARTCHAR 03BD
ENCODING 957
SWIDTH 440 0
DWIDTH 11 0
BBX 11 12 0 0
BITMAP
7060
F060
3060
3840
1840
1880
1C80
0D00
0D00
0E00
0600
0600
ENDCHAR
STARTCHAR 03BE
ENCODING 958
SWIDTH 440 0
DWIDTH 11 0
BBX 10 23 1 -5
BITMAP
3000
2300
2700
1E00
1000
1000
1000
1380
0F80
1000
2000
4000
8000
8000
8000
C000
7F80
3FC0
0040
0040
0040
0780
0700
ENDCHAR
STARTCHAR 03BF
ENCODING 959
SWIDTH 520 0
DWIDTH 13 0
BBX 11 12 1 0
BITMAP
1F00
2180
60C0
40E0
C060
C060
C060
C060
E040
60C0
3080
1F00
ENDCHAR
STARTCHAR 03C0
ENCODING 960
SWIDTH 520 0
DWIDTH 13 0
BBX 13 12 0 0
BITMAP
3FF8
7FF8
C440
8440
0440
0440
0CC0
08C0
18C0
18C8
78F8
7070
ENDCHAR
STARTCHAR 03C1
ENCODING 961
SWIDTH 480 0
DWIDTH 12 0
BBX 10 17 1 -5
BITMAP
1E00
2300
4180
C0C0
C0C0
C0C0
C0C0
C0C0
C080
C180
E300
DE00
C000
C000
C000
C000
C000
ENDCHAR
STARTCHAR 03C2
ENCODING 962
SWIDTH 400 0
DWIDTH 10 0
BBX 9 17 1 -5
BITMAP
0E00
3F00
6300
4000
8000
8000
8000
8000
8000
C000
7F00
3F80
0080
0080
0180
0F00
0E00
ENDCHAR
STARTCHAR 03C3
ENCODING 963
SWIDTH 520 0
DWIDTH 13 0
BBX 12 12 1 0
BITMAP
1FF0
3FF0
7100
E080
C0C0
C060
C060
C060
6060
60C0
31C0
0F00
ENDCHAR
STARTCHAR 03C4
ENCODING 964
SWIDTH 400 0
DWIDTH 10 0
BBX 10 12 0 0
BITMAP
3FC0
7FC0
4400
8400
0C00
0C00
0C00
0C00
0C00
0C40
0FC0
0780
ENDCHAR
STARTCHAR 03C5
ENCODING 965
SWIDTH 480 0
DWIDTH 12 0
BBX 12 12 -1 0
BITMAP
70C0
9860
9820
1830
1830
1830
1830
1830
1820
1860
0C40
0780
ENDCHAR
STARTCHAR 03C6
ENCODING 966
SWIDTH 560 0
DWIDTH 14 0
BBX 12 17 1 -5
BITMAP
3380
64E0
4460
C430
C430
C430
C430
C430
C420
6460
34C0
1F00
0400
0400
0400
0400
0400
ENDCHAR
STARTCHAR 03C7
ENCODING 967
SWIDTH 440 0
DWIDTH 11 0
BBX 12 17 0 -5
BITMAP
7060
F0C0
C8C0
8980
0980
0700
0700
0600
0E00
0E00
1A00
1A00
3200
3210
6130
61F0
C0E0
ENDCHAR
STARTCHAR 03C8
ENCODING 968
SWIDTH 640 0
DWIDTH 16 0
BBX 15 17 1 -5
BITMAP
E10E
711C
3118
3118
3118
3118
3118
3138
1930
1930
0D60
07C0
0100
0100
0100
0100
0100
ENDCHAR
STARTCHAR 03C9
ENCODING 969
SWIDTH 640 0
DWIDTH 16 0
BBX 14 12 1 0
BITMAP
1CE0
3030
6318
C30C
C30C
C30C
C30C
C30C
C20C
4308
6798
3C70
ENDCHAR
STARTCHAR 03CA
ENCODING 970
SWIDTH 280 0
DWIDTH 7 0
BBX 7 16 0 0
BITMAP
CC
CC
00
00
30
F0
30
30
30
30
30
30
30
32
32
1C
ENDCHAR
STARTCHAR 03CB
ENCODING 971
SWIDTH 480 0
DWIDTH 12 0
BBX 12 16 -1 0
BITMAP
0CC0
0CC0
0000
0000
70C0
9860
9820
1830
1830
1830
1830
1830
1820
1860
0C40
0780
ENDCHAR
STARTCHAR 03CC
ENCODING 972
SWIDTH 520 0
DWIDTH 13 0
BBX 11 18 1 0
BITMAP
0300
0200
0400
0400
0000
0000
1F00
2180
60C0
40E0
C060
C060
C060
C060
E040
60C0
3080
1F00
ENDCHAR
STARTCHAR 03CD
ENCODING 973
SWIDTH 480 0
DWIDTH 12 0
BBX 12 18 -1 0
BITMAP
0180
0100
0200
0200
0000
0000
70C0
9860
9820
1830
1830
1830
1830
1830
1820
1860
0C40
0780
ENDCHAR
STARTCHAR 03CE
ENCODING 974
SWIDTH 640 0
DWIDTH 16 0
BBX 14 18 1 0
BITMAP
0180
0100
0200
0200
0000
0000
1CE0
3030
6318
C30C
C30C
C30C
C30C
C30C
C20C
4308
6798
3C70
ENDCHAR
STARTCHAR 0401
ENCODING 1025
SWIDTH 600 0
DWIDTH 15 0
BBX 13 21 1 0
BITMAP
1980
1980
0000
0000
FFF0
3030
3010
3010
3000
3000
3040
3040
3FC0
3040
3040
3000
3000
3008
3018
3030
FFF0
ENDCHAR
STARTCHAR 0402
ENCODING 1026
SWIDTH 760 0
DWIDTH 19 0
BBX 17 17 1 0
BITMAP
FFF000
C63000
861000
861000
060000
063C00
06C600
070300
060180
060180
060180
060180
060180
060180
060100
060300
1F9E00
ENDCHAR
STARTCHAR 0403
ENCODING 1027
SWIDTH 560 0
DWIDTH 14 0
BBX 12 23 1 0
BITMAP
0180
0100
0200
0200
0000
0000
FFF0
3030
3010
3010
3000
3000
3000
3000
3000
3000
3000
3000
3000
3000
3000
3000
FC00
ENDCHAR
STARTCHAR 0404
ENCODING 1028
SWIDTH 680 0
DWIDTH 17 0
BBX 15 17 1 0
BITMAP
07C4
183C
301C
200C
6004
C004
C000
C000
FF00
C000
C000
C000
6000
6002
300C
1C18
07E0
ENDCHAR
STARTCHAR 0405
ENCODING 1029
SWIDTH 560 0
DWIDTH 14 0
BBX 11 17 2 0
BITMAP
3E40
61C0
C0C0
C040
C040
E000
7800
3C00
0F00
0780
01C0
80E0
8060
C060
C060
F0C0
9F00
ENDCHAR
STARTCHAR 0406
ENCODING 1030
SWIDTH 320 0
DWIDTH 8 0
BBX 6 17 1 0
BITMAP
FC
30
30
30
30
30
30
30
30
30
30
30
30
30
30
30
FC
ENDCHAR
STARTCHAR 0407
ENCODING 1031
SWIDTH 320 0
DWIDTH 8 0
BBX 6 21 1 0
BITMAP
CC
CC
00
00
FC
30
30
30
30
30
30
30
30
30
30
30
30
30
30
30
FC
ENDCHAR
STARTCHAR 0408
ENCODING 1032
SWIDTH 400 0
DWIDTH 10 0
BBX 8 17 1 0
BITMAP
3F
0C
0C
0C
0C
0C
0C
0C
0C
0C
0C
0C
0C
0C
CC
E8
70
ENDCHAR
STARTCHAR 0409
ENCODING 1033
SWIDTH 880 0
DWIDTH 22 0
BBX 21 17 0 0
BITMAP
1FFE00
041800
041800
041800
041800
041800
041800
041800
041FC0
041870
041838
041818
041818
081818
C81830
F01870
E07FC0
ENDCHAR
STARTCHAR 040A
ENCODING 1034
SWIDTH 880 0
DWIDTH 22 0
BBX 20 17 1 0
BITMAP
FCFC00
303000
303000
303000
303000
303000
303000
303000
3FFF80
3030E0
303070
303030
303030
303030
303060
3030E0
FCFF80
ENDCHAR
STARTCHAR 040B
ENCODING 1035
SWIDTH 760 0
DWIDTH 19 0
BBX 17 17 1 0
BITMAP
FFF000
C63000
861000
861000
060000
063800
06CC00
070600
060600
060600
060600
060600
060600
060600
060600
060600
1F9F80
ENDCHAR
STARTCHAR 040C
ENCODING 1036
SWIDTH 680 0
DWIDTH 17 0
BBX 15 23 1 0
BITMAP
00C0
0080
0100
0100
0000
0000
FC1E
3026
3040
3040
3040
3080
3080
3100
3E00
3300
3180
31C0
30C0
3060
3030
3038
FC1E
ENDCHAR
STARTCHAR 040E
ENCODING 1038
SWIDTH 720 0
DWIDTH 18 0
BBX 18 23 0 0
BITMAP
060C00
060C00
071C00
01F000
000000
000000
FE0FC0
380300
180200
0C0600
0E0400
060400
030800
030800
019000
00D000
00D000
006000
006000
004000
004000
0C8000
0F0000
ENDCHAR
STARTCHAR 040F
ENCODING 1039
SWIDTH 720 0
DWIDTH 18 0
BBX 16 22 1 -5
BITMAP
FC3F
300C
300C
300C
300C
300C
300C
300C
300C
300C
300C
300C
300C
300C
300C
300C
FFFF
03E0
01C0
0080
0080
0080
ENDCHAR
STARTCHAR 0410
ENCODING 1040
SWIDTH 720 0
DWIDTH 18 0
BBX 18 17 0 0
BITMAP
004000
00C000
00E000
016000
016000
023000
023000
023000
041800
041800
0FFC00
080C00
080C00
100600
100600
300700
FC0FC0
ENDCHAR
STARTCHAR 0411
ENCODING 1041
SWIDTH 560 0
DWIDTH 14 0
BBX 12 17 1 0
BITMAP
FFE0
3060
3020
3020
3000
3000
3000
3000
3F80
30E0
3070
3030
3030
3030
3070
30E0
FF80
ENDCHAR
STARTCHAR 0412
ENCODING 1042
SWIDTH 640 0
DWIDTH 16 0
BBX 14 17 1 0
BITMAP
FFC0
3070
3030
3018
3018
3018
3030
3070
3FC0
3030
3018
300C
300C
300C
3018
3038
FFE0
ENDCHAR
STARTCHAR 0413
ENCODING 1043
SWIDTH 560 0
DWIDTH 14 0
BBX 12 17 1 0
BITMAP
FFF0
3030
3010
3010
3000
3000
3000
3000
3000
3000
3000
3000
3000
3000
3000
3000
FC00
ENDCHAR
STARTCHAR 0414
ENCODING 1044
SWIDTH 680 0
DWIDTH 17 0
BBX 15 22 1 -5
BITMAP
3FFE
0C18
0418
0418
0418
0418
0418
0418
0818
0818
0818
0818
0818
1018
1018
2018
FFFE
F00E
C006
C006
8002
8002
ENDCHAR
STARTCHAR 0415
ENCODING 1045
SWIDTH 600 0
DWIDTH 15 0
BBX 13 17 1 0
BITMAP
FFF0
3030
3010
3010
3000
3000
3040
3040
3FC0
3040
3040
3000
3000
3008
3018
3030
FFF0
ENDCHAR
STARTCHAR 0416
ENCODING 1046
SWIDTH 880 0
DWIDTH 22 0
BBX 22 17 0 0
BITMAP
F0FC3C
C8304C
083080
043080
043080
043080
023100
023300
01FE00
033300
073300
063180
0E31C0
0C30C0
1C30E0
383070
F0FC3C
ENDCHAR
STARTCHAR 0417
ENCODING 1047
SWIDTH 520 0
DWIDTH 13 0
BBX 11 17 1 0
BITMAP
4F80
70C0
6060
4060
4060
00E0
01C0
0F00
01C0
00C0
0060
0060
0060
0060
80C0
61C0
1F00
ENDCHAR
STARTCHAR 0418
ENCODING 1048
SWIDTH 720 0
DWIDTH 18 0
BBX 16 17 1 0
BITMAP
FC3F
300C
300C
300C
301C
303C
306C
30CC
318C
330C
360C
3C0C
380C
300C
300C
300C
FC3F
ENDCHAR
STARTCHAR 0419
ENCODING 1049
SWIDTH 720 0
DWIDTH 18 0
BBX 16 23 1 0
BITMAP
1818
1C38
1C38
07E0
0000
0000
FC3F
300C
300C
300C
301C
303C
306C
30CC
318C
330C
360C
3C0C
380C
300C
300C
300C
FC3F
ENDCHAR
STARTCHAR 041A
ENCODING 1050
SWIDTH 680 0
DWIDTH 17 0
BBX 15 17 1 0
BITMAP
FC1E
3026
3040
3040
3040
3080
3080
3100
3E00
3300
3180
31C0
30C0
3060
3030
3038
FC1E
ENDCHAR
STARTCHAR 041B
ENCODING 1051
SWIDTH 680 0
DWIDTH 17 0
BBX 15 17 1 0
BITMAP
1FFE
0418
0418
0418
0418
0418
0418
0418
0418
0418
0418
0418
0418
0818
C818
F018
E07E
ENDCHAR
STARTCHAR 041C
ENCODING 1052
SWIDTH 880 0
DWIDTH 22 0
BBX 20 17 1 0
BITMAP
F800F0
3801C0
3801C0
3C03C0
2C02C0
2E02C0
2604C0
2604C0
2708C0
2308C0
2390C0
2190C0
21A0C0
20E0C0
20E0C0
20C0C0
F843F0
ENDCHAR
STARTCHAR 041D
ENCODING 1053
SWIDTH 720 0
DWIDTH 18 0
BBX 16 17 1 0
BITMAP
FC3F
300C
300C
300C
300C
300C
300C
300C
3FFC
300C
300C
300C
300C
300C
300C
300C
FC3F
ENDCHAR
STARTCHAR 041E
ENCODING 1054
SWIDTH 720 0
DWIDTH 18 0
BBX 16 17 1 0
BITMAP
07E0
1838
300C
6006
6006
C003
C003
C003
C003
C003
C003
C003
6006
6006
300C
1838
07E0
ENDCHAR
STARTCHAR 041F
ENCODING 1055
SWIDTH 720 0
DWIDTH 18 0
BBX 16 17 1 0
BITMAP
FFFF
300C
300C
300C
300C
300C
300C
300C
300C
300C
300C
300C
300C
300C
300C
300C
FC3F
ENDCHAR
STARTCHAR 0420
ENCODING 1056
SWIDTH 560 0
DWIDTH 14 0
BBX 12 17 1 0
BITMAP
FF80
30E0
3060
3030
3030
3030
3030
3060
30E0
3F80
3000
3000
3000
3000
3000
3000
FC00
ENDCHAR
STARTCHAR 0421
ENCODING 1057
SWIDTH 680 0
DWIDTH 17 0
BBX 15 17 1 0
BITMAP
07E4
181C
300C
6004
6004
4004
C000
C000
C000
C000
C000
C000
6000
6002
3004
1C18
07E0
ENDCHAR
STARTCHAR 0422
ENCODING 1058
SWIDTH 560 0
DWIDTH 14 0
BBX 14 17 0 0
BITMAP
FFFC
C30C
8304
8304
0300
0300
0300
0300
0300
0300
0300
0300
0300
0300
0300
0300
0FC0
ENDCHAR
STARTCHAR 0423
ENCODING 1059
SWIDTH 720 0
DWIDTH 18 0
BBX 18 17 0 0
BITMAP
FE0FC0
380300
180200
0C0600
0E0400
060400
030800
030800
019000
00D000
00D000
006000
006000
004000
004000
0C8000
0F0000
ENDCHAR
STARTCHAR 0424
ENCODING 1060
SWIDTH 800 0
DWIDTH 20 0
BBX 18 17 1 0
BITMAP
03F000
00C000
0FFC00
38C700
60C180
60C180
C0C0C0
C0C0C0
C0C0C0
C0C0C0
C0C0C0
60C180
60C180
38C700
0FFC00
00C000
03F000
ENDCHAR
STARTCHAR 0425
ENCODING 1061
SWIDTH 720 0
DWIDTH 18 0
BBX 17 17 1 0
BITMAP
FE1F80
780600
180400
1C0800
0E1000
063000
032000
01C000
01C000
01C000
016000
023000
043800
081800
100C00
300E00
F83F80
ENDCHAR
STARTCHAR 0426
ENCODING 1062
SWIDTH 720 0
DWIDTH 18 0
BBX 16 22 1 -5
BITMAP
FC3F
300C
300C
300C
300C
300C
300C
300C
300C
300C
300C
300C
300C
300C
300C
300C
FFFC
000F
0003
0003
0001
0001
ENDCHAR
STARTCHAR 0427
ENCODING 1063
SWIDTH 640 0
DWIDTH 16 0
BBX 14 17 1 0
BITMAP
FCFC
3030
3030
3030
3030
3030
3030
3030
3030
1870
0FB0
0030
0030
0030
0030
0030
00FC
ENDCHAR
STARTCHAR 0428
ENCODING 1064
SWIDTH 1000 0
DWIDTH 25 0
BBX 23 17 1 0
BITMAP
FC7E7E
301818
301818
301818
301818
301818
301818
301818
301818
301818
301818
301818
301818
301818
301818
301818
FFFFFE
ENDCHAR
STARTCHAR 0429
ENCODING 1065
SWIDTH 1000 0
DWIDTH 25 0
BBX 23 22 1 -5
BITMAP
FC7E7E
301818
301818
301818
301818
301818
301818
301818
301818
301818
301818
301818
301818
301818
301818
301818
FFFFFE
00001E
000006
000006
000002
000002
ENDCHAR
STARTCHAR 042A
ENCODING 1066
SWIDTH 720 0
DWIDTH 18 0
BBX 15 17 1 0
BITMAP
FF80
C600
8600
8600
0600
0600
0600
0600
07F0
061C
060E
0606
0606
0606
060E
061C
1FF0
ENDCHAR
STARTCHAR 042B
ENCODING 1067
SWIDTH 880 0
DWIDTH 22 0
BBX 20 17 1 0
BITMAP
FC03F0
3000C0
3000C0
3000C0
3000C0
3000C0
3000C0
3000C0
3FC0C0
3070C0
3030C0
3018C0
3018C0
3018C0
3030C0
3070C0
FFC3F0
ENDCHAR
STARTCHAR 042C
ENCODING 1068
SWIDTH 560 0
DWIDTH 14 0
BBX 12 17 1 0
BITMAP
FC00
3000
3000
3000
3000
3000
3000
3000
3F80
30E0
3070
3030
3030
3030
3070
30E0
FF80
ENDCHAR
STARTCHAR 042D
ENCODING 1069
SWIDTH 680 0
DWIDTH 17 0
BBX 15 17 1 0
BITMAP
47C0
7870
7018
6008
400C
4006
0006
0006
01FE
0006
0006
0006
000C
800C
4018
3070
0FC0
ENDCHAR
STARTCHAR 042E
ENCODING 1070
SWIDTH 1040 0
DWIDTH 26 0
BBX 24 17 1 0
BITMAP
FC07C0
301830
30600C
304004
30C006
318003
318003
318003
3F8003
318003
318003
318002
30C006
30C004
30600C
303830
FC0FC0
ENDCHAR
STARTCHAR 042F
ENCODING 1071
SWIDTH 680 0
DWIDTH 17 0
BBX 16 17 0 0
BITMAP
01FF
070C
060C
0C0C
0C0C
0C0C
060C
070C
01FC
01CC
018C
030C
070C
060C
0C0C
3C0C
F83F
ENDCHAR
STARTCHAR 0430
ENCODING 1072
SWIDTH 440 0
DWIDTH 11 0
BBX 10 12 1 0
BITMAP
3C00
4200
C300
C300
0700
1B00
6300
C300
C300
C300
E740
7B80
ENDCHAR
STARTCHAR 0431
ENCODING 1073
SWIDTH 520 0
DWIDTH 13 0
BBX 11 17 1 0
BITMAP
0020
0FC0
3F80
2000
4000
9F00
A180
E0C0
C0E0
C060
C060
C060
C060
6040
60C0
3080
1F00
ENDCHAR
STARTCHAR 0432
ENCODING 1074
SWIDTH 480 0
DWIDTH 12 0
BBX 11 12 0 0
BITMAP
FF00
3180
30C0
30C0
3180
3F00
30C0
3060
3060
3060
30C0
FF80
ENDCHAR
STARTCHAR 0433
ENCODING 1075
SWIDTH 400 0
DWIDTH 10 0
BBX 10 12 0 0
BITMAP
FF80
30C0
3040
3000
3000
3000
3000
3000
3000
3000
3000
FC00
ENDCHAR
STARTCHAR 0434
ENCODING 1076
SWIDTH 520 0
DWIDTH 13 0
BBX 12 15 0 -3
BITMAP
3FF0
08C0
08C0
08C0
08C0
08C0
08C0
10C0
10C0
30C0
20C0
FFF0
C030
8010
8010
ENDCHAR
STARTCHAR 0435
ENCODING 1077
SWIDTH 440 0
DWIDTH 11 0
BBX 9 12 1 0
BITMAP
1E00
2300
4180
8180
FF80
8000
8000
8000
C080
6180
7F00
1E00
ENDCHAR
STARTCHAR 0436
ENCODING 1078
SWIDTH 680 0
DWIDTH 17 0
BBX 16 12 1 0
BITMAP
E7E7
D18B
1188
1190
0990
07E0
0DB0
1998
3188
318C
6186
E7E7
ENDCHAR
STARTCHAR 0437
ENCODING 1079
SWIDTH 400 0
DWIDTH 10 0
BBX 9 12 0 0
BITMAP
5E00
6300
6180
4180
0300
0C00
0300
0180
0180
8180
4300
3E00
ENDCHAR
STARTCHAR 0438
ENCODING 1080
SWIDTH 520 0
DWIDTH 13 0
BBX 13 12 0 0
BITMAP
FCF8
3060
3060
30E0
3160
3260
3460
3860
3060
3060
3060
F8F8
ENDCHAR
STARTCHAR 0439
ENCODING 1081
SWIDTH 520 0
DWIDTH 13 0
BBX 13 17 0 0
BITMAP
3060
38E0
1FC0
0000
0000
FCF8
3060
3060
30E0
3160
3260
3460
3860
3060
3060
3060
F8F8
ENDCHAR
STARTCHAR 043A
ENCODING 1082
SWIDTH 480 0
DWIDTH 12 0
BBX 12 12 0 0
BITMAP
FC70
30F0
3100
3100
3200
3E00
3700
3300
3180
31C0
30C0
FC70
ENDCHAR
STARTCHAR 043B
ENCODING 1083
SWIDTH 480 0
DWIDTH 12 0
BBX 12 12 0 0
BITMAP
7FF0
10C0
10C0
10C0
10C0
10C0
10C0
10C0
10C0
10C0
D0C0
E3F0
ENDCHAR
STARTCHAR 043C
ENCODING 1084
SWIDTH 640 0
DWIDTH 16 0
BBX 16 12 0 0
BITMAP
F80F
381C
381C
2C2C
2C2C
262C
264C
234C
234C
218C
218C
F93F
ENDCHAR
STARTCHAR 043D
ENCODING 1085
SWIDTH 520 0
DWIDTH 13 0
BBX 13 12 0 0
BITMAP
FCF8
3060
3060
3060
3060
3FE0
3060
3060
3060
3060
3060
F8F8
ENDCHAR
STARTCHAR 043E
ENCODING 1086
SWIDTH 520 0
DWIDTH 13 0
BBX 11 12 1 0
BITMAP
1F00
2180
60C0
40E0
C060
C060
C060
C060
E040
60C0
3080
1F00
ENDCHAR
STARTCHAR 043F
ENCODING 1087
SWIDTH 520 0
DWIDTH 13 0
BBX 13 12 0 0
BITMAP
FFF8
3060
3060
3060
3060
3060
3060
3060
3060
3060
3060
F8F8
ENDCHAR
STARTCHAR 0440
ENCODING 1088
SWIDTH 520 0
DWIDTH 13 0
BBX 12 17 0 -5
BITMAP
33C0
FCE0
3060
3030
3030
3030
3030
3030
3020
3060
38C0
3780
3000
3000
3000
3000
FC00
ENDCHAR
STARTCHAR 0441
ENCODING 1089
SWIDTH 440 0
DWIDTH 11 0
BBX 9 12 1 0
BITMAP
1E00
2300
6180
C180
C000
C000
C000
C080
E080
7100
3F00
1C00
ENDCHAR
STARTCHAR 0442
ENCODING 1090
SWIDTH 440 0
DWIDTH 11 0
BBX 10 12 0 0
BITMAP
7F80
CCC0
8C40
0C00
0C00
0C00
0C00
0C00
0C00
0C00
0C00
3F00
ENDCHAR
STARTCHAR 0443
ENCODING 1091
SWIDTH 520 0
DWIDTH 13 0
BBX 13 17 0 -5
BITMAP
F878
7030
3020
3040
1840
1840
0C80
0C80
0700
0700
0200
0200
0200
0400
0C00
7800
7000
ENDCHAR
STARTCHAR 0444
ENCODING 1092
SWIDTH 640 0
DWIDTH 16 0
BBX 14 23 1 -5
BITMAP
0300
0F00
0300
0300
0300
0300
3B70
6798
6308
C30C
C30C
C30C
C30C
C30C
C30C
4308
6398
3F70
0300
0300
0300
0300
0FC0
ENDCHAR
STARTCHAR 0445
ENCODING 1093
SWIDTH 520 0
DWIDTH 13 0
BBX 13 12 0 0
BITMAP
F8F0
3060
18C0
1C80
0F00
0600
0700
0980
11C0
30C0
6060
F0F8
ENDCHAR
STARTCHAR 0446
ENCODING 1094
SWIDTH 520 0
DWIDTH 13 0
BBX 13 15 0 -3
BITMAP
FCF8
3060
3060
3060
3060
3060
3060
3060
3060
3060
3060
FFF8
0018
0008
0008
ENDCHAR
STARTCHAR 0447
ENCODING 1095
SWIDTH 520 0
DWIDTH 13 0
BBX 12 12 0 0
BITMAP
F9F0
30C0
30C0
30C0
30C0
31C0
3EC0
00C0
00C0
00C0
00C0
03F0
ENDCHAR
STARTCHAR 0448
ENCODING 1096
SWIDTH 760 0
DWIDTH 19 0
BBX 19 12 0 0
BITMAP
FDFBE0
306180
306180
306180
306180
306180
306180
306180
306180
306180
306180
FFFFE0
ENDCHAR
STARTCHAR 0449
ENCODING 1097
SWIDTH 760 0
DWIDTH 19 0
BBX 19 15 0 -3
BITMAP
FDFBE0
306180
306180
306180
306180
306180
306180
306180
306180
306180
306180
FFFF80
000060
000020
000020
ENDCHAR
STARTCHAR 044A
ENCODING 1098
SWIDTH 520 0
DWIDTH 13 0
BBX 12 12 0 0
BITMAP
7F00
CC00
8C00
0C00
0C00
0FC0
0C60
0C30
0C30
0C30
0C60
3FC0
ENDCHAR
STARTCHAR 044B
ENCODING 1099
SWIDTH 680 0
DWIDTH 17 0
BBX 16 12 0 0
BITMAP
FC3F
300C
300C
300C
300C
3F0C
318C
30CC
30CC
30CC
318C
FF3F
ENDCHAR
STARTCHAR 044C
ENCODING 1100
SWIDTH 440 0
DWIDTH 11 0
BBX 10 12 0 0
BITMAP
FC00
3000
3000
3000
3000
3F00
3180
30C0
30C0
30C0
3180
FF00
ENDCHAR
STARTCHAR 044D
ENCODING 1101
SWIDTH 440 0
DWIDTH 11 0
BBX 10 12 0 0
BITMAP
5E00
6300
4180
40C0
00C0
0FC0
00C0
00C0
0080
8180
6300
3E00
ENDCHAR
STARTCHAR 044E
ENCODING 1102
SWIDTH 760 0
DWIDTH 19 0
BBX 18 12 0 0
BITMAP
FC3E00
304300
30C180
3181C0
3180C0
3F80C0
3180C0
3180C0
31C080
30C180
306100
FC3E00
ENDCHAR
STARTCHAR 044F
ENCODING 1103
SWIDTH 480 0
DWIDTH 12 0
BBX 12 12 0 0
BITMAP
0FF0
18C0
30C0
30C0
30C0
18C0
07C0
0CC0
18C0
18C0
30C0
E3F0
ENDCHAR
STARTCHAR 0451
ENCODING 1105
SWIDTH 440 0
DWIDTH 11 0
BBX 9 16 1 0
BITMAP
3300
3300
0000
0000
1E00
2300
4180
8180
FF80
8000
8000
8000
C080
6180
7F00
1E00
ENDCHAR
STARTCHAR 0452
ENCODING 1106
SWIDTH 480 0
DWIDTH 12 0
BBX 11 23 0 -5
BITMAP
3000
F000
3000
FFC0
3000
3000
3380
3CC0
3040
3060
3060
3060
3060
3060
3060
3060
3060
FC40
00C0
00C0
0180
0300
0600
ENDCHAR
STARTCHAR 0453
ENCODING 1107
SWIDTH 400 0
DWIDTH 10 0
BBX 10 18 0 0
BITMAP
0300
0200
0400
0400
0000
0000
FF80
30C0
3040
3000
3000
3000
3000
3000
3000
3000
3000
FC00
ENDCHAR
STARTCHAR 0454
ENCODING 1108
SWIDTH 440 0
DWIDTH 11 0
BBX 10 12 1 0
BITMAP
1E80
3180
6080
C080
C000
FC00
C000
C000
C000
6040
3180
1F00
ENDCHAR
STARTCHAR 0455
ENCODING 1109
SWIDTH 400 0
DWIDTH 10 0
BBX 8 12 1 0
BITMAP
3A
46
82
C0
F0
7C
1E
07
83
83
C6
BC
ENDCHAR
STARTCHAR 0456
ENCODING 1110
SWIDTH 240 0
DWIDTH 6 0
BBX 6 18 0 0
BITMAP
30
30
00
00
00
00
30
F0
30
30
30
30
30
30
30
30
30
FC
ENDCHAR
STARTCHAR 0457
ENCODING 1111
SWIDTH 240 0
DWIDTH 6 0
BBX 6 16 0 0
BITMAP
CC
CC
00
00
30
F0
30
30
30
30
30
30
30
30
30
FC
ENDCHAR
STARTCHAR 0458
ENCODING 1112
SWIDTH 280 0
DWIDTH 7 0
BBX 7 23 -2 -5
BITMAP
06
06
00
00
00
00
06
1E
06
06
06
06
06
06
06
06
06
06
06
06
04
C4
F8
ENDCHAR
STARTCHAR 0459
ENCODING 1113
SWIDTH 720 0
DWIDTH 18 0
BBX 17 12 0 0
BITMAP
3FF800
086000
086000
086000
086000
087E00
086300
086180
086180
086180
D06300
F1FE00
ENDCHAR
STARTCHAR 045A
ENCODING 1114
SWIDTH 720 0
DWIDTH 18 0
BBX 17 12 0 0
BITMAP
FCF800
306000
306000
306000
306000
3FFE00
306300
306180
306180
306180
306300
F8FE00
ENDCHAR
STARTCHAR 045B
ENCODING 1115
SWIDTH 520 0
DWIDTH 13 0
BBX 13 18 0 0
BITMAP
3000
F000
3000
FFC0
3000
3000
33C0
3CC0
3060
3060
3060
3060
3060
3060
3060
3060
3060
FEF8
ENDCHAR
STARTCHAR 045C
ENCODING 1116
SWIDTH 480 0
DWIDTH 12 0
BBX 12 18 0 0
BITMAP
0180
0100
0200
0200
0000
0000
FC70
30F0
3100
3100
3200
3E00
3700
3300
3180
31C0
30C0
FC70
ENDCHAR
STARTCHAR 045E
ENCODING 1118
SWIDTH 520 0
DWIDTH 13 0
BBX 12 22 1 -5
BITMAP
30C0
30C0
1F80
0000
0000
F8F0
6060
3040
3080
1880
1880
0D00
0D00
0700
0600
0200
0400
0400
0400
0800
F000
E000
ENDCHAR
STARTCHAR 045F
ENCODING 1119
SWIDTH 520 0
DWIDTH 13 0
BBX 13 15 0 -3
BITMAP
FCF8
3060
3060
3060
3060
3060
3060
3060
3060
3060
3060
FFF8
0700
0200
0200
ENDCHAR
STARTCHAR 0490
ENCODING 1168
SWIDTH 440 0
DWIDTH 11 0
BBX 10 20 1 0
BITMAP
0040
0040
00C0
FFC0
3000
3000
3000
3000
3000
3000
3000
3000
3000
3000
3000
3000
3000
3000
3000
FC00
ENDCHAR
STARTCHAR 0491
ENCODING 1169
SWIDTH 360 0
DWIDTH 9 0
BBX 9 14 0 0
BITMAP
0080
0180
FF80
3000
3000
3000
3000
3000
3000
3000
3000
3000
3000
FC00
ENDCHAR
STARTCHAR 0492
ENCODING 1170
SWIDTH 560 0
DWIDTH 14 0
BBX 12 17 1 0
BITMAP
FFF0
3030
3010
3010
3000
3000
3000
FF00
3000
3000
3000
3000
3000
3000
3000
3000
FC00
ENDCHAR
STARTCHAR 0493
ENCODING 1171
SWIDTH 400 0
DWIDTH 10 0
BBX 10 12 0 0
BITMAP
FF80
30C0
3040
3000
3000
FE00
3000
3000
3000
3000
3000
FC00
ENDCHAR
STARTCHAR 0496
ENCODING 1174
SWIDTH 880 0
DWIDTH 22 0
BBX 22 22 0 -5
BITMAP
F0FC3C
C8304C
083080
043080
043080
043080
023100
023300
01FE00
033300
073300
063180
0E31C0
0C30C0
1C30E0
383070
F0FC3C
00001C
00000C
000004
000004
000004
ENDCHAR
STARTCHAR 0497
ENCODING 1175
SWIDTH 680 0
DWIDTH 17 0
BBX 16 15 1 -3
BITMAP
E7E7
D3CB
1188
1190
0990
07E0
0DB0
1998
318C
318C
61C6
E7E7
0003
0001
0001
ENDCHAR
STARTCHAR 049A
ENCODING 1178
SWIDTH 680 0
DWIDTH 17 0
BBX 16 22 1 -5
BITMAP
FC1E
3026
3040
3040
3040
3080
3080
3300
3E00
3300
3180
31C0
30C0
3060
3030
3038
FC1F
0007
0003
0001
0001
0001
ENDCHAR
STARTCHAR 049B
ENCODING 1179
SWIDTH 480 0
DWIDTH 12 0
BBX 12 15 0 -3
BITMAP
FC70
30F0
3100
3100
3200
3E00
3700
3300
3180
31C0
30C0
FC70
0030
0010
0010
ENDCHAR
STARTCHAR 049C
ENCODING 1180
SWIDTH 680 0
DWIDTH 17 0
BBX 16 17 1 0
BITMAP
FC1E
3026
3020
3240
3240
3280
3280
3300
3E00
3300
3380
32C0
32E0
3260
3030
3038
FC1F
ENDCHAR
STARTCHAR 049D
ENCODING 1181
SWIDTH 480 0
DWIDTH 12 0
BBX 12 12 0 0
BITMAP
FC70
30F0
3500
3500
3600
3E00
3700
3700
3580
35C0
30C0
FC70
ENDCHAR
STARTCHAR 04A2
ENCODING 1186
SWIDTH 720 0
DWIDTH 18 0
BBX 16 22 1 -5
BITMAP
FC3F
300C
300C
300C
300C
300C
300C
300C
3FFC
300C
300C
300C
300C
300C
300C
300C
FC3F
0007
0003
0001
0001
0001
ENDCHAR
STARTCHAR 04A3
ENCODING 1187
SWIDTH 520 0
DWIDTH 13 0
BBX 13 15 0 -3
BITMAP
FCF8
3060
3060
3060
3060
3FE0
3060
3060
3060
3060
3060
F8F8
0018
0008
0008
ENDCHAR
STARTCHAR 04AE
ENCODING 1198
SWIDTH 680 0
DWIDTH 17 0
BBX 16 17 1 0
BITMAP
FE1F
380C
1808
1C10
0C10
0E20
0620
0340
0340
0180
0180
0180
0180
0180
0180
0180
07E0
ENDCHAR
STARTCHAR 04AF
ENCODING 1199
SWIDTH 520 0
DWIDTH 13 0
BBX 13 17 0 -5
BITMAP
F878
7030
3020
3040
1840
1880
1C80
0D00
0D00
0600
0600
0600
0600
0600
0600
0600
1F80
ENDCHAR
STARTCHAR 04B0
ENCODING 1200
SWIDTH 680 0
DWIDTH 17 0
BBX 16 17 1 0
BITMAP
FE1F
380C
1808
1C10
0C10
0E20
0620
0340
0340
0180
1FFC
0180
0180
0180
0180
0180
07E0
ENDCHAR
STARTCHAR 04B1
ENCODING 1201
SWIDTH 520 0
DWIDTH 13 0
BBX 13 17 0 -5
BITMAP
F878
7030
3020
3040
1840
1880
1C80
0D00
0D00
0600
0600
FFF8
0600
0600
0600
0600
1F80
ENDCHAR
STARTCHAR 04B2
ENCODING 1202
SWIDTH 720 0
DWIDTH 18 0
BBX 17 22 1 -5
BITMAP
FE1F80
780600
180400
1C0800
0E1000
063000
032000
01C000
01C000
01C000
016000
023000
043800
081800
100C00
300E00
F83F80
000380
000180
000080
000080
000080
ENDCHAR
STARTCHAR 04B3
ENCODING 1203
SWIDTH 520 0
DWIDTH 13 0
BBX 13 15 0 -3
BITMAP
F8F0
3060
18C0
1C80
0F00
0600
0700
0980
11C0
30C0
6060
F0F8
0018
0008
0008
ENDCHAR
STARTCHAR 04B8
ENCODING 1208
SWIDTH 640 0
DWIDTH 16 0
BBX 14 17 1 0
BITMAP
FCFC
3030
3030
3030
3130
3130
3130
3130
3130
1970
0FB0
0130
0130
0130
0030
0030
00FC
ENDCHAR
STARTCHAR 04B9
ENCODING 1209
SWIDTH 520 0
DWIDTH 13 0
BBX 12 12 0 0
BITMAP
F9F0
30C0
30C0
34C0
34C0
35C0
3EC0
04C0
04C0
00C0
00C0
03F0
ENDCHAR
STARTCHAR 04BA
ENCODING 1210
SWIDTH 640 0
DWIDTH 16 0
BBX 14 17 1 0
BITMAP
FC00
3000
3000
3000
3000
3000
37C0
3860
3030
3030
3030
3030
3030
3030
3030
3030
FCFC
ENDCHAR
STARTCHAR 04BB
ENCODING 1211
SWIDTH 520 0
DWIDTH 13 0
BBX 13 18 0 0
BITMAP
3000
F000
3000
3000
3000
3000
33C0
3CC0
3060
3060
3060
3060
3060
3060
3060
3060
3060
FCF8
ENDCHAR
STARTCHAR 04D8
ENCODING 1240
SWIDTH 720 0
DWIDTH 18 0
BBX 16 17 1 0
BITMAP
47C0
7830
6008
6004
4006
4002
0003
0003
FFFF
C003
C003
C003
6006
6006
300C
1C38
07E0
ENDCHAR
STARTCHAR 04D9
ENCODING 1241
SWIDTH 440 0
DWIDTH 11 0
BBX 9 12 1 0
BITMAP
3C00
7F00
C700
8380
0180
0180
0180
FF80
C180
C100
6300
3C00
ENDCHAR
STARTCHAR 04E8
ENCODING 1256
SWIDTH 720 0
DWIDTH 18 0
BBX 16 17 1 0
BITMAP
07E0
1838
300C
6006
6006
C003
C003
C003
FFFF
C003
C003
C003
6006
6006
300C
1818
07E0
ENDCHAR
STARTCHAR 04E9
ENCODING 1257
SWIDTH 520 0
DWIDTH 13 0
BBX 11 12 1 0
BITMAP
1F00
2180
60C0
40E0
C060
FFE0
C060
C060
E040
60C0
3080
1F00
ENDCHAR
STARTCHAR 05B0
ENCODING 1456
SWIDTH 320 0
DWIDTH 8 0
BBX 1 3 3 -5
BITMAP
80
00
80
ENDCHAR
STARTCHAR 05B1
ENCODING 1457
SWIDTH 320 0
DWIDTH 8 0
BBX 5 3 1 -5
BITMAP
A8
00
48
ENDCHAR
STARTCHAR 05B2
ENCODING 1458
SWIDTH 320 0
DWIDTH 8 0
BBX 7 3 1 -5
BITMAP
FA
00
02
ENDCHAR
STARTCHAR 05B3
ENCODING 1459
SWIDTH 320 0
DWIDTH 8 0
BBX 8 3 0 -5
BITMAP
F9
20
21
ENDCHAR
STARTCHAR 05B4
ENCODING 1460
SWIDTH 320 0
DWIDTH 8 0
BBX 1 1 3 -4
BITMAP
80
ENDCHAR
STARTCHAR 05B5
ENCODING 1461
SWIDTH 320 0
DWIDTH 8 0
BBX 3 1 2 -4
BITMAP
A0
ENDCHAR
STARTCHAR 05B6
ENCODING 1462
SWIDTH 320 0
DWIDTH 8 0
BBX 3 3 2 -5
BITMAP
A0
00
40
ENDCHAR
STARTCHAR 05B7
ENCODING 1463
SWIDTH 320 0
DWIDTH 8 0
BBX 5 1 2 -3
BITMAP
F8
ENDCHAR
STARTCHAR 05B8
ENCODING 1464
SWIDTH 320 0
DWIDTH 8 0
BBX 5 3 2 -5
BITMAP
F8
20
20
ENDCHAR
STARTCHAR 05B9
ENCODING 1465
SWIDTH 320 0
DWIDTH 8 0
BBX 1 1 3 16
BITMAP
80
ENDCHAR
STARTCHAR 05BA
ENCODING 1466
SWIDTH 320 0
DWIDTH 8 0
BBX 1 1 3 16
BITMAP
80
ENDCHAR
STARTCHAR 05BB
ENCODING 1467
SWIDTH 320 0
DWIDTH 8 0
BBX 5 3 1 -5
BITMAP
80
20
08
ENDCHAR
STARTCHAR 05BC
ENCODING 1468
SWIDTH 320 0
DWIDTH 8 0
BBX 1 1 3 6
BITMAP
80
ENDCHAR
STARTCHAR 05BD
ENCODING 1469
SWIDTH 320 0
DWIDTH 8 0
BBX 1 4 4 -5
BITMAP
80
80
80
80
ENDCHAR
STARTCHAR 05BE
ENCODING 1470
SWIDTH 360 0
DWIDTH 9 0
BBX 7 2 1 11
BITMAP
FE
FE
ENDCHAR
STARTCHAR 05BF
ENCODING 1471
SWIDTH 320 0
DWIDTH 8 0
BBX 5 1 2 15
BITMAP
F8
ENDCHAR
STARTCHAR 05C0
ENCODING 1472
SWIDTH 280 0
DWIDTH 7 0
BBX 1 15 3 -1
BITMAP
80
80
80
80
80
80
80
80
80
80
80
80
80
80
80
ENDCHAR
STARTCHAR 05C1
ENCODING 1473
SWIDTH 360 0
DWIDTH 9 0
BBX 1 1 8 16
BITMAP
80
ENDCHAR
STARTCHAR 05C2
ENCODING 1474
SWIDTH 360 0
DWIDTH 9 0
BBX 1 1 -1 16
BITMAP
80
ENDCHAR
STARTCHAR 05C3
ENCODING 1475
SWIDTH 280 0
DWIDTH 7 0
BBX 3 13 2 0
BITMAP
E0
E0
E0
00
00
00
00
00
00
00
E0
E0
E0
ENDCHAR
STARTCHAR 05D0
ENCODING 1488
SWIDTH 480 0
DWIDTH 12 0
BBX 10 14 1 0
BITMAP
8200
8380
C3C0
E100
6100
3200
3A00
4E00
8600
C700
C380
61C0
60C0
E040
ENDCHAR
STARTCHAR 05D1
ENCODING 1489
SWIDTH 440 0
DWIDTH 11 0
BBX 9 14 1 0
BITMAP
8000
FE00
FF00
0300
0100
0100
0100
0100
0100
0100
0100
0200
FF80
FF80
ENDCHAR
STARTCHAR 05D2
ENCODING 1490
SWIDTH 320 0
DWIDTH 8 0
BBX 8 14 0 0
BITMAP
40
7C
3C
0C
04
04
04
04
06
06
0B
13
F3
F1
ENDCHAR
STARTCHAR 05D3
ENCODING 1491
SWIDTH 400 0
DWIDTH 10 0
BBX 8 14 1 0
BITMAP
80
FF
FF
03
02
04
04
04
04
04
04
04
04
04
ENDCHAR
STARTCHAR 05D4
ENCODING 1492
SWIDTH 480 0
DWIDTH 12 0
BBX 10 14 1 0
BITMAP
8000
FFC0
FFC0
0040
0080
0080
0080
0080
8080
8080
8080
8080
8080
8080
ENDCHAR
STARTCHAR 05D5
ENCODING 1493
SWIDTH 280 0
DWIDTH 7 0
BBX 4 14 1 0
BITMAP
80
E0
F0
10
10
10
10
10
10
10
10
10
10
10
ENDCHAR
STARTCHAR 05D6
ENCODING 1494
SWIDTH 280 0
DWIDTH 7 0
BBX 5 14 1 0
BITMAP
80
F8
F8
20
20
40
20
20
20
20
20
20
20
20
ENDCHAR
STARTCHAR 05D7
ENCODING 1495
SWIDTH 480 0
DWIDTH 12 0
BBX 10 14 1 0
BITMAP
8000
FFC0
FFC0
8040
8080
8080
8080
8080
8080
8080
8080
8080
8080
8080
ENDCHAR
STARTCHAR 05D8
ENCODING 1496
SWIDTH 480 0
DWIDTH 12 0
BBX 10 14 1 0
BITMAP
8000
F380
F780
44C0
4840
4840
4040
4040
4040
4040
6080
2080
3F80
3F00
ENDCHAR
STARTCHAR 05D9
ENCODING 1497
SWIDTH 280 0
DWIDTH 7 0
BBX 5 8 1 6
BITMAP
80
F0
F8
08
08
08
08
10
ENDCHAR
STARTCHAR 05DA
ENCODING 1498
SWIDTH 440 0
DWIDTH 11 0
BBX 9 18 1 -4
BITMAP
8000
FF80
FF80
0180
0100
0100
0100
0100
0100
0100
0100
0100
0100
0100
0100
0100
0100
0100
ENDCHAR
STARTCHAR 05DB
ENCODING 1499
SWIDTH 440 0
DWIDTH 11 0
BBX 9 14 1 0
BITMAP
8000
FE00
FF00
0100
0080
0080
0080
0080
0080
0080
0080
0180
7F00
FE00
ENDCHAR
STARTCHAR 05DC
ENCODING 1500
SWIDTH 440 0
DWIDTH 11 0
BBX 10 19 0 0
BITMAP
8000
C000
4000
4000
4000
4000
7F80
7FC0
0040
0040
0040
0040
00C0
0180
0300
0600
0C00
0C00
0C00
ENDCHAR
STARTCHAR 05DD
ENCODING 1501
SWIDTH 520 0
DWIDTH 13 0
BBX 11 14 1 0
BITMAP
8000
FF80
FFE0
3060
6020
C020
8020
8020
8020
8020
8020
8020
FFE0
FFE0
ENDCHAR
STARTCHAR 05DE
ENCODING 1502
SWIDTH 480 0
DWIDTH 12 0
BBX 10 14 1 0
BITMAP
8000
F200
F780
1980
20C0
2040
4040
4040
4040
8040
8040
8040
8F80
9F80
ENDCHAR
STARTCHAR 05DF
ENCODING 1503
SWIDTH 280 0
DWIDTH 7 0
BBX 5 18 1 -4
BITMAP
80
F0
F8
18
10
30
30
20
30
30
30
30
30
30
30
30
30
20
ENDCHAR
STARTCHAR 05E0
ENCODING 1504
SWIDTH 320 0
DWIDTH 8 0
BBX 7 14 0 0
BITMAP
40
7C
3E
02
02
02
02
02
02
02
02
02
7E
FE
ENDCHAR
STARTCHAR 05E1
ENCODING 1505
SWIDTH 480 0
DWIDTH 12 0
BBX 10 14 1 0
BITMAP
8000
FF00
FF80
4080
8040
8040
8040
8040
8040
8040
C0C0
6080
7F80
1F00
ENDCHAR
STARTCHAR 05E2
ENCODING 1506
SWIDTH 440 0
DWIDTH 11 0
BBX 9 14 1 0
BITMAP
8400
F780
7380
2080
2100
2100
3100
3200
1200
1200
1200
1E00
FC00
F000
ENDCHAR
STARTCHAR 05E3
ENCODING 1507
SWIDTH 440 0
DWIDTH 11 0
BBX 9 18 1 -4
BITMAP
8000
FE00
FF00
C180
8080
8080
C080
F080
F080
8080
0080
0080
0080
0080
0080
0080
0080
0080
ENDCHAR
STARTCHAR 05E4
ENCODING 1508
SWIDTH 440 0
DWIDTH 11 0
BBX 9 14 1 0
BITMAP
8000
FE00
FF00
4100
8080
8080
E080
F080
8080
0080
0080
0180
FF00
FE00
ENDCHAR
STARTCHAR 05E5
ENCODING 1509
SWIDTH 480 0
DWIDTH 12 0
BBX 10 18 1 -4
BITMAP
8200
F3C0
73C0
1180
1100
1200
2400
2800
3800
3000
3000
3000
3000
3000
3000
3000
3000
2000
ENDCHAR
STARTCHAR 05E6
ENCODING 1510
SWIDTH 480 0
DWIDTH 12 0
BBX 10 14 1 0
BITMAP
8200
F3C0
F3C0
1100
1200
1400
1400
1C00
0C00
0600
0300
0180
FFC0
FFC0
ENDCHAR
STARTCHAR 05E7
ENCODING 1511
SWIDTH 480 0
DWIDTH 12 0
BBX 10 18 1 -4
BITMAP
8000
FF80
FFC0
0040
0040
0040
8040
8040
8180
8200
8C00
9800
9800
9800
8000
8000
8000
8000
ENDCHAR
STARTCHAR 05E8
ENCODING 1512
SWIDTH 480 0
DWIDTH 12 0
BBX 10 14 1 0
BITMAP
8000
FF80
FFC0
00C0
0040
0040
0040
0040
0040
0040
0040
0040
0040
0040
ENDCHAR
STARTCHAR 05E9
ENCODING 1513
SWIDTH 600 0
DWIDTH 15 0
BBX 13 14 1 0
BITMAP
8420
F7B8
F3B8
4108
4108
4210
4210
4210
4420
4420
2420
2840
1FC0
1FC0
ENDCHAR
STARTCHAR 05EA
ENCODING 1514
SWIDTH 520 0
DWIDTH 13 0
BBX 12 14 0 0
BITMAP
4000
7FC0
7FF0
0830
1010
2010
2010
2010
2010
2010
3010
3010
F010
F010
ENDCHAR
STARTCHAR 05F0
ENCODING 1520
SWIDTH 560 0
DWIDTH 14 0
BBX 11 14 1 0
BITMAP
8200
F3C0
FBE0
1860
0820
0820
0820
0820
0820
0820
0820
0820
0820
0820
ENDCHAR
STARTCHAR 05F1
ENCODING 1521
SWIDTH 560 0
DWIDTH 14 0
BBX 11 14 1 0
BITMAP
8200
F3C0
FBE0
0860
0820
0820
0820
1020
0020
0020
0020
0020
0020
0020
ENDCHAR
STARTCHAR 05F2
ENCODING 1522
SWIDTH 520 0
DWIDTH 13 0
BBX 11 8 1 6
BITMAP
8200
F3C0
FBE0
0820
0820
0820
0820
1040
ENDCHAR
STARTCHAR 05F3
ENCODING 1523
SWIDTH 200 0
DWIDTH 5 0
BBX 3 6 1 7
BITMAP
60
E0
E0
C0
C0
80
ENDCHAR
STARTCHAR 05F4
ENCODING 1524
SWIDTH 360 0
DWIDTH 9 0
BBX 7 6 1 7
BITMAP
66
EE
EE
CC
CC
88
ENDCHAR
STARTCHAR 060C
ENCODING 1548
SWIDTH 320 0
DWIDTH 8 0
BBX 4 8 2 3
BITMAP
20
40
80
80
E0
F0
F0
60
ENDCHAR
STARTCHAR 061B
ENCODING 1563
SWIDTH 320 0
DWIDTH 8 0
BBX 4 12 2 3
BITMAP
20
40
80
80
E0
F0
F0
60
00
70
70
70
ENDCHAR
STARTCHAR 061F
ENCODING 1567
SWIDTH 360 0
DWIDTH 9 0
BBX 7 15 1 3
BITMAP
3C
46
CE
CE
E0
E0
70
70
30
10
10
00
38
38
38
ENDCHAR
STARTCHAR 0621
ENCODING 1569
SWIDTH 400 0
DWIDTH 10 0
BBX 8 8 1 3
BITMAP
18
3C
48
C0
E3
FE
3C
30
ENDCHAR
STARTCHAR 0622
ENCODING 1570
SWIDTH 200 0
DWIDTH 5 0
BBX 5 18 1 3
BITMAP
C8
B0
00
20
20
20
20
20
20
20
20
20
20
20
20
20
20
20
ENDCHAR
STARTCHAR 0623
ENCODING 1571
SWIDTH 200 0
DWIDTH 5 0
BBX 3 19 2 3
BITMAP
60
80
60
80
00
40
40
40
40
40
40
40
40
40
40
40
40
40
40
ENDCHAR
STARTCHAR 0624
ENCODING 1572
SWIDTH 440 0
DWIDTH 11 0
BBX 10 18 1 -2
BITMAP
0600
0800
0600
0800
0000
0000
0180
03C0
02C0
0240
03C0
01C0
0040
00C0
0180
0380
8700
7E00
ENDCHAR
STARTCHAR 0625
ENCODING 1573
SWIDTH 200 0
DWIDTH 5 0
BBX 3 21 1 -3
BITMAP
20
20
20
20
20
20
20
20
20
20
20
20
20
20
20
00
00
60
80
60
80
ENDCHAR
STARTCHAR 0626
ENCODING 1574
SWIDTH 640 0
DWIDTH 16 0
BBX 15 14 1 -1
BITMAP
6000
800C
603E
8022
0040
2080
4080
40FC
80FC
8004
8018
C0F8
FFE0
3F80
ENDCHAR
STARTCHAR 0627
ENCODING 1575
SWIDTH 200 0
DWIDTH 5 0
BBX 1 15 3 3
BITMAP
80
80
80
80
80
80
80
80
80
80
80
80
80
80
80
ENDCHAR
STARTCHAR 0628
ENCODING 1576
SWIDTH 720 0
DWIDTH 18 0
BBX 17 13 1 -1
BITMAP
400100
800100
800180
800080
800080
E00080
7FFF80
3FFF80
000000
000000
008000
01C000
008000
ENDCHAR
STARTCHAR 0629
ENCODING 1577
SWIDTH 280 0
DWIDTH 7 0
BBX 7 13 0 4
BITMAP
08
5C
E8
40
00
20
38
3C
46
42
46
7C
38
ENDCHAR
STARTCHAR 062A
ENCODING 1578
SWIDTH 720 0
DWIDTH 18 0
BBX 17 12 1 4
BITMAP
002000
017000
03A000
010000
400100
800100
800180
800080
800080
E00080
7FFF80
3FFF80
ENDCHAR
STARTCHAR 062B
ENCODING 1579
SWIDTH 720 0
DWIDTH 18 0
BBX 17 14 1 4
BITMAP
010000
038000
012000
017000
03A000
010000
400100
800100
800180
800080
800080
E00080
7FFF80
3FFF80
ENDCHAR
STARTCHAR 062C
ENCODING 1580
SWIDTH 560 0
DWIDTH 14 0
BBX 11 15 1 -5
BITMAP
7FE0
FFE0
0F00
1800
2000
4000
8200
8700
8200
8000
C000
E000
7800
3FE0
0FC0
ENDCHAR
STARTCHAR 062D
ENCODING 1581
SWIDTH 560 0
DWIDTH 14 0
BBX 11 15 1 -5
BITMAP
7FE0
FFE0
0F00
1800
2000
4000
8000
8000
8000
8000
C000
E000
7800
3FE0
0FC0
ENDCHAR
STARTCHAR 062E
ENCODING 1582
SWIDTH 560 0
DWIDTH 14 0
BBX 11 20 1 -5
BITMAP
0400
0E00
0400
0000
0000
7FE0
FFE0
0F00
1800
2000
4000
8000
8000
8000
8000
C000
E000
7800
3FE0
0FC0
ENDCHAR
STARTCHAR 062F
ENCODING 1583
SWIDTH 320 0
DWIDTH 8 0
BBX 7 10 1 4
BITMAP
10
18
0C
04
06
02
02
82
FE
FE
ENDCHAR
STARTCHAR 0630
ENCODING 1584
SWIDTH 320 0
DWIDTH 8 0
BBX 7 15 1 4
BITMAP
20
70
20
00
00
10
18
0C
04
06
02
02
82
FE
FE
ENDCHAR
STARTCHAR 0631
ENCODING 1585
SWIDTH 480 0
DWIDTH 12 0
BBX 11 13 1 -2
BITMAP
0080
00C0
00E0
0060
0020
0020
0020
0020
0060
00C0
0180
8700
7E00
ENDCHAR
STARTCHAR 0632
ENCODING 1586
SWIDTH 480 0
DWIDTH 12 0
BBX 11 18 1 -2
BITMAP
0100
0380
0100
0000
0000
0080
00C0
00E0
0060
0020
0020
0020
0020
0060
00C0
0180
8700
7E00
ENDCHAR
STARTCHAR 0633
ENCODING 1587
SWIDTH 840 0
DWIDTH 21 0
BBX 20 13 1 -2
BITMAP
002020
0020B0
0030B0
401090
401090
801FF0
801F70
801000
801000
802000
C0E000
7FC000
3F0000
ENDCHAR
STARTCHAR 0634
ENCODING 1588
SWIDTH 840 0
DWIDTH 21 0
BBX 20 20 1 -2
BITMAP
000200
000700
000240
0002E0
000740
000200
000000
002020
0020B0
0030B0
401090
401090
801FF0
801F70
801000
801000
802000
C0E000
7FC000
3F0000
ENDCHAR
STARTCHAR 0635
ENCODING 1589
SWIDTH 1080 0
DWIDTH 27 0
BBX 26 13 1 -2
BITMAP
00200780
00201FC0
003031C0
4010C0C0
401180C0
801FFFC0
801FFFC0
80100000
80100000
80200000
C0E00000
7FC00000
3F000000
ENDCHAR
STARTCHAR 0636
ENCODING 1590
SWIDTH 1080 0
DWIDTH 27 0
BBX 26 18 1 -2
BITMAP
00008000
0001C000
00008000
00000000
00000000
00200780
00201FC0
003031C0
4010C0C0
401180C0
801FFFC0
801FFFC0
80100000
80100000
80200000
C0E00000
7FC00000
3F000000
ENDCHAR
STARTCHAR 0637
ENCODING 1591
SWIDTH 600 0
DWIDTH 15 0
BBX 16 15 -1 4
BITMAP
0800
0E00
0600
0400
0400
0200
0200
0200
0200
023E
02FF
0383
0C03
FFFF
FFFF
ENDCHAR
STARTCHAR 0638
ENCODING 1592
SWIDTH 600 0
DWIDTH 15 0
BBX 16 15 -1 4
BITMAP
0800
0E00
0600
0410
0438
0210
0200
0200
0200
023E
02FF
0383
0C03
FFFF
FFFF
ENDCHAR
STARTCHAR 0639
ENCODING 1593
SWIDTH 560 0
DWIDTH 14 0
BBX 11 19 1 -5
BITMAP
3800
7E00
E000
8000
80C0
E3C0
7F00
3C00
3000
6000
4000
8000
8000
8000
8000
C000
7000
3FE0
0FC0
ENDCHAR
STARTCHAR 063A
ENCODING 1594
SWIDTH 560 0
DWIDTH 14 0
BBX 11 24 1 -5
BITMAP
1000
3800
1000
0000
0000
3800
7E00
E000
8000
80C0
E3C0
7F00
3C00
3000
6000
4000
8000
8000
8000
8000
C000
7000
3FE0
0FC0
ENDCHAR
STARTCHAR 0640
ENCODING 1600
SWIDTH 200 0
DWIDTH 5 0
BBX 6 2 -1 4
BITMAP
FC
FC
ENDCHAR
STARTCHAR 0641
ENCODING 1601
SWIDTH 800 0
DWIDTH 20 0
BBX 20 13 0 4
BITMAP
000080
0001C0
000080
000000
000000
400060
8000F0
800190
800190
C001F0
F00070
7FFFF0
1FFFF0
ENDCHAR
STARTCHAR 0642
ENCODING 1602
SWIDTH 600 0
DWIDTH 15 0
BBX 14 19 1 -2
BITMAP
0020
0170
03A0
0100
0000
0000
0030
0078
0098
408C
40FC
807C
8004
8004
8004
800C
E038
7FF0
1FC0
ENDCHAR
STARTCHAR 0643
ENCODING 1603
SWIDTH 600 0
DWIDTH 15 0
BBX 14 16 1 4
BITMAP
0010
0018
001C
000C
0088
0108
0208
03C8
0048
4044
80C4
8F84
8004
C004
FFFC
3FFC
ENDCHAR
STARTCHAR 0644
ENCODING 1604
SWIDTH 520 0
DWIDTH 13 0
BBX 12 20 1 0
BITMAP
0040
0060
0070
0030
0020
0020
0020
0020
0020
2010
4010
4010
8010
8010
8010
8010
C030
E0E0
7FE0
3F80
ENDCHAR
STARTCHAR 0645
ENCODING 1605
SWIDTH 320 0
DWIDTH 8 0
BBX 8 15 0 -5
BITMAP
1C
3E
26
03
1F
7F
E0
80
80
80
80
40
40
40
40
ENDCHAR
STARTCHAR 0646
ENCODING 1606
SWIDTH 520 0
DWIDTH 13 0
BBX 12 17 1 -2
BITMAP
0200
0700
0200
0000
0020
0020
0030
4010
4010
8010
8010
8010
8010
8030
C0E0
7FC0
3F80
ENDCHAR
STARTCHAR 0647
ENCODING 1607
SWIDTH 280 0
DWIDTH 7 0
BBX 5 8 1 4
BITMAP
40
70
78
98
88
98
F8
F0
ENDCHAR
STARTCHAR 0648
ENCODING 1608
SWIDTH 440 0
DWIDTH 11 0
BBX 10 12 1 -2
BITMAP
0180
03C0
02C0
0240
03C0
01C0
0040
00C0
0180
0380
8700
7E00
ENDCHAR
STARTCHAR 0649
ENCODING 1609
SWIDTH 640 0
DWIDTH 16 0
BBX 15 13 1 -1
BITMAP
000C
003E
0022
0040
2080
4080
40FC
80FC
8004
8018
C0F8
FFE0
3F80
ENDCHAR
STARTCHAR 064A
ENCODING 1610
SWIDTH 640 0
DWIDTH 16 0
BBX 15 17 1 -5
BITMAP
000C
003E
0022
0040
2080
4080
40FC
80FC
8004
8018
C0F8
FFE0
3F80
0080
05C0
0E80
0400
ENDCHAR
STARTCHAR 064B
ENCODING 1611
SWIDTH 200 0
DWIDTH 5 0
BBX 4 4 1 15
BITMAP
30
C0
30
C0
ENDCHAR
STARTCHAR 064C
ENCODING 1612
SWIDTH 240 0
DWIDTH 6 0
BBX 6 5 0 15
BITMAP
0C
14
DC
54
60
ENDCHAR
STARTCHAR 064D
ENCODING 1613
SWIDTH 200 0
DWIDTH 5 0
BBX 4 4 1 -3
BITMAP
30
C0
30
C0
ENDCHAR
STARTCHAR 064E
ENCODING 1614
SWIDTH 200 0
DWIDTH 5 0
BBX 4 2 1 15
BITMAP
30
C0
ENDCHAR
STARTCHAR 064F
ENCODING 1615
SWIDTH 200 0
DWIDTH 5 0
BBX 4 5 1 15
BITMAP
30
50
70
30
C0
ENDCHAR
STARTCHAR 0650
ENCODING 1616
SWIDTH 200 0
DWIDTH 5 0
BBX 4 2 1 -1
BITMAP
30
C0
ENDCHAR
STARTCHAR 0651
ENCODING 1617
SWIDTH 200 0
DWIDTH 5 0
BBX 7 3 0 15
BITMAP
12
BE
E0
ENDCHAR
STARTCHAR 0652
ENCODING 1618
SWIDTH 160 0
DWIDTH 4 0
BBX 4 4 0 15
BITMAP
60
B0
90
E0
ENDCHAR
STARTCHAR 0653
ENCODING 1619
SWIDTH 200 0
DWIDTH 5 0
BBX 5 2 0 17
BITMAP
C0
38
ENDCHAR
STARTCHAR 0654
ENCODING 1620
SWIDTH 200 0
DWIDTH 5 0
BBX 3 4 1 18
BITMAP
60
80
60
80
ENDCHAR
STARTCHAR 0655
ENCODING 1621
SWIDTH 200 0
DWIDTH 5 0
BBX 3 4 1 -2
BITMAP
60
80
60
80
ENDCHAR
STARTCHAR 0660
ENCODING 1632
SWIDTH 520 0
DWIDTH 13 0
BBX 4 6 5 5
BITMAP
40
60
F0
F0
60
20
ENDCHAR
STARTCHAR 0661
ENCODING 1633
SWIDTH 520 0
DWIDTH 13 0
BBX 4 14 4 4
BITMAP
80
C0
E0
E0
70
30
30
30
10
10
10
10
10
10
ENDCHAR
STARTCHAR 0662
ENCODING 1634
SWIDTH 520 0
DWIDTH 13 0
BBX 7 14 3 4
BITMAP
82
82
C6
7E
7C
30
30
18
18
18
18
08
08
08
ENDCHAR
STARTCHAR 0663
ENCODING 1635
SWIDTH 520 0
DWIDTH 13 0
BBX 10 14 2 4
BITMAP
8440
CCC0
FFC0
FB80
6000
7000
3000
3000
3000
1000
1000
1000
1000
1000
ENDCHAR
STARTCHAR 0664
ENCODING 1636
SWIDTH 520 0
DWIDTH 13 0
BBX 6 14 4 4
BITMAP
08
18
30
40
E0
F0
F8
30
20
40
40
E0
FC
38
ENDCHAR
STARTCHAR 0665
ENCODING 1637
SWIDTH 520 0
DWIDTH 13 0
BBX 9 9 3 6
BITMAP
1C00
3F00
4700
8180
8080
8080
C100
FF00
7C00
ENDCHAR
STARTCHAR 0666
ENCODING 1638
SWIDTH 520 0
DWIDTH 13 0
BBX 8 14 2 4
BITMAP
80
FC
FC
FC
04
04
04
04
06
06
07
03
03
01
ENDCHAR
STARTCHAR 0667
ENCODING 1639
SWIDTH 520 0
DWIDTH 13 0
BBX 11 14 1 4
BITMAP
8020
C040
C040
E0C0
60C0
3180
3100
1900
0A00
0A00
0C00
0400
0400
0400
ENDCHAR
STARTCHAR 0668
ENCODING 1640
SWIDTH 520 0
DWIDTH 13 0
BBX 11 14 1 4
BITMAP
0400
0400
0400
0C00
0E00
0A00
1300
1380
3180
61C0
E0E0
C0E0
C060
8020
ENDCHAR
STARTCHAR 0669
ENCODING 1641
SWIDTH 520 0
DWIDTH 13 0
BBX 7 14 3 4
BITMAP
38
7C
4C
84
84
FC
7C
04
04
04
06
06
06
02
ENDCHAR
STARTCHAR 066A
ENCODING 1642
SWIDTH 520 0
DWIDTH 13 0
BBX 9 17 2 2
BITMAP
E080
E100
E100
0200
0200
0400
0400
0800
0800
0800
1000
1000
2000
2000
4380
4380
8380
ENDCHAR
STARTCHAR 066B
ENCODING 1643
SWIDTH 320 0
DWIDTH 8 0
BBX 3 6 2 0
BITMAP
E0
E0
E0
60
C0
80
ENDCHAR
STARTCHAR 066C
ENCODING 1644
SWIDTH 320 0
DWIDTH 8 0
BBX 4 8 2 3
BITMAP
20
40
80
80
E0
F0
F0
60
ENDCHAR
STARTCHAR 066D
ENCODING 1645
SWIDTH 520 0
DWIDTH 13 0
BBX 9 9 2 9
BITMAP
0800
6B00
6B00
1C00
F780
1C00
6B00
6B00
0800
ENDCHAR
STARTCHAR 066E
ENCODING 1646
SWIDTH 720 0
DWIDTH 18 0
BBX 17 8 1 4
BITMAP
400100
800100
800180
800080
800080
E00080
7FFF80
3FFF80
ENDCHAR
STARTCHAR 066F
ENCODING 1647
SWIDTH 600 0
DWIDTH 15 0
BBX 14 13 1 -2
BITMAP
0030
0078
0098
408C
40FC
807C
8004
8004
8004
800C
E038
7FF0
1FC0
ENDCHAR
STARTCHAR 0670
ENCODING 1648
SWIDTH 0 0
DWIDTH 0 0
BBX 2 6 -1 13
BITMAP
80
C0
40
40
40
40
ENDCHAR
STARTCHAR 0671
ENCODING 1649
SWIDTH 200 0
DWIDTH 5 0
BBX 5 19 0 3
BITMAP
38
68
F0
80
10
10
10
10
10
10
10
10
10
10
10
10
10
10
10
ENDCHAR
STARTCHAR 0672
ENCODING 1650
SWIDTH 200 0
DWIDTH 5 0
BBX 4 19 1 3
BITMAP
30
40
30
C0
00
20
20
20
20
20
20
20
20
20
20
20
20
20
20
ENDCHAR
STARTCHAR 0673
ENCODING 1651
SWIDTH 200 0
DWIDTH 5 0
BBX 4 21 1 -3
BITMAP
20
20
20
20
20
20
20
20
20
20
20
20
20
20
20
00
00
30
40
30
C0
ENDCHAR
STARTCHAR 0674
ENCODING 1652
SWIDTH 200 0
DWIDTH 5 0
BBX 3 4 1 18
BITMAP
60
80
60
80
ENDCHAR
STARTCHAR 0675
ENCODING 1653
SWIDTH 200 0
DWIDTH 5 0
BBX 5 15 2 3
BITMAP
98
A0
98
A0
80
80
80
80
80
80
80
80
80
80
80
ENDCHAR
STARTCHAR 0676
ENCODING 1654
SWIDTH 440 0
DWIDTH 11 0
BBX 11 17 1 -2
BITMAP
0060
0080
0060
0080
0000
0180
03C0
02C0
0240
03C0
01C0
0040
00C0
0180
0380
8700
7E00
ENDCHAR
STARTCHAR 0677
ENCODING 1655
SWIDTH 440 0
DWIDTH 11 0
BBX 11 17 1 -2
BITMAP
0660
0A80
0E60
0680
1800
0180
03C0
02C0
0240
03C0
01C0
0040
00C0
0180
0380
8700
7E00
ENDCHAR
STARTCHAR 0678
ENCODING 1656
SWIDTH 640 0
DWIDTH 16 0
BBX 16 18 1 -1
BITMAP
0003
0004
0003
0004
0000
000C
003E
0022
0040
2080
4080
40FC
80FC
8004
8018
C0F8
FFE0
3F80
ENDCHAR
STARTCHAR 0679
ENCODING 1657
SWIDTH 720 0
DWIDTH 18 0
BBX 17 17 1 4
BITMAP
010000
018000
010000
008000
008000
00B800
00C800
07F800
000000
400100
800100
800180
800080
800080
E00080
7FFF80
3FFF80
ENDCHAR
STARTCHAR 067A
ENCODING 1658
SWIDTH 720 0
DWIDTH 18 0
BBX 17 15 1 4
BITMAP
010000
038000
010000
008000
01C000
008000
000000
400100
800100
800180
800080
800080
E00080
7FFF80
3FFF80
ENDCHAR
STARTCHAR 067B
ENCODING 1659
SWIDTH 720 0
DWIDTH 18 0
BBX 17 16 1 -4
BITMAP
400100
800100
800180
800080
800080
E00080
7FFF80
3FFF80
000000
000000
008000
01C000
008000
004000
00E000
004000
ENDCHAR
STARTCHAR 067C
ENCODING 1660
SWIDTH 720 0
DWIDTH 18 0
BBX 17 15 1 1
BITMAP
002000
017000
03A000
010000
400100
800100
800180
800080
800080
E00080
7FFF80
3FFF80
016000
012000
01C000
ENDCHAR
STARTCHAR 067D
ENCODING 1661
SWIDTH 720 0
DWIDTH 18 0
BBX 17 15 1 4
BITMAP
004000
02E000
074000
028000
01C000
008000
000000
400100
800100
800180
800080
800080
E00080
7FFF80
3FFF80
ENDCHAR
STARTCHAR 067E
ENCODING 1662
SWIDTH 720 0
DWIDTH 18 0
BBX 17 16 1 -4
BITMAP
400100
800100
800180
800080
800080
E00080
7FFF80
3FFF80
000000
000000
002000
017000
03A000
014000
00E000
004000
ENDCHAR
STARTCHAR 067F
ENCODING 1663
SWIDTH 720 0
DWIDTH 18 0
BBX 17 15 1 4
BITMAP
004000
02E000
074000
022000
017000
03A000
010000
400100
800100
800180
800080
800080
E00080
7FFF80
3FFF80
ENDCHAR
STARTCHAR 0680
ENCODING 1664
SWIDTH 720 0
DWIDTH 18 0
BBX 17 17 1 -5
BITMAP
400100
800100
800180
800080
800080
E00080
7FFF80
3FFF80
000000
000000
004000
02E000
074000
022000
017000
03A000
010000
ENDCHAR
STARTCHAR 0681
ENCODING 1665
SWIDTH 560 0
DWIDTH 14 0
BBX 11 22 1 -5
BITMAP
0600
0800
0600
0800
0000
0000
0000
7FE0
FFE0
0F00
1800
2000
4000
8000
8000
8000
8000
C000
E000
7800
3FE0
0FC0
ENDCHAR
STARTCHAR 0682
ENCODING 1666
SWIDTH 560 0
DWIDTH 14 0
BBX 11 24 1 -5
BITMAP
0800
1C00
0800
0400
0E00
0400
0000
0000
0000
7FE0
FFE0
0F00
1800
2000
4000
8000
8000
8000
8000
C000
E000
7800
3FE0
0FC0
ENDCHAR
STARTCHAR 0683
ENCODING 1667
SWIDTH 560 0
DWIDTH 14 0
BBX 11 15 1 -5
BITMAP
7FE0
FFE0
0F00
1800
2000
4000
8040
82E0
8740
8200
C000
E000
7800
3FE0
0FC0
ENDCHAR
STARTCHAR 0684
ENCODING 1668
SWIDTH 560 0
DWIDTH 14 0
BBX 11 15 1 -5
BITMAP
7FE0
FFE0
0F00
1800
2000
4400
8E00
8400
8200
8700
C200
E000
7800
3FE0
0FC0
ENDCHAR
STARTCHAR 0685
ENCODING 1669
SWIDTH 560 0
DWIDTH 14 0
BBX 11 24 1 -5
BITMAP
0800
1C00
0900
0B80
1D00
0800
0000
0000
0000
7FE0
FFE0
0F00
1800
2000
4000
8000
8000
8000
8000
C000
E000
7800
3FE0
0FC0
ENDCHAR
STARTCHAR 0686
ENCODING 1670
SWIDTH 560 0
DWIDTH 14 0
BBX 11 15 1 -5
BITMAP
7FE0
FFE0
0F00
1800
2000
4080
85C0
8E80
8500
8380
C100
E000
7800
3FE0
0FC0
ENDCHAR
STARTCHAR 0687
ENCODING 1671
SWIDTH 560 0
DWIDTH 14 0
BBX 11 15 1 -5
BITMAP
7FE0
FFE0
0F00
1800
2000
4100
8B80
9D00
8880
85C0
CE80
E400
7800
3FE0
0FC0
ENDCHAR
STARTCHAR 0688
ENCODING 1672
SWIDTH 320 0
DWIDTH 8 0
BBX 8 19 0 4
BITMAP
20
30
20
10
10
17
19
FF
00
08
0C
06
02
03
01
01
41
7F
7F
ENDCHAR
STARTCHAR 0689
ENCODING 1673
SWIDTH 320 0
DWIDTH 8 0
BBX 7 13 1 1
BITMAP
10
18
0C
04
06
02
02
82
FE
FE
2C
24
38
ENDCHAR
STARTCHAR 068A
ENCODING 1674
SWIDTH 320 0
DWIDTH 8 0
BBX 7 15 1 -1
BITMAP
10
18
0C
04
06
02
02
82
FE
FE
00
00
10
38
10
ENDCHAR
STARTCHAR 068B
ENCODING 1675
SWIDTH 320 0
DWIDTH 8 0
BBX 8 24 0 -1
BITMAP
20
30
20
10
10
17
19
FF
00
08
0C
06
02
03
01
01
41
7F
7F
00
00
08
1C
08
ENDCHAR
STARTCHAR 068C
ENCODING 1676
SWIDTH 320 0
DWIDTH 8 0
BBX 7 15 1 4
BITMAP
04
2E
74
20
00
10
18
0C
04
06
02
02
82
FE
FE
ENDCHAR
STARTCHAR 068D
ENCODING 1677
SWIDTH 320 0
DWIDTH 8 0
BBX 7 16 1 -2
BITMAP
10
18
0C
04
06
02
02
82
FE
FE
00
00
04
2E
74
20
ENDCHAR
STARTCHAR 068E
ENCODING 1678
SWIDTH 320 0
DWIDTH 8 0
BBX 7 18 1 4
BITMAP
40
E0
48
5C
E8
40
00
00
10
18
0C
04
06
02
02
82
FE
FE
ENDCHAR
STARTCHAR 068F
ENCODING 1679
SWIDTH 320 0
DWIDTH 8 0
BBX 7 18 1 4
BITMAP
08
5C
E8
50
38
10
00
00
10
18
0C
04
06
02
02
82
FE
FE
ENDCHAR
STARTCHAR 0690
ENCODING 1680
SWIDTH 320 0
DWIDTH 8 0
BBX 8 17 0 4
BITMAP
08
5C
E8
44
2E
74
20
08
0C
06
02
03
01
01
41
7F
7F
ENDCHAR
STARTCHAR 0691
ENCODING 1681
SWIDTH 480 0
DWIDTH 12 0
BBX 11 23 1 -2
BITMAP
0400
0600
0400
0200
0200
02E0
0320
1FE0
0000
0000
0080
00C0
00E0
0060
0020
0020
0020
0020
0060
00C0
0180
8700
7E00
ENDCHAR
STARTCHAR 0692
ENCODING 1682
SWIDTH 480 0
DWIDTH 12 0
BBX 11 18 1 -2
BITMAP
06C0
0280
0100
0000
0000
0080
00C0
00E0
0060
0020
0020
0020
0020
0060
00C0
0180
8700
7E00
ENDCHAR
STARTCHAR 0693
ENCODING 1683
SWIDTH 480 0
DWIDTH 12 0
BBX 11 14 1 -3
BITMAP
0080
00C0
00E0
0060
0020
0020
0020
0020
0060
00C0
01C0
8760
7F20
01C0
ENDCHAR
STARTCHAR 0694
ENCODING 1684
SWIDTH 480 0
DWIDTH 12 0
BBX 12 14 1 -3
BITMAP
0080
00C0
00E0
0060
0020
0020
0020
0020
0060
00C0
0180
8720
7E70
0020
ENDCHAR
STARTCHAR 0695
ENCODING 1685
SWIDTH 480 0
DWIDTH 12 0
BBX 11 16 1 -5
BITMAP
0080
00C0
00E0
0060
0020
0020
0020
0020
0060
00C0
0180
8700
7E00
0360
0140
0080
ENDCHAR
STARTCHAR 0696
ENCODING 1686
SWIDTH 480 0
DWIDTH 12 0
BBX 12 14 1 -3
BITMAP
0080
00C0
00E0
0060
0020
1020
3820
1020
0060
00C0
0180
8720
7E70
0020
ENDCHAR
STARTCHAR 0697
ENCODING 1687
SWIDTH 480 0
DWIDTH 12 0
BBX 11 18 1 -2
BITMAP
0080
05C0
0E80
0400
0000
0080
00C0
00E0
0060
0020
0020
0020
0020
0060
00C0
0180
8700
7E00
ENDCHAR
STARTCHAR 0698
ENCODING 1688
SWIDTH 480 0
DWIDTH 12 0
BBX 11 20 1 -2
BITMAP
0200
0700
0280
05C0
0E80
0400
0000
0080
00C0
00E0
0060
0020
0020
0020
0020
0060
00C0
0180
8700
7E00
ENDCHAR
STARTCHAR 0699
ENCODING 1689
SWIDTH 480 0
DWIDTH 12 0
BBX 11 21 1 -2
BITMAP
0100
0B80
1D00
0880
05C0
0E80
0400
0000
0080
00C0
00E0
0060
0020
0020
0020
0020
0060
00C0
0180
8700
7E00
ENDCHAR
STARTCHAR 069A
ENCODING 1690
SWIDTH 840 0
DWIDTH 21 0
BBX 20 17 1 -2
BITMAP
000100
000380
000100
000000
002020
0020B0
0030B0
401090
401090
801FF0
801F70
801000
801000
802080
C0E1C0
7FC080
3F0000
ENDCHAR
STARTCHAR 069B
ENCODING 1691
SWIDTH 840 0
DWIDTH 21 0
BBX 20 15 1 -4
BITMAP
002020
0020B0
0030B0
401090
401090
801FF0
801F70
801000
801000
802020
C0E170
7FC3A0
3F0140
0000E0
000040
ENDCHAR
STARTCHAR 069C
ENCODING 1692
SWIDTH 840 0
DWIDTH 21 0
BBX 20 22 1 -4
BITMAP
000400
000E00
000480
0005C0
000E80
000400
000000
002020
0020B0
0030B0
401090
401090
801FF0
801F70
801000
801000
802020
C0E170
7FC3A0
3F0140
0000E0
000040
ENDCHAR
STARTCHAR 069D
ENCODING 1693
SWIDTH 1080 0
DWIDTH 27 0
BBX 26 13 1 -2
BITMAP
00200780
00201FC0
003031C0
4010C0C0
401180C0
801FFFC0
801FFFC0
80100000
80100000
80200800
C0E05C00
7FC0E800
3F004000
ENDCHAR
STARTCHAR 069E
ENCODING 1694
SWIDTH 1080 0
DWIDTH 27 0
BBX 26 20 1 -2
BITMAP
00004000
0000E000
00004800
00005C00
0000E800
00004000
00000000
00200780
00201FC0
003031C0
4010C0C0
401180C0
801FFFC0
801FFFC0
80100000
80100000
80200000
C0E00000
7FC00000
3F000000
ENDCHAR
STARTCHAR 069F
ENCODING 1695
SWIDTH 600 0
DWIDTH 15 0
BBX 16 15 -1 4
BITMAP
0800
0E20
0670
0424
042E
0274
0220
0200
0200
023E
02FF
0383
0C03
FFFF
FFFF
ENDCHAR
STARTCHAR 06A0
ENCODING 1696
SWIDTH 560 0
DWIDTH 14 0
BBX 11 27 1 -5
BITMAP
2000
7000
2400
2E00
7400
2000
0000
0000
3800
7E00
E000
8000
80C0
E3C0
7F00
3C00
3000
6000
4000
8000
8000
8000
8000
C000
7000
3FE0
0FC0
ENDCHAR
STARTCHAR 06A1
ENCODING 1697
SWIDTH 800 0
DWIDTH 20 0
BBX 20 8 0 4
BITMAP
400060
8000F0
800190
800190
C001F0
F00070
7FFFF0
1FFFF0
ENDCHAR
STARTCHAR 06A2
ENCODING 1698
SWIDTH 800 0
DWIDTH 20 0
BBX 20 13 0 -1
BITMAP
400060
8000F0
800190
800190
C001F0
F00070
7FFFF0
1FFFF0
000000
000000
000040
0000E0
000040
ENDCHAR
STARTCHAR 06A3
ENCODING 1699
SWIDTH 800 0
DWIDTH 20 0
BBX 20 17 0 -1
BITMAP
000040
0000E0
000040
000000
400060
8000F0
800190
800190
C001F0
F00070
7FFFF0
1FFFF0
000000
000000
002000
007000
002000
ENDCHAR
STARTCHAR 06A4
ENCODING 1700
SWIDTH 800 0
DWIDTH 20 0
BBX 20 16 0 4
BITMAP
000100
000380
000120
000170
0003A0
000100
000000
000000
400060
8000F0
800190
800190
C001F0
F00070
7FFFF0
1FFFF0
ENDCHAR
STARTCHAR 06A5
ENCODING 1701
SWIDTH 800 0
DWIDTH 20 0
BBX 21 16 0 -4
BITMAP
400060
8000F0
800190
800190
C001F0
F00070
7FFFF0
1FFFF0
000000
000000
000010
0000B8
0001D0
0000A0
000070
000020
ENDCHAR
STARTCHAR 06A6
ENCODING 1702
SWIDTH 800 0
DWIDTH 20 0
BBX 21 15 0 4
BITMAP
000020
000170
0003A0
000110
0000B8
0001D0
000080
400060
8000F0
800190
800190
C001F0
F00070
7FFFF0
1FFFF0
ENDCHAR
STARTCHAR 06A7
ENCODING 1703
SWIDTH 600 0
DWIDTH 15 0
BBX 14 18 1 -2
BITMAP
0040
00E0
0040
0000
0000
0030
0078
0098
408C
40FC
807C
8004
8004
8004
800C
E038
7FF0
1FC0
ENDCHAR
STARTCHAR 06A8
ENCODING 1704
SWIDTH 600 0
DWIDTH 15 0
BBX 14 20 1 -2
BITMAP
0100
0380
0120
0170
03A0
0100
0000
0030
0078
0098
408C
40FC
807C
8004
8004
8004
800C
E038
7FF0
1FC0
ENDCHAR
STARTCHAR 06A9
ENCODING 1705
SWIDTH 800 0
DWIDTH 20 0
BBX 20 14 0 4
BITMAP
000020
0001E0
000780
000E00
001800
001C00
001E00
400F00
800180
8000C0
800060
C00030
FFFFF0
3FFFF0
ENDCHAR
STARTCHAR 06AA
ENCODING 1706
SWIDTH 800 0
DWIDTH 20 0
BBX 20 13 0 4
BITMAP
001000
00F000
01E000
070000
040000
0C0000
0FC000
07FE00
803FC0
8001E0
C00030
FFFFF0
3FFFF0
ENDCHAR
STARTCHAR 06AB
ENCODING 1707
SWIDTH 800 0
DWIDTH 20 0
BBX 20 14 0 4
BITMAP
000020
0001E0
0007E0
000F20
0019C0
001C00
001E00
400F00
800180
8000C0
800060
C00030
FFFFF0
3FFFF0
ENDCHAR
STARTCHAR 06AC
ENCODING 1708
SWIDTH 600 0
DWIDTH 15 0
BBX 14 16 1 4
BITMAP
0110
0398
011C
000C
0088
0108
0208
03C8
0048
4044
80C4
8F84
8004
C004
FFFC
3FFC
ENDCHAR
STARTCHAR 06AD
ENCODING 1709
SWIDTH 600 0
DWIDTH 15 0
BBX 14 17 1 4
BITMAP
0400
0E10
0498
05DC
0E8C
0408
0088
0108
0208
03C8
4044
8044
80C4
8F84
C004
FFFC
3FFC
ENDCHAR
STARTCHAR 06AE
ENCODING 1710
SWIDTH 600 0
DWIDTH 15 0
BBX 14 24 1 -4
BITMAP
0010
0018
001C
000C
0088
0108
0208
03C8
0048
4044
80C4
8F84
8004
C004
FFFC
3FFC
0000
0000
0040
02E0
0740
0280
01C0
0080
ENDCHAR
STARTCHAR 06AF
ENCODING 1711
SWIDTH 800 0
DWIDTH 20 0
BBX 20 17 0 4
BITMAP
000020
0001E0
0003C0
000E20
0019E0
000780
000E00
001800
001C00
001E00
400F00
800180
8000C0
800060
C00030
FFFFF0
3FFFF0
ENDCHAR
STARTCHAR 06B0
ENCODING 1712
SWIDTH 800 0
DWIDTH 20 0
BBX 20 17 0 4
BITMAP
000020
0001E0
0003C0
000E20
0019E0
0007E0
000F20
0019C0
001C00
001E00
400F00
800180
8000C0
800060
C00030
FFFFF0
3FFFF0
ENDCHAR
STARTCHAR 06B1
ENCODING 1713
SWIDTH 800 0
DWIDTH 20 0
BBX 20 18 0 4
BITMAP
000600
001E20
0019E0
0003C0
000E20
0019E0
000780
000E00
001800
001C00
001E00
400F00
800180
8000C0
800060
C00030
FFFFF0
3FFFF0
ENDCHAR
STARTCHAR 06B2
ENCODING 1714
SWIDTH 800 0
DWIDTH 20 0
BBX 20 23 0 -2
BITMAP
000020
0001E0
0003C0
000E20
0019E0
000780
000E00
001800
001C00
001E00
400F00
800180
8000C0
800060
C00030
FFFFF0
3FFFF0
000000
000000
001000
00B800
01D000
008000
ENDCHAR
STARTCHAR 06B3
ENCODING 1715
SWIDTH 800 0
DWIDTH 20 0
BBX 20 25 0 -4
BITMAP
000020
0001E0
0003C0
000E20
0019E0
000780
000E00
001800
001C00
001E00
400F00
800180
8000C0
800060
C00030
FFFFF0
3FFFF0
000000
000000
004000
00E000
004000
002000
007000
002000
ENDCHAR
STARTCHAR 06B4
ENCODING 1716
SWIDTH 800 0
DWIDTH 20 0
BBX 20 18 0 4
BITMAP
000C00
000F20
001BE0
001BC0
000E20
0019E0
000780
000E00
001800
001C00
001E00
400F00
800180
8000C0
800060
C00030
FFFFF0
3FFFF0
ENDCHAR
STARTCHAR 06B5
ENCODING 1717
SWIDTH 520 0
DWIDTH 13 0
BBX 12 23 1 0
BITMAP
01B0
00A0
0040
0000
0000
0070
0030
0020
0020
0020
0020
0020
2010
4010
4010
8010
8010
8010
8010
C030
E0E0
7FE0
3F80
ENDCHAR
STARTCHAR 06B6
ENCODING 1718
SWIDTH 520 0
DWIDTH 13 0
BBX 12 22 1 0
BITMAP
0020
0070
0020
0000
0070
0030
0020
0020
0020
0020
0020
2010
4010
4010
8010
8010
8010
8010
C030
E0E0
7FE0
3F80
ENDCHAR
STARTCHAR 06B7
ENCODING 1719
SWIDTH 520 0
DWIDTH 13 0
BBX 12 22 1 0
BITMAP
00C0
00F0
01B0
0180
0070
0030
0020
0020
0020
0020
0020
2010
4010
4010
8010
8010
8010
8010
C030
E0E0
7FE0
3F80
ENDCHAR
STARTCHAR 06B8
ENCODING 1720
SWIDTH 520 0
DWIDTH 13 0
BBX 12 25 1 -5
BITMAP
0040
0060
0070
0030
0020
0020
0020
0020
0020
2010
4010
4010
8010
8010
8010
8010
C030
E0E0
7FE0
3F80
0000
0300
0A00
0D00
0300
ENDCHAR
STARTCHAR 06B9
ENCODING 1721
SWIDTH 520 0
DWIDTH 13 0
BBX 12 20 1 -5
BITMAP
0200
0700
0200
0000
0020
0020
0030
4010
4010
8010
8010
8010
8010
8030
C0E0
7FC0
3F80
0200
0700
0200
ENDCHAR
STARTCHAR 06BA
ENCODING 1722
SWIDTH 520 0
DWIDTH 13 0
BBX 12 13 1 -2
BITMAP
0020
0020
0030
6010
4010
4010
8010
8010
8010
8030
C0E0
7FC0
3F80
ENDCHAR
STARTCHAR 06BB
ENCODING 1723
SWIDTH 520 0
DWIDTH 13 0
BBX 12 22 1 -2
BITMAP
0800
0C00
0800
0400
0400
05C0
0640
3FC0
0000
0020
0020
0030
6010
4010
4010
8010
8010
8010
8030
C0E0
7FC0
3F80
ENDCHAR
STARTCHAR 06BC
ENCODING 1724
SWIDTH 520 0
DWIDTH 13 0
BBX 12 20 1 -5
BITMAP
0200
0700
0200
0000
0020
0020
0030
4010
4010
8010
8010
8010
8010
8030
C0E0
7FC0
3F80
0B00
0900
0E00
ENDCHAR
STARTCHAR 06BD
ENCODING 1725
SWIDTH 520 0
DWIDTH 13 0
BBX 12 20 1 -2
BITMAP
0800
1C00
0900
0B80
1D00
0800
0000
0020
0020
0030
6010
4010
4010
8010
8010
8010
8030
C0E0
7FC0
3F80
ENDCHAR
STARTCHAR 06BE
ENCODING 1726
SWIDTH 440 0
DWIDTH 11 0
BBX 10 10 -1 4
BITMAP
0400
0600
0E00
0F00
1380
1380
1AC0
0C40
FFC0
F180
ENDCHAR
STARTCHAR 06BF
ENCODING 1727
SWIDTH 560 0
DWIDTH 14 0
BBX 11 21 1 -5
BITMAP
0400
0E00
0400
0000
0000
0000
7FE0
FFE0
0F00
1800
2000
4080
85C0
8E80
8500
8380
C100
E000
7800
3FE0
0FC0
ENDCHAR
STARTCHAR 06C0
ENCODING 1728
SWIDTH 280 0
DWIDTH 7 0
BBX 5 13 1 4
BITMAP
30
40
30
40
00
40
70
78
98
88
98
F8
F0
ENDCHAR
STARTCHAR 06C1
ENCODING 1729
SWIDTH 400 0
DWIDTH 10 0
BBX 10 6 0 2
BITMAP
0E00
1F00
33C0
61C0
4000
8000
ENDCHAR
STARTCHAR 06C2
ENCODING 1730
SWIDTH 400 0
DWIDTH 10 0
BBX 10 11 0 2
BITMAP
0C00
1000
0C00
1000
0000
0E00
1F00
33C0
61C0
4000
8000
ENDCHAR
STARTCHAR 06C3
ENCODING 1731
SWIDTH 400 0
DWIDTH 10 0
BBX 10 12 0 2
BITMAP
0200
1700
3A00
1000
0000
0000
0E00
1F00
33C0
61C0
4000
8000
ENDCHAR
STARTCHAR 06C4
ENCODING 1732
SWIDTH 440 0
DWIDTH 11 0
BBX 10 12 1 -2
BITMAP
0180
03C0
02C0
0240
03C0
01C0
0040
06C0
0B80
0B80
8F00
7E00
ENDCHAR
STARTCHAR 06C5
ENCODING 1733
SWIDTH 440 0
DWIDTH 11 0
BBX 10 12 1 -2
BITMAP
0180
03C0
0240
0240
03C0
01C0
1C40
07C0
0180
0380
8700
7E00
ENDCHAR
STARTCHAR 06C6
ENCODING 1734
SWIDTH 440 0
DWIDTH 11 0
BBX 10 17 1 -2
BITMAP
06C0
0280
0100
0000
0000
0180
03C0
02C0
0240
03C0
01C0
0040
00C0
0180
0380
8700
7E00
ENDCHAR
STARTCHAR 06C7
ENCODING 1735
SWIDTH 440 0
DWIDTH 11 0
BBX 10 18 1 -2
BITMAP
00C0
0140
01C0
00C0
0300
0000
0180
03C0
02C0
0240
03C0
01C0
0040
00C0
0180
0380
8700
7E00
ENDCHAR
STARTCHAR 06C8
ENCODING 1736
SWIDTH 440 0
DWIDTH 11 0
BBX 10 19 1 -2
BITMAP
0200
0300
0100
0100
0100
0100
0000
0180
03C0
02C0
0240
03C0
01C0
0040
00C0
0180
0380
8700
7E00
ENDCHAR
STARTCHAR 06C9
ENCODING 1737
SWIDTH 440 0
DWIDTH 11 0
BBX 10 17 1 -2
BITMAP
0100
0280
06C0
0000
0000
0180
03C0
02C0
0240
03C0
01C0
0040
00C0
0180
0380
8700
7E00
ENDCHAR
STARTCHAR 06CA
ENCODING 1738
SWIDTH 440 0
DWIDTH 11 0
BBX 10 18 1 -2
BITMAP
0080
05C0
0E80
0400
0000
0000
0180
03C0
02C0
0240
03C0
01C0
0040
00C0
0180
0380
8700
7E00
ENDCHAR
STARTCHAR 06CB
ENCODING 1739
SWIDTH 440 0
DWIDTH 11 0
BBX 10 20 1 -2
BITMAP
0400
0E00
0480
05C0
0E80
0400
0000
0000
0180
03C0
02C0
0240
03C0
01C0
0040
00C0
0180
0380
8700
7E00
ENDCHAR
STARTCHAR 06CC
ENCODING 1740
SWIDTH 640 0
DWIDTH 16 0
BBX 15 13 1 -1
BITMAP
000C
003E
0022
0040
2080
4080
40FC
80FC
8004
8018
C0F8
FFE0
3F80
ENDCHAR
STARTCHAR 06CD
ENCODING 1741
SWIDTH 640 0
DWIDTH 16 0
BBX 16 13 0 -1
BITMAP
0007
001F
0011
0020
1040
6040
A07E
407E
4002
400C
607C
7FF0
1FC0
ENDCHAR
STARTCHAR 06CE
ENCODING 1742
SWIDTH 640 0
DWIDTH 16 0
BBX 15 14 1 -1
BITMAP
1B00
0A0C
043E
0022
0040
2080
4080
40FC
80FC
8004
8018
C0F8
FFE0
3F80
ENDCHAR
STARTCHAR 06CF
ENCODING 1743
SWIDTH 440 0
DWIDTH 11 0
BBX 10 17 1 -2
BITMAP
0100
0380
0100
0000
0000
0180
03C0
02C0
0240
03C0
01C0
0040
00C0
0180
0380
8700
7E00
ENDCHAR
STARTCHAR 06D0
ENCODING 1744
SWIDTH 640 0
DWIDTH 16 0
BBX 15 16 1 -4
BITMAP
000C
003E
0022
0040
2080
4080
40FC
80FC
8004
8018
C0F8
FFE0
3F80
0000
0600
0600
ENDCHAR
STARTCHAR 06D1
ENCODING 1745
SWIDTH 640 0
DWIDTH 16 0
BBX 15 16 1 -4
BITMAP
000C
003E
0022
0040
2080
4080
40FC
80FC
8004
8018
C0F8
FFE0
3F80
0000
0500
0200
ENDCHAR
STARTCHAR 06D2
ENCODING 1746
SWIDTH 800 0
DWIDTH 20 0
BBX 18 10 1 -1
BITMAP
00C000
01E000
032000
0E2000
1C0000
780000
600000
800000
FFFFC0
FFFF80
ENDCHAR
STARTCHAR 06D3
ENCODING 1747
SWIDTH 800 0
DWIDTH 20 0
BBX 18 14 1 -1
BITMAP
060000
080000
060000
080000
00C000
01E000
032000
0E2000
1C0000
780000
600000
800000
FFFFC0
FFFF80
ENDCHAR
STARTCHAR 06D4
ENCODING 1748
SWIDTH 200 0
DWIDTH 5 0
BBX 4 2 0 4
BITMAP
F0
F0
ENDCHAR
STARTCHAR 06D5
ENCODING 1749
SWIDTH 280 0
DWIDTH 7 0
BBX 5 8 1 4
BITMAP
40
70
78
98
88
98
F8
F0
ENDCHAR
STARTCHAR 06D6
ENCODING 1750
SWIDTH 0 0
DWIDTH 0 0
BBX 12 9 -6 13
BITMAP
2000
3800
1000
0A30
0AD0
3FF0
4000
8000
FFC0
ENDCHAR
STARTCHAR 06D7
ENCODING 1751
SWIDTH 0 0
DWIDTH 0 0
BBX 9 9 -4 13
BITMAP
4200
7400
2200
2500
1700
1100
7F00
8000
FF80
ENDCHAR
STARTCHAR 06D8
ENCODING 1752
SWIDTH 0 0
DWIDTH 0 0
BBX 5 3 -3 13
BITMAP
10
28
D8
ENDCHAR
STARTCHAR 06D9
ENCODING 1753
SWIDTH 0 0
DWIDTH 0 0
BBX 6 8 -3 13
BITMAP
98
CC
48
28
28
10
28
38
ENDCHAR
STARTCHAR 06DA
ENCODING 1754
SWIDTH 0 0
DWIDTH 0 0
BBX 6 8 -3 13
BITMAP
FC
30
40
90
80
80
40
38
ENDCHAR
STARTCHAR 06DB
ENCODING 1755
SWIDTH 0 0
DWIDTH 0 0
BBX 2 2 -1 13
BITMAP
80
C0
ENDCHAR
STARTCHAR 06DC
ENCODING 1756
SWIDTH 0 0
DWIDTH 0 0
BBX 10 6 -5 13
BITMAP
4940
8940
8FC0
8800
9000
6000
ENDCHAR
STARTCHAR 06DD
ENCODING 1757
SWIDTH 1120 0
DWIDTH 28 0
BBX 26 27 1 -5
BITMAP
007F8000
07807800
05FFE800
0E001C00
18000600
30000200
20000100
60000180
40000080
40000080
80000040
80000040
80000040
80000040
80000040
80000040
80000040
40000080
40000080
60000180
20000100
30000200
18000600
0E001C00
05FFE800
07807800
007F8000
ENDCHAR
STARTCHAR 06DE
ENCODING 1758
SWIDTH 1080 0
DWIDTH 27 0
BBX 27 27 0 -5
BITMAP
00040000
000A0000
00110000
00208000
0FFFFE00
08802200
09001200
0A000A00
0C000600
08000200
18000300
280E0280
48110240
88110220
48110240
280E0280
18000300
08000200
0C000600
0A000A00
09001200
08802200
0FFFFE00
00218000
00110000
000A0000
00040000
ENDCHAR
STARTCHAR 06DF
ENCODING 1759
SWIDTH 0 0
DWIDTH 0 0
BBX 2 2 -1 13
BITMAP
C0
C0
ENDCHAR
STARTCHAR 06E0
ENCODING 1760
SWIDTH 0 0
DWIDTH 0 0
BBX 2 2 -1 13
BITMAP
C0
C0
ENDCHAR
STARTCHAR 06E1
ENCODING 1761
SWIDTH 0 0
DWIDTH 0 0
BBX 7 3 -3 13
BITMAP
70
08
FE
ENDCHAR
STARTCHAR 06E2
ENCODING 1762
SWIDTH 0 0
DWIDTH 0 0
BBX 4 7 -2 13
BITMAP
60
50
70
80
80
40
40
ENDCHAR
STARTCHAR 06E3
ENCODING 1763
SWIDTH 0 0
DWIDTH 0 0
BBX 10 6 -5 -5
BITMAP
4940
8940
8FC0
8800
9000
6000
ENDCHAR
STARTCHAR 06E4
ENCODING 1764
SWIDTH 0 0
DWIDTH 0 0
BBX 2 1 -1 13
BITMAP
C0
ENDCHAR
STARTCHAR 06E5
ENCODING 1765
SWIDTH 200 0
DWIDTH 5 0
BBX 4 6 1 13
BITMAP
30
50
70
10
30
C0
ENDCHAR
STARTCHAR 06E6
ENCODING 1766
SWIDTH 360 0
DWIDTH 9 0
BBX 8 5 0 13
BITMAP
10
28
60
80
FF
ENDCHAR
STARTCHAR 06E7
ENCODING 1767
SWIDTH 0 0
DWIDTH 0 0
BBX 8 5 -5 13
BITMAP
10
28
60
80
FF
ENDCHAR
STARTCHAR 06E8
ENCODING 1768
SWIDTH 0 0
DWIDTH 0 0
BBX 6 7 -3 13
BITMAP
20
08
4C
84
84
84
78
ENDCHAR
STARTCHAR 06E9
ENCODING 1769
SWIDTH 600 0
DWIDTH 15 0
BBX 17 20 -1 0
BITMAP
008000
036000
049000
0B6800
349600
5B6D00
AC1A80
522500
2A2B00
2A2A00
2A2A00
2A2A00
2A2A00
2A2A00
2A2A00
2BEA00
280A00
4FF900
400100
FFFF80
ENDCHAR
STARTCHAR 06EA
ENCODING 1770
SWIDTH 0 0
DWIDTH 0 0
BBX 3 4 -2 -4
BITMAP
40
A0
A0
40
ENDCHAR
STARTCHAR 06EB
ENCODING 1771
SWIDTH 0 0
DWIDTH 0 0
BBX 3 4 -2 13
BITMAP
40
A0
A0
40
ENDCHAR
STARTCHAR 06EC
ENCODING 1772
SWIDTH 0 0
DWIDTH 0 0
BBX 2 2 -1 13
BITMAP
C0
C0
ENDCHAR
STARTCHAR 06ED
ENCODING 1773
SWIDTH 0 0
DWIDTH 0 0
BBX 4 7 -2 -5
BITMAP
60
50
70
80
80
40
40
ENDCHAR
STARTCHAR 06F0
ENCODING 1776
SWIDTH 520 0
DWIDTH 13 0
BBX 4 6 5 5
BITMAP
40
60
F0
F0
60
20
ENDCHAR
STARTCHAR 06F1
ENCODING 1777
SWIDTH 520 0
DWIDTH 13 0
BBX 4 14 4 4
BITMAP
80
C0
E0
E0
70
30
30
30
10
10
10
10
10
10
ENDCHAR
STARTCHAR 06F2
ENCODING 1778
SWIDTH 520 0
DWIDTH 13 0
BBX 7 14 3 4
BITMAP
82
82
C6
7E
7C
30
30
18
18
18
18
08
08
08
ENDCHAR
STARTCHAR 06F3
ENCODING 1779
SWIDTH 520 0
DWIDTH 13 0
BBX 10 14 2 4
BITMAP
8440
CCC0
FFC0
FB80
6000
7000
3000
3000
3000
1000
1000
1000
1000
1000
ENDCHAR
STARTCHAR 06F4
ENCODING 1780
SWIDTH 520 0
DWIDTH 13 0
BBX 9 14 3 4
BITMAP
8E00
9800
D080
F180
7F00
7E00
6000
7000
3000
3000
3000
2000
2000
2000
ENDCHAR
STARTCHAR 06F5
ENCODING 1781
SWIDTH 520 0
DWIDTH 13 0
BBX 9 14 2 4
BITMAP
0800
0C00
0C00
0E00
0F00
1300
2300
2180
4080
C080
C480
FF80
FF00
7E00
ENDCHAR
STARTCHAR 06F6
ENCODING 1782
SWIDTH 520 0
DWIDTH 13 0
BBX 9 14 2 4
BITMAP
0C00
3E00
6000
4000
E080
FF80
7E00
0C00
1800
1800
3000
3000
2000
2000
ENDCHAR
STARTCHAR 06F7
ENCODING 1783
SWIDTH 520 0
DWIDTH 13 0
BBX 11 14 1 4
BITMAP
8020
C040
C040
E0C0
60C0
3180
3100
1900
0A00
0A00
0C00
0400
0400
0400
ENDCHAR
STARTCHAR 06F8
ENCODING 1784
SWIDTH 520 0
DWIDTH 13 0
BBX 11 14 1 4
BITMAP
0400
0400
0400
0C00
0E00
0A00
1300
1380
3180
61C0
E0E0
C0E0
C060
8020
ENDCHAR
STARTCHAR 06F9
ENCODING 1785
SWIDTH 520 0
DWIDTH 13 0
BBX 7 14 3 4
BITMAP
38
7C
4C
84
84
FC
7C
04
04
04
06
06
06
02
ENDCHAR
STARTCHAR 06FA
ENCODING 1786
SWIDTH 840 0
DWIDTH 21 0
BBX 20 20 1 -2
BITMAP
000400
000E00
000480
0005C0
000E80
000400
000000
002020
0020B0
0030B0
401090
401090
801FF0
801F70
801000
801000
802080
C0E1C0
7FC080
3F0000
ENDCHAR
STARTCHAR 06FB
ENCODING 1787
SWIDTH 1080 0
DWIDTH 27 0
BBX 26 18 1 -2
BITMAP
00008000
0001C000
00008000
00000000
00000000
00200780
00201FC0
003031C0
4010C0C0
401180C0
801FFFC0
801FFFC0
80100000
80100000
80201000
C0E03800
7FC01000
3F000000
ENDCHAR
STARTCHAR 06FC
ENCODING 1788
SWIDTH 560 0
DWIDTH 14 0
BBX 11 24 1 -5
BITMAP
1000
3800
1000
0000
0000
3800
7E00
E000
8000
80C0
E3C0
7F00
3C00
3000
6000
4000
8100
8380
8100
8000
C000
7000
3FE0
0FC0
ENDCHAR
STARTCHAR 06FD
ENCODING 1789
SWIDTH 400 0
DWIDTH 10 0
BBX 8 14 1 -3
BITMAP
18
3C
48
C0
E3
FE
3C
30
00
14
14
14
14
14
ENDCHAR
STARTCHAR 06FE
ENCODING 1790
SWIDTH 320 0
DWIDTH 8 0
BBX 8 15 0 -5
BITMAP
1C
3E
26
03
1F
7F
E0
80
8A
8A
CA
4A
4A
40
40
ENDCHAR
STARTCHAR 1E80
ENCODING 7808
SWIDTH 960 0
DWIDTH 24 0
BBX 24 23 0 0
BITMAP
003000
001000
000800
000800
000000
000000
FCFC1F
38380C
38380C
181808
181808
181C10
0C1C10
0C1C10
062620
062620
062620
034340
034340
034340
018180
018180
018180
ENDCHAR
STARTCHAR 1E81
ENCODING 7809
SWIDTH 720 0
DWIDTH 18 0
BBX 18 18 0 0
BITMAP
018000
008000
004000
004000
000000
000000
FBF3C0
60C180
30C100
30C100
30E200
196200
193200
1A3400
0E1400
0C1800
0C1800
040800
ENDCHAR
STARTCHAR 1E82
ENCODING 7810
SWIDTH 960 0
DWIDTH 24 0
BBX 24 23 0 0
BITMAP
000C00
000800
001000
001000
000000
000000
FCFC1F
38380C
38380C
181808
181808
181C10
0C1C10
0C1C10
062620
062620
062620
034340
034340
034340
018180
018180
018180
ENDCHAR
STARTCHAR 1E83
ENCODING 7811
SWIDTH 720 0
DWIDTH 18 0
BBX 18 18 0 0
BITMAP
006000
004000
008000
008000
000000
000000
FBF3C0
60C180
30C100
30C100
30E200
196200
193200
1A3400
0E1400
0C1800
0C1800
040800
ENDCHAR
STARTCHAR 1E84
ENCODING 7812
SWIDTH 960 0
DWIDTH 24 0
BBX 24 21 0 0
BITMAP
006600
006600
000000
000000
FCFC1F
38380C
38380C
181808
181808
181C10
0C1C10
0C1C10
062620
062620
062620
034340
034340
034340
018180
018180
018180
ENDCHAR
STARTCHAR 1E85
ENCODING 7813
SWIDTH 720 0
DWIDTH 18 0
BBX 18 16 0 0
BITMAP
033000
033000
000000
000000
FBF3C0
60C180
30C100
30C100
30E200
196200
193200
1A3400
0E1400
0C1800
0C1800
040800
ENDCHAR
STARTCHAR 1EA0
ENCODING 7840
SWIDTH 720 0
DWIDTH 18 0
BBX 18 20 0 -3
BITMAP
004000
00C000
00E000
016000
016000
023000
023000
023000
041800
041800
0FFC00
080C00
080C00
100600
100600
300700
FC0FC0
000000
00C000
00C000
ENDCHAR
STARTCHAR 1EA1
ENCODING 7841
SWIDTH 440 0
DWIDTH 11 0
BBX 10 15 1 -3
BITMAP
3C00
4200
C300
C300
0700
1B00
6300
C300
C300
C300
E740
7B80
0000
1800
1800
ENDCHAR
STARTCHAR 1EA2
ENCODING 7842
SWIDTH 720 0
DWIDTH 18 0
BBX 18 22 0 0
BITMAP
01E000
012000
004000
008000
000000
004000
00C000
00E000
016000
016000
023000
023000
023000
041800
041800
0FFC00
080C00
080C00
100600
100600
300700
FC0FC0
ENDCHAR
STARTCHAR 1EA3
ENCODING 7843
SWIDTH 440 0
DWIDTH 11 0
BBX 10 18 1 0
BITMAP
3C00
2400
0800
1000
0000
0000
3C00
4200
C300
C300
0700
1B00
6300
C300
C300
C300
E740
7B80
ENDCHAR
STARTCHAR 1EA4
ENCODING 7844
SWIDTH 720 0
DWIDTH 18 0
BBX 18 22 0 0
BITMAP
004000
008000
01E000
021000
000000
004000
00C000
00E000
016000
016000
023000
023000
023000
041800
041800
0FFC00
080C00
080C00
100600
100600
300700
FC0FC0
ENDCHAR
STARTCHAR 1EA5
ENCODING 7845
SWIDTH 440 0
DWIDTH 11 0
BBX 10 23 1 0
BITMAP
0C00
0800
1000
1000
0000
1C00
3600
2200
4100
0000
0000
3C00
4200
C300
C300
0700
1B00
6300
C300
C300
C300
E740
7B80
ENDCHAR
STARTCHAR 1EA6
ENCODING 7846
SWIDTH 720 0
DWIDTH 18 0
BBX 18 22 0 0
BITMAP
008000
004000
01E000
021000
000000
004000
00C000
00E000
016000
016000
023000
023000
023000
041800
041800
0FFC00
080C00
080C00
100600
100600
300700
FC0FC0
ENDCHAR
STARTCHAR 1EA7
ENCODING 7847
SWIDTH 440 0
DWIDTH 11 0
BBX 10 23 1 0
BITMAP
3000
1000
0800
0800
0000
1C00
3600
2200
4100
0000
0000
3C00
4200
C300
C300
0700
1B00
6300
C300
C300
C300
E740
7B80
ENDCHAR
STARTCHAR 1EA8
ENCODING 7848
SWIDTH 720 0
DWIDTH 18 0
BBX 18 22 0 0
BITMAP
01E000
002000
01E000
021000
000000
004000
00C000
00E000
016000
016000
023000
023000
023000
041800
041800
0FFC00
080C00
080C00
100600
100600
300700
FC0FC0
ENDCHAR
STARTCHAR 1EA9
ENCODING 7849
SWIDTH 440 0
DWIDTH 11 0
BBX 10 22 1 0
BITMAP
1E00
1200
0400
0800
1C00
3600
2200
4100
0000
0000
3C00
4200
C300
C300
0700
1B00
6300
C300
C300
C300
E740
7B80
ENDCHAR
STARTCHAR 1EAA
ENCODING 7850
SWIDTH 720 0
DWIDTH 18 0
BBX 18 22 0 0
BITMAP
038800
047000
01E000
021000
000000
004000
00C000
00E000
016000
016000
023000
023000
023000
041800
041800
0FFC00
080C00
080C00
100600
100600
300700
FC0FC0
ENDCHAR
STARTCHAR 1EAB
ENCODING 7851
SWIDTH 440 0
DWIDTH 11 0
BBX 10 21 1 0
BITMAP
7880
8700
0000
1C00
3600
2200
4100
0000
0000
3C00
4200
C300
C300
0700
1B00
6300
C300
C300
C300
E740
7B80
ENDCHAR
STARTCHAR 1EAC
ENCODING 7852
SWIDTH 720 0
DWIDTH 18 0
BBX 18 23 0 -3
BITMAP
01E000
021000
000000
004000
00C000
00E000
016000
016000
023000
023000
023000
041800
041800
0FFC00
080C00
080C00
100600
100600
300700
FC0FC0
000000
00C000
00C000
ENDCHAR
STARTCHAR 1EAD
ENCODING 7853
SWIDTH 440 0
DWIDTH 11 0
BBX 10 21 1 -3
BITMAP
1C00
3600
2200
4100
0000
0000
3C00
4200
C300
C300
0700
1B00
6300
C300
C300
C300
E740
7B80
0000
1800
1800
ENDCHAR
STARTCHAR 1EAE
ENCODING 7854
SWIDTH 720 0
DWIDTH 18 0
BBX 18 23 0 0
BITMAP
004000
008000
000000
000000
020800
01F000
004000
00C000
00E000
016000
016000
023000
023000
023000
041800
041800
0FFC00
080C00
080C00
100600
100600
300700
FC0FC0
ENDCHAR
STARTCHAR 1EAF
ENCODING 7855
SWIDTH 440 0
DWIDTH 11 0
BBX 10 23 1 0
BITMAP
0C00
0800
1000
1000
0000
0000
4200
7E00
3C00
0000
0000
3C00
4200
C300
C300
0700
1B00
6300
C300
C300
C300
E740
7B80
ENDCHAR
STARTCHAR 1EB0
ENCODING 7856
SWIDTH 720 0
DWIDTH 18 0
BBX 18 23 0 0
BITMAP
008000
004000
000000
000000
020800
01F000
004000
00C000
00E000
016000
016000
023000
023000
023000
041800
041800
0FFC00
080C00
080C00
100600
100600
300700
FC0FC0
ENDCHAR
STARTCHAR 1EB1
ENCODING 7857
SWIDTH 440 0
DWIDTH 11 0
BBX 10 23 1 0
BITMAP
6000
2000
1000
1000
0000
0000
4200
7E00
3C00
0000
0000
3C00
4200
C300
C300
0700
1B00
6300
C300
C300
C300
E740
7B80
ENDCHAR
STARTCHAR 1EB2
ENCODING 7858
SWIDTH 720 0
DWIDTH 18 0
BBX 18 23 0 0
BITMAP
00F000
001000
006000
000000
020800
01F000
004000
00C000
00E000
016000
016000
023000
023000
023000
041800
041800
0FFC00
080C00
080C00
100600
100600
300700
FC0FC0
ENDCHAR
STARTCHAR 1EB3
ENCODING 7859
SWIDTH 440 0
DWIDTH 11 0
BBX 10 22 1 0
BITMAP
3C00
2400
0800
1000
0000
4200
7E00
3C00
0000
0000
3C00
4200
C300
C300
0700
1B00
6300
C300
C300
C300
E740
7B80
ENDCHAR
STARTCHAR 1EB4
ENCODING 7860
SWIDTH 720 0
DWIDTH 18 0
BBX 18 23 0 0
BITMAP
01C400
023800
000000
000000
020800
01F000
004000
00C000
00E000
016000
016000
023000
023000
023000
041800
041800
0FFC00
080C00
080C00
100600
100600
300700
FC0FC0
ENDCHAR
STARTCHAR 1EB5
ENCODING 7861
SWIDTH 440 0
DWIDTH 11 0
BBX 10 21 1 0
BITMAP
7880
8700
0000
0000
4200
7E00
3C00
0000
0000
3C00
4200
C300
C300
0700
1B00
6300
C300
C300
C300
E740
7B80
ENDCHAR
STARTCHAR 1EB6
ENCODING 7862
SWIDTH 720 0
DWIDTH 18 0
BBX 18 22 0 -3
BITMAP
020800
01F000
004000
00C000
00E000
016000
016000
023000
023000
023000
041800
041800
0FFC00
080C00
080C00
100600
100600
300700
FC0FC0
000000
00C000
00C000
ENDCHAR
STARTCHAR 1EB7
ENCODING 7863
SWIDTH 440 0
DWIDTH 11 0
BBX 10 20 1 -3
BITMAP
4200
7E00
3C00
0000
0000
3C00
4200
C300
C300
0700
1B00
6300
C300
C300
C300
E740
7B80
0000
1800
1800
ENDCHAR
STARTCHAR 1EB8
ENCODING 7864
SWIDTH 600 0
DWIDTH 15 0
BBX 13 20 1 -3
BITMAP
FFF0
3030
3010
3010
3000
3000
3040
3040
3FC0
3040
3040
3000
3000
3008
3018
3030
FFF0
0000
0300
0300
ENDCHAR
STARTCHAR 1EB9
ENCODING 7865
SWIDTH 440 0
DWIDTH 11 0
BBX 9 15 1 -3
BITMAP
1E00
2300
4180
8180
FF80
8000
8000
8000
C080
6180
7F00
1E00
0000
0C00
0C00
ENDCHAR
STARTCHAR 1EBA
ENCODING 7866
SWIDTH 600 0
DWIDTH 15 0
BBX 13 22 1 0
BITMAP
0780
0480
0100
0200
0000
FFF0
3030
3010
3010
3000
3000
3040
3040
3FC0
3040
3040
3000
3000
3008
3018
3030
FFF0
ENDCHAR
STARTCHAR 1EBB
ENCODING 7867
SWIDTH 440 0
DWIDTH 11 0
BBX 9 18 1 0
BITMAP
1E00
1200
0400
0800
0000
0000
1E00
2300
4180
8180
FF80
8000
8000
8000
C080
6180
7F00
1E00
ENDCHAR
STARTCHAR 1EBC
ENCODING 7868
SWIDTH 600 0
DWIDTH 15 0
BBX 13 22 1 0
BITMAP
0E20
1320
11C0
0000
0000
FFF0
3030
3010
3010
3000
3000
3040
3040
3FC0
3040
3040
3000
3000
3008
3018
3030
FFF0
ENDCHAR
STARTCHAR 1EBD
ENCODING 7869
SWIDTH 440 0
DWIDTH 11 0
BBX 9 17 1 0
BITMAP
3880
4C80
4700
0000
0000
1E00
2300
4180
8180
FF80
8000
8000
8000
C080
6180
7F00
1E00
ENDCHAR
STARTCHAR 1EBE
ENCODING 7870
SWIDTH 600 0
DWIDTH 15 0
BBX 13 22 1 0
BITMAP
0100
0200
0780
0840
0000
FFF0
3030
3010
3010
3000
3000
3040
3040
3FC0
3040
3040
3000
3000
3008
3018
3030
FFF0
ENDCHAR
STARTCHAR 1EBF
ENCODING 7871
SWIDTH 440 0
DWIDTH 11 0
BBX 9 23 1 0
BITMAP
0600
0400
0800
0800
0000
1C00
3600
2200
4100
0000
0000
1E00
2300
4180
8180
FF80
8000
8000
8000
C080
6180
7F00
1E00
ENDCHAR
STARTCHAR 1EC0
ENCODING 7872
SWIDTH 600 0
DWIDTH 15 0
BBX 13 22 1 0
BITMAP
0200
0100
0780
0840
0000
FFF0
3030
3010
3010
3000
3000
3040
3040
3FC0
3040
3040
3000
3000
3008
3018
3030
FFF0
ENDCHAR
STARTCHAR 1EC1
ENCODING 7873
SWIDTH 440 0
DWIDTH 11 0
BBX 9 23 1 0
BITMAP
1800
0800
0400
0400
0000
1C00
3600
2200
4100
0000
0000
1E00
2300
4180
8180
FF80
8000
8000
8000
C080
6180
7F00
1E00
ENDCHAR
STARTCHAR 1EC2
ENCODING 7874
SWIDTH 600 0
DWIDTH 15 0
BBX 13 22 1 0
BITMAP
0780
0080
0780
0840
0000
FFF0
3030
3010
3010
3000
3000
3040
3040
3FC0
3040
3040
3000
3000
3008
3018
3030
FFF0
ENDCHAR
STARTCHAR 1EC3
ENCODING 7875
SWIDTH 440 0
DWIDTH 11 0
BBX 9 22 1 0
BITMAP
1E00
1200
0400
0800
1C00
3600
2200
4100
0000
0000
1E00
2300
4180
8180
FF80
8000
8000
8000
C080
6180
7F00
1E00
ENDCHAR
STARTCHAR 1EC4
ENCODING 7876
SWIDTH 600 0
DWIDTH 15 0
BBX 13 22 1 0
BITMAP
0E20
11C0
0780
0840
0000
FFF0
3030
3010
3010
3000
3000
3040
3040
3FC0
3040
3040
3000
3000
3008
3018
3030
FFF0
ENDCHAR
STARTCHAR 1EC5
ENCODING 7877
SWIDTH 440 0
DWIDTH 11 0
BBX 9 21 1 0
BITMAP
7880
8700
0000
1C00
3600
2200
4100
0000
0000
1E00
2300
4180
8180
FF80
8000
8000
8000
C080
6180
7F00
1E00
ENDCHAR
STARTCHAR 1EC6
ENCODING 7878
SWIDTH 600 0
DWIDTH 15 0
BBX 13 23 1 -3
BITMAP
0780
0840
0000
FFF0
3030
3010
3010
3000
3000
3040
3040
3FC0
3040
3040
3000
3000
3008
3018
3030
FFF0
0000
0300
0300
ENDCHAR
STARTCHAR 1EC7
ENCODING 7879
SWIDTH 440 0
DWIDTH 11 0
BBX 9 21 1 -3
BITMAP
1C00
3600
2200
4100
0000
0000
1E00
2300
4180
8180
FF80
8000
8000
8000
C080
6180
7F00
1E00
0000
0C00
0C00
ENDCHAR
STARTCHAR 1EC8
ENCODING 7880
SWIDTH 320 0
DWIDTH 8 0
BBX 6 22 1 0
BITMAP
78
48
10
20
00
FC
30
30
30
30
30
30
30
30
30
30
30
30
30
30
30
FC
ENDCHAR
STARTCHAR 1EC9
ENCODING 7881
SWIDTH 240 0
DWIDTH 6 0
BBX 6 18 0 0
BITMAP
78
48
10
20
00
00
30
F0
30
30
30
30
30
30
30
30
30
FC
ENDCHAR
STARTCHAR 1ECA
ENCODING 7882
SWIDTH 320 0
DWIDTH 8 0
BBX 6 20 1 -3
BITMAP
FC
30
30
30
30
30
30
30
30
30
30
30
30
30
30
30
FC
00
30
30
ENDCHAR
STARTCHAR 1ECB
ENCODING 7883
SWIDTH 240 0
DWIDTH 6 0
BBX 6 21 0 -3
BITMAP
30
30
00
00
00
00
30
F0
30
30
30
30
30
30
30
30
30
FC
00
30
30
ENDCHAR
STARTCHAR 1ECC
ENCODING 7884
SWIDTH 720 0
DWIDTH 18 0
BBX 16 20 1 -3
BITMAP
07E0
1838
300C
6006
6006
C003
C003
C003
C003
C003
C003
C003
6006
6006
300C
1838
07E0
0000
0180
0180
ENDCHAR
STARTCHAR 1ECD
ENCODING 7885
SWIDTH 520 0
DWIDTH 13 0
BBX 11 15 1 -3
BITMAP
1F00
2180
60C0
40E0
C060
C060
C060
C060
E040
60C0
3080
1F00
0000
0600
0600
ENDCHAR
STARTCHAR 1ECE
ENCODING 7886
SWIDTH 720 0
DWIDTH 18 0
BBX 16 22 1 0
BITMAP
01E0
0120
0040
0080
0000
07E0
1838
300C
6006
6006
C003
C003
C003
C003
C003
C003
C003
6006
6006
300C
1838
07E0
ENDCHAR
STARTCHAR 1ECF
ENCODING 7887
SWIDTH 520 0
DWIDTH 13 0
BBX 11 18 1 0
BITMAP
0F00
0900
0200
0400
0000
0000
1F00
2180
60C0
40E0
C060
C060
C060
C060
E040
60C0
3080
1F00
ENDCHAR
STARTCHAR 1ED0
ENCODING 7888
SWIDTH 720 0
DWIDTH 18 0
BBX 16 22 1 0
BITMAP
0080
0100
03C0
0420
0000
07E0
1838
300C
6006
6006
C003
C003
C003
C003
C003
C003
C003
6006
6006
300C
1838
07E0
ENDCHAR
STARTCHAR 1ED1
ENCODING 7889
SWIDTH 520 0
DWIDTH 13 0
BBX 11 23 1 0
BITMAP
0600
0400
0800
0800
0000
0E00
1B00
1100
2080
0000
0000
1F00
2180
60C0
40E0
C060
C060
C060
C060
E040
60C0
3080
1F00
ENDCHAR
STARTCHAR 1ED2
ENCODING 7890
SWIDTH 720 0
DWIDTH 18 0
BBX 16 22 1 0
BITMAP
0100
0080
03C0
0420
0000
07E0
1838
300C
6006
6006
C003
C003
C003
C003
C003
C003
C003
6006
6006
300C
1838
07E0
ENDCHAR
STARTCHAR 1ED3
ENCODING 7891
SWIDTH 520 0
DWIDTH 13 0
BBX 11 23 1 0
BITMAP
1800
0800
0400
0400
0000
0E00
1B00
1100
2080
0000
0000
1F00
2180
60C0
40E0
C060
C060
C060
C060
E040
60C0
3080
1F00
ENDCHAR
STARTCHAR 1ED4
ENCODING 7892
SWIDTH 720 0
DWIDTH 18 0
BBX 16 22 1 0
BITMAP
03C0
0040
03C0
0420
0000
07E0
1838
300C
6006
6006
C003
C003
C003
C003
C003
C003
C003
6006
6006
300C
1838
07E0
ENDCHAR
STARTCHAR 1ED5
ENCODING 7893
SWIDTH 520 0
DWIDTH 13 0
BBX 11 22 1 0
BITMAP
0F00
0900
0200
0400
0E00
1B00
1100
2080
0000
0000
1F00
2180
60C0
40E0
C060
C060
C060
C060
E040
60C0
3080
1F00
ENDCHAR
STARTCHAR 1ED6
ENCODING 7894
SWIDTH 720 0
DWIDTH 18 0
BBX 16 22 1 0
BITMAP
0710
08E0
03C0
0420
0000
07E0
1838
300C
6006
6006
C003
C003
C003
C003
C003
C003
C003
6006
6006
300C
1838
07E0
ENDCHAR
STARTCHAR 1ED7
ENCODING 7895
SWIDTH 520 0
DWIDTH 13 0
BBX 11 21 1 0
BITMAP
3C40
4380
0000
0E00
1B00
1100
2080
0000
0000
1F00
2180
60C0
40E0
C060
C060
C060
C060
E040
60C0
3080
1F00
ENDCHAR
STARTCHAR 1ED8
ENCODING 7896
SWIDTH 720 0
DWIDTH 18 0
BBX 16 23 1 -3
BITMAP
03C0
0420
0000
07E0
1838
300C
6006
6006
C003
C003
C003
C003
C003
C003
C003
6006
6006
300C
1838
07E0
0000
0180
0180
ENDCHAR
STARTCHAR 1ED9
ENCODING 7897
SWIDTH 520 0
DWIDTH 13 0
BBX 11 21 1 -3
BITMAP
0E00
1B00
1100
2080
0000
0000
1F00
2180
60C0
40E0
C060
C060
C060
C060
E040
60C0
3080
1F00
0000
0600
0600
ENDCHAR
STARTCHAR 1EDA
ENCODING 7898
SWIDTH 720 0
DWIDTH 18 0
BBX 16 23 1 0
BITMAP
0060
0040
0080
0080
0006
0006
07E2
181C
3008
6004
6006
C002
C003
C003
C003
C003
C003
C003
6006
6006
300C
1838
07E0
ENDCHAR
STARTCHAR 1EDB
ENCODING 7899
SWIDTH 520 0
DWIDTH 13 0
BBX 12 18 1 0
BITMAP
0300
0200
0400
0400
0000
0030
1F30
2190
60E0
40E0
C060
C060
C060
C060
E040
60C0
3080
1F00
ENDCHAR
STARTCHAR 1EDC
ENCODING 7900
SWIDTH 720 0
DWIDTH 18 0
BBX 16 23 1 0
BITMAP
0600
0200
0100
0100
0006
0006
07E2
181C
3008
6004
6006
C002
C003
C003
C003
C003
C003
C003
6006
6006
300C
1838
07E0
ENDCHAR
STARTCHAR 1EDD
ENCODING 7901
SWIDTH 520 0
DWIDTH 13 0
BBX 12 18 1 0
BITMAP
1800
0800
0400
0400
0000
0030
1F30
2190
60E0
40E0
C060
C060
C060
C060
E040
60C0
3080
1F00
ENDCHAR
STARTCHAR 1EDE
ENCODING 7902
SWIDTH 720 0
DWIDTH 18 0
BBX 16 22 1 0
BITMAP
03C0
0240
0080
0106
0006
07E2
181C
3008
6004
6006
C002
C003
C003
C003
C003
C003
C003
6006
6006
300C
1838
07E0
ENDCHAR
STARTCHAR 1EDF
ENCODING 7903
SWIDTH 520 0
DWIDTH 13 0
BBX 12 18 1 0
BITMAP
0F00
0900
0200
0400
0000
0030
1F30
2190
60E0
40E0
C060
C060
C060
C060
E040
60C0
3080
1F00
ENDCHAR
STARTCHAR 1EE0
ENCODING 7904
SWIDTH 720 0
DWIDTH 18 0
BBX 16 22 1 0
BITMAP
0388
04C8
0470
0006
0006
07E2
181C
3008
6004
6006
C002
C003
C003
C003
C003
C003
C003
6006
6006
300C
1838
07E0
ENDCHAR
STARTCHAR 1EE1
ENCODING 7905
SWIDTH 520 0
DWIDTH 13 0
BBX 12 17 1 0
BITMAP
1C40
2640
2380
0000
0030
1F30
2190
60E0
40E0
C060
C060
C060
C060
E040
60C0
3080
1F00
ENDCHAR
STARTCHAR 1EE2
ENCODING 7906
SWIDTH 720 0
DWIDTH 18 0
BBX 16 22 1 -3
BITMAP
0006
0006
07E2
181C
3008
6004
6006
C002
C003
C003
C003
C003
C003
C003
6006
6006
300C
1838
07E0
0000
0180
0180
ENDCHAR
STARTCHAR 1EE3
ENCODING 7907
SWIDTH 520 0
DWIDTH 13 0
BBX 12 16 1 -3
BITMAP
0030
1F30
2190
60E0
40E0
C060
C060
C060
C060
E040
60C0
3080
1F00
0000
0600
0600
ENDCHAR
STARTCHAR 1EE4
ENCODING 7908
SWIDTH 680 0
DWIDTH 17 0
BBX 17 20 0 -3
BITMAP
FC0F80
300200
300200
300200
300200
300200
300200
300200
300200
300200
300200
300200
300200
300600
180400
0C1800
07F000
000000
00C000
00C000
ENDCHAR
STARTCHAR 1EE5
ENCODING 7909
SWIDTH 520 0
DWIDTH 13 0
BBX 13 15 0 -3
BITMAP
F1E0
3060
3060
3060
3060
3060
3060
3060
3060
3060
39F8
1E60
0000
0600
0600
ENDCHAR
STARTCHAR 1EE6
ENCODING 7910
SWIDTH 680 0
DWIDTH 17 0
BBX 17 22 0 0
BITMAP
01E000
012000
004000
008000
000000
FC0F80
300200
300200
300200
300200
300200
300200
300200
300200
300200
300200
300200
300200
300600
180400
0C1800
07F000
ENDCHAR
STARTCHAR 1EE7
ENCODING 7911
SWIDTH 520 0
DWIDTH 13 0
BBX 13 18 0 0
BITMAP
0780
0480
0100
0200
0000
0000
F1E0
3060
3060
3060
3060
3060
3060
3060
3060
3060
39F8
1E60
ENDCHAR
STARTCHAR 1EE8
ENCODING 7912
SWIDTH 760 0
DWIDTH 19 0
BBX 18 23 1 0
BITMAP
006000
004000
008000
0080C0
0000C0
000040
FC0F80
300200
300200
300200
300200
300200
300200
300200
300200
300200
300200
300200
300200
300600
180400
0C1800
07F000
ENDCHAR
STARTCHAR 1EE9
ENCODING 7913
SWIDTH 560 0
DWIDTH 14 0
BBX 14 18 0 0
BITMAP
0180
0100
0200
0200
0000
000C
F1EC
3064
3078
3060
3060
3060
3060
3060
3060
3060
39F8
1E60
ENDCHAR
STARTCHAR 1EEA
ENCODING 7914
SWIDTH 760 0
DWIDTH 19 0
BBX 18 23 1 0
BITMAP
030000
010000
008000
0080C0
0000C0
000040
FC0F80
300200
300200
300200
300200
300200
300200
300200
300200
300200
300200
300200
300200
300600
180400
0C1800
07F000
ENDCHAR
STARTCHAR 1EEB
ENCODING 7915
SWIDTH 560 0
DWIDTH 14 0
BBX 14 18 0 0
BITMAP
0C00
0400
0200
0200
0000
000C
F1EC
3064
3078
3060
3060
3060
3060
3060
3060
3060
39F8
1E60
ENDCHAR
STARTCHAR 1EEC
ENCODING 7916
SWIDTH 760 0
DWIDTH 19 0
BBX 18 22 1 0
BITMAP
03C000
024000
0080C0
0100C0
000040
FC0F80
300200
300200
300200
300200
300200
300200
300200
300200
300200
300200
300200
300200
300600
180400
0C1800
07F000
ENDCHAR
STARTCHAR 1EED
ENCODING 7917
SWIDTH 560 0
DWIDTH 14 0
BBX 14 18 0 0
BITMAP
0780
0480
0100
0200
0000
000C
F1EC
3064
3078
3060
3060
3060
3060
3060
3060
3060
39F8
1E60
ENDCHAR
STARTCHAR 1EEE
ENCODING 7918
SWIDTH 760 0
DWIDTH 19 0
BBX 18 22 1 0
BITMAP
038800
04C800
0470C0
0000C0
000040
FC0F80
300200
300200
300200
300200
300200
300200
300200
300200
300200
300200
300200
300200
300600
180400
0C1800
07F000
ENDCHAR
STARTCHAR 1EEF
ENCODING 7919
SWIDTH 560 0
DWIDTH 14 0
BBX 14 17 0 0
BITMAP
1C40
2640
2380
0000
000C
F1EC
3064
3078
3060
3060
3060
3060
3060
3060
3060
39F8
1E60
ENDCHAR
STARTCHAR 1EF0
ENCODING 7920
SWIDTH 760 0
DWIDTH 19 0
BBX 18 23 1 -3
BITMAP
0000C0
0000C0
000040
FC0F80
300200
300200
300200
300200
300200
300200
300200
300200
300200
300200
300200
300200
300600
180400
0C1800
07F000
000000
00C000
00C000
ENDCHAR
STARTCHAR 1EF1
ENCODING 7921
SWIDTH 560 0
DWIDTH 14 0
BBX 14 16 0 -3
BITMAP
000C
F1EC
3064
3078
3060
3060
3060
3060
3060
3060
3060
39F8
1E60
0000
0600
0600
ENDCHAR
STARTCHAR 1EF2
ENCODING 7922
SWIDTH 680 0
DWIDTH 17 0
BBX 16 23 1 0
BITMAP
0300
0100
0080
0080
0000
0000
FE1F
380C
1808
1C10
0C10
0E20
0620
0340
0340
0180
0180
0180
0180
0180
0180
0180
07E0
ENDCHAR
STARTCHAR 1EF3
ENCODING 7923
SWIDTH 520 0
DWIDTH 13 0
BBX 13 23 0 -5
BITMAP
0C00
0400
0200
0200
0000
0000
F878
7030
3020
3040
1840
1840
0C80
0C80
0700
0700
0200
0200
0200
0400
0C00
7800
7000
ENDCHAR
STARTCHAR 1EF4
ENCODING 7924
SWIDTH 680 0
DWIDTH 17 0
BBX 16 20 1 -3
BITMAP
FE1F
380C
1808
1C10
0C10
0E20
0620
0340
0340
0180
0180
0180
0180
0180
0180
0180
07E0
0000
0180
0180
ENDCHAR
STARTCHAR 1EF5
ENCODING 7925
SWIDTH 520 0
DWIDTH 13 0
BBX 13 17 0 -5
BITMAP
F878
7030
3020
3040
1840
1840
0C80
0C80
0700
0700
0200
0200
0200
04C0
0CC0
7800
7000
ENDCHAR
STARTCHAR 1EF6
ENCODING 7926
SWIDTH 680 0
DWIDTH 17 0
BBX 16 22 1 0
BITMAP
01E0
0120
0040
0080
0000
FE1F
380C
1808
1C10
0C10
0E20
0620
0340
0340
0180
0180
0180
0180
0180
0180
0180
07E0
ENDCHAR
STARTCHAR 1EF7
ENCODING 7927
SWIDTH 520 0
DWIDTH 13 0
BBX 13 23 0 -5
BITMAP
0780
0480
0100
0200
0000
0000
F878
7030
3020
3040
1840
1840
0C80
0C80
0700
0700
0200
0200
0200
0400
0C00
7800
7000
ENDCHAR
STARTCHAR 1EF8
ENCODING 7928
SWIDTH 680 0
DWIDTH 17 0
BBX 16 22 1 0
BITMAP
0710
0990
08E0
0000
0000
FE1F
380C
1808
1C10
0C10
0E20
0620
0340
0340
0180
0180
0180
0180
0180
0180
0180
07E0
ENDCHAR
STARTCHAR 1EF9
ENCODING 7929
SWIDTH 520 0
DWIDTH 13 0
BBX 13 22 0 -5
BITMAP
1C40
2640
2380
0000
0000
F878
7030
3020
3040
1840
1840
0C80
0C80
0700
0700
0200
0200
0200
0400
0C00
7800
7000
ENDCHAR
STARTCHAR 200C
ENCODING 8204
SWIDTH 0 0
DWIDTH 0 0
BBX 1 19 0 -3
BITMAP
80
80
80
80
80
80
80
80
80
80
80
80
80
80
80
80
80
80
80
ENDCHAR
STARTCHAR 200D
ENCODING 8205
SWIDTH 0 0
DWIDTH 0 0
BBX 5 20 -2 -3
BITMAP
88
50
20
70
A8
20
20
20
20
20
20
20
20
20
20
20
20
20
20
20
ENDCHAR
STARTCHAR 200E
ENCODING 8206
SWIDTH 0 0
DWIDTH 0 0
BBX 6 20 0 -3
BITMAP
10
08
FC
88
90
80
80
80
80
80
80
80
80
80
80
80
80
80
80
80
ENDCHAR
STARTCHAR 200F
ENCODING 8207
SWIDTH 0 0
DWIDTH 0 0
BBX 6 20 -5 -3
BITMAP
20
40
FC
44
24
04
04
04
04
04
04
04
04
04
04
04
04
04
04
04
ENDCHAR
STARTCHAR 2013
ENCODING 8211
SWIDTH 520 0
DWIDTH 13 0
BBX 13 1 0 6
BITMAP
FFF8
ENDCHAR
STARTCHAR 2014
ENCODING 8212
SWIDTH 1000 0
DWIDTH 25 0
BBX 25 1 0 6
BITMAP
FFFFFF80
ENDCHAR
STARTCHAR 2015
ENCODING 8213
SWIDTH 1000 0
DWIDTH 25 0
BBX 23 1 1 6
BITMAP
FFFFFE
ENDCHAR
STARTCHAR 2017
ENCODING 8215
SWIDTH 520 0
DWIDTH 13 0
BBX 13 3 0 -5
BITMAP
FFF8
0000
FFF8
ENDCHAR
STARTCHAR 2018
ENCODING 8216
SWIDTH 360 0
DWIDTH 9 0
BBX 4 6 2 11
BITMAP
20
40
80
80
F0
70
ENDCHAR
STARTCHAR 2019
ENCODING 8217
SWIDTH 360 0
DWIDTH 9 0
BBX 4 6 2 11
BITMAP
E0
F0
10
10
20
40
ENDCHAR
STARTCHAR 201A
ENCODING 8218
SWIDTH 320 0
DWIDTH 8 0
BBX 4 6 2 -4
BITMAP
E0
F0
10
10
20
C0
ENDCHAR
STARTCHAR 201B
ENCODING 8219
SWIDTH 320 0
DWIDTH 8 0
BBX 4 7 2 10
BITMAP
70
F0
F0
80
80
40
20
ENDCHAR
STARTCHAR 201C
ENCODING 8220
SWIDTH 480 0
DWIDTH 12 0
BBX 10 6 1 11
BITMAP
2080
4100
8200
8200
F3C0
71C0
ENDCHAR
STARTCHAR 201D
ENCODING 8221
SWIDTH 440 0
DWIDTH 11 0
BBX 10 6 1 11
BITMAP
E380
F3C0
1040
1040
2080
4100
ENDCHAR
STARTCHAR 201E
ENCODING 8222
SWIDTH 480 0
DWIDTH 12 0
BBX 10 6 1 -4
BITMAP
E380
F3C0
1040
1040
2080
4100
ENDCHAR
STARTCHAR 2020
ENCODING 8224
SWIDTH 480 0
DWIDTH 12 0
BBX 9 23 2 -5
BITMAP
0800
0800
0800
0800
0800
FF80
0800
0800
0800
0800
0800
0800
0800
0800
0800
0800
0800
0800
0800
0800
0800
0800
0800
ENDCHAR
STARTCHAR 2021
ENCODING 8225
SWIDTH 520 0
DWIDTH 13 0
BBX 9 23 2 -5
BITMAP
0800
0800
0800
0800
0800
FF80
0800
0800
0800
0800
0800
0800
0800
0800
0800
0800
0800
FF80
0800
0800
0800
0800
0800
ENDCHAR
STARTCHAR 2022
ENCODING 8226
SWIDTH 320 0
DWIDTH 8 0
BBX 6 6 1 6
BITMAP
78
FC
FC
FC
FC
78
ENDCHAR
STARTCHAR 2026
ENCODING 8230
SWIDTH 1000 0
DWIDTH 25 0
BBX 18 2 3 0
BITMAP
C0C0C0
C0C0C0
ENDCHAR
STARTCHAR 202A
ENCODING 8234
SWIDTH 760 0
DWIDTH 19 0
BBX 13 16 3 0
BITMAP
FFF8
8008
8008
8008
8008
8008
8008
8008
8008
8008
8008
8008
8008
8008
8008
8008
ENDCHAR
STARTCHAR 202B
ENCODING 8235
SWIDTH 760 0
DWIDTH 19 0
BBX 13 16 3 0
BITMAP
FFF8
8008
8008
8008
8008
8008
8008
8008
8008
8008
8008
8008
8008
8008
8008
8008
ENDCHAR
STARTCHAR 202C
ENCODING 8236
SWIDTH 760 0
DWIDTH 19 0
BBX 13 16 3 0
BITMAP
FFF8
8008
8008
8008
8008
8008
8008
8008
8008
8008
8008
8008
8008
8008
8008
8008
ENDCHAR
STARTCHAR 202D
ENCODING 8237
SWIDTH 760 0
DWIDTH 19 0
BBX 13 16 3 0
BITMAP
FFF8
8008
8008
8008
8008
8008
8008
8008
8008
8008
8008
8008
8008
8008
8008
8008
ENDCHAR
STARTCHAR 202E
ENCODING 8238
SWIDTH 760 0
DWIDTH 19 0
BBX 13 16 3 0
BITMAP
FFF8
8008
8008
8008
8008
8008
8008
8008
8008
8008
8008
8008
8008
8008
8008
8008
ENDCHAR
STARTCHAR 2030
ENCODING 8240
SWIDTH 1000 0
DWIDTH 25 0
BBX 23 17 1 0
BITMAP
380800
6C0800
C61000
C62000
C62000
C64000
C68000
6C8000
393838
026C6C
02C6C6
04C6C6
08C6C6
10C6C6
10C6C6
206C6C
403838
ENDCHAR
STARTCHAR 2032
ENCODING 8242
SWIDTH 200 0
DWIDTH 5 0
BBX 3 7 2 10
BITMAP
60
60
60
40
C0
C0
80
ENDCHAR
STARTCHAR 2033
ENCODING 8243
SWIDTH 400 0
DWIDTH 10 0
BBX 7 7 2 10
BITMAP
66
66
66
44
CC
CC
88
ENDCHAR
STARTCHAR 2039
ENCODING 8249
SWIDTH 320 0
DWIDTH 8 0
BBX 5 12 1 0
BITMAP
08
10
30
20
60
C0
C0
60
20
30
10
08
ENDCHAR
STARTCHAR 203A
ENCODING 8250
SWIDTH 320 0
DWIDTH 8 0
BBX 5 12 2 0
BITMAP
80
40
60
20
30
18
18
30
20
60
40
80
ENDCHAR
STARTCHAR 203C
ENCODING 8252
SWIDTH 480 0
DWIDTH 12 0
BBX 7 17 3 0
BITMAP
C6
C6
C6
C6
C6
C6
C6
C6
84
84
84
84
84
00
00
C6
C6
ENDCHAR
STARTCHAR 203E
ENCODING 8254
SWIDTH 320 0
DWIDTH 8 0
BBX 9 2 0 14
BITMAP
FF80
FF80
ENDCHAR
STARTCHAR 2044
ENCODING 8260
SWIDTH 160 0
DWIDTH 4 0
BBX 12 18 -4 0
BITMAP
0010
0020
0040
0040
0080
0080
0100
0200
0200
0400
0400
0800
1000
1000
2000
2000
4000
8000
ENDCHAR
STARTCHAR 206A
ENCODING 8298
SWIDTH 760 0
DWIDTH 19 0
BBX 13 16 3 0
BITMAP
FFF8
8008
8008
8008
8008
8008
8008
8008
8008
8008
8008
8008
8008
8008
8008
8008
ENDCHAR
STARTCHAR 206B
ENCODING 8299
SWIDTH 760 0
DWIDTH 19 0
BBX 13 16 3 0
BITMAP
FFF8
8008
8008
8008
8008
8008
8008
8008
8008
8008
8008
8008
8008
8008
8008
8008
ENDCHAR
STARTCHAR 206C
ENCODING 8300
SWIDTH 760 0
DWIDTH 19 0
BBX 13 16 3 0
BITMAP
FFF8
8008
8008
8008
8008
8008
8008
8008
8008
8008
8008
8008
8008
8008
8008
8008
ENDCHAR
STARTCHAR 206D
ENCODING 8301
SWIDTH 760 0
DWIDTH 19 0
BBX 13 16 3 0
BITMAP
FFF8
8008
8008
8008
8008
8008
8008
8008
8008
8008
8008
8008
8008
8008
8008
8008
ENDCHAR
STARTCHAR 206E
ENCODING 8302
SWIDTH 760 0
DWIDTH 19 0
BBX 13 16 3 0
BITMAP
FFF8
8008
8008
8008
8008
8008
8008
8008
8008
8008
8008
8008
8008
8008
8008
8008
ENDCHAR
STARTCHAR 206F
ENCODING 8303
SWIDTH 760 0
DWIDTH 19 0
BBX 13 16 3 0
BITMAP
FFF8
8008
8008
8008
8008
8008
8008
8008
8008
8008
8008
8008
8008
8008
8008
8008
ENDCHAR
STARTCHAR 207F
ENCODING 8319
SWIDTH 320 0
DWIDTH 8 0
BBX 8 7 0 7
BITMAP
5C
E2
42
42
42
42
E7
ENDCHAR
STARTCHAR 20A3
ENCODING 8355
SWIDTH 520 0
DWIDTH 13 0
BBX 12 17 0 0
BITMAP
7FF0
1830
1810
1810
1800
1840
1840
1FC0
1840
1840
1800
1800
FF00
1800
1800
1800
7E00
ENDCHAR
STARTCHAR 20A4
ENCODING 8356
SWIDTH 480 0
DWIDTH 12 0
BBX 11 17 1 0
BITMAP
0780
0CC0
08C0
1800
1800
1800
1800
7F00
1800
7F00
1800
1800
1800
1020
7060
AFC0
E380
ENDCHAR
STARTCHAR 20A7
ENCODING 8359
SWIDTH 960 0
DWIDTH 24 0
BBX 23 17 0 0
BITMAP
FF8000
30E000
307400
303C00
303C00
303F7A
303CC6
306C86
30CCC2
3F8CE0
300C78
300C1C
300C0E
300C82
300C82
300CC4
FC07B8
ENDCHAR
STARTCHAR 20AA
ENCODING 8362
SWIDTH 760 0
DWIDTH 19 0
BBX 15 13 2 0
BITMAP
FF82
8042
8042
8042
8042
8442
8442
8442
8402
8402
8402
8404
87F8
ENDCHAR
STARTCHAR 20AB
ENCODING 8363
SWIDTH 520 0
DWIDTH 13 0
BBX 8 14 2 4
BITMAP
06
06
1F
06
3E
66
C6
C6
C6
C6
66
7E
00
FF
ENDCHAR
STARTCHAR 20AC
ENCODING 8364
SWIDTH 480 0
DWIDTH 12 0
BBX 13 17 -1 0
BITMAP
03F0
0638
0C18
1808
1808
3000
3000
FFE0
3000
FFC0
3000
3000
3000
1808
1810
0C20
07C0
ENDCHAR
STARTCHAR 2105
ENCODING 8453
SWIDTH 840 0
DWIDTH 21 0
BBX 19 17 1 0
BITMAP
3C0200
660400
C60800
C00800
C01000
C22000
C24000
644000
388780
010CC0
011860
021860
041860
081860
081860
100CC0
200780
ENDCHAR
STARTCHAR 2113
ENCODING 8467
SWIDTH 480 0
DWIDTH 12 0
BBX 10 17 1 0
BITMAP
0F00
1980
3080
3080
3100
3100
3200
3400
3800
3000
7000
B000
3000
3040
3080
1980
0F00
ENDCHAR
STARTCHAR 2116
ENCODING 8470
SWIDTH 960 0
DWIDTH 24 0
BBX 22 17 0 0
BITMAP
3C0700
0C0780
0E0980
0E0800
0B0800
0B0800
098870
098898
08C98C
08E98C
08698C
08798C
0838C8
081870
C81800
F80800
F009FC
ENDCHAR
STARTCHAR 2122
ENCODING 8482
SWIDTH 1000 0
DWIDTH 25 0
BBX 23 10 1 7
BITMAP
FF3C0E
991C1C
181E1C
18162C
18172C
18132C
1813CC
1811CC
1811CC
3C389E
ENDCHAR
STARTCHAR 2126
ENCODING 8486
SWIDTH 760 0
DWIDTH 19 0
BBX 17 17 1 0
BITMAP
07F000
181C00
300600
600300
400100
C00180
C00180
C00180
C00180
C00180
600300
300600
180C00
8E3880
822080
FE3F80
FE3F80
ENDCHAR
STARTCHAR 212E
ENCODING 8494
SWIDTH 600 0
DWIDTH 15 0
BBX 13 13 1 0
BITMAP
0F80
3060
6030
6030
E038
FFF8
E000
E000
E000
6010
6020
3040
0F80
ENDCHAR
STARTCHAR 2153
ENCODING 8531
SWIDTH 760 0
DWIDTH 19 0
BBX 16 18 2 0
BITMAP
0008
4010
C020
4020
4040
4040
4080
4100
4100
E21E
0221
0401
0802
080E
1003
1001
2001
403E
ENDCHAR
STARTCHAR 2154
ENCODING 8532
SWIDTH 760 0
DWIDTH 19 0
BBX 18 18 0 0
BITMAP
000200
7C0400
860800
020800
041000
081000
102000
204000
404000
FE8780
008840
010040
020080
020380
0400C0
040040
080040
100F80
ENDCHAR
STARTCHAR 215B
ENCODING 8539
SWIDTH 760 0
DWIDTH 19 0
BBX 16 17 2 0
BITMAP
4004
C008
4010
4010
4020
4040
4040
4080
E11E
0321
0221
0412
0C0C
0812
1021
2021
201E
ENDCHAR
STARTCHAR 215C
ENCODING 8540
SWIDTH 760 0
DWIDTH 19 0
BBX 17 17 1 0
BITMAP
380400
C40400
040800
081000
3C1000
042000
044000
08C000
F08F00
011080
021080
020900
040E00
081900
081080
101080
200F00
ENDCHAR
STARTCHAR 215D
ENCODING 8541
SWIDTH 760 0
DWIDTH 19 0
BBX 17 17 1 0
BITMAP
3C0400
400C00
400800
F01000
182000
042000
044000
088000
F08F00
011080
021080
020900
040E00
081900
081080
101080
200F00
ENDCHAR
STARTCHAR 215E
ENCODING 8542
SWIDTH 760 0
DWIDTH 19 0
BBX 17 17 1 0
BITMAP
7C0400
840C00
080800
081000
102000
102000
104000
208000
208F00
011080
021080
020900
040E00
081900
081080
101080
200F00
ENDCHAR
STARTCHAR 2190
ENCODING 8592
SWIDTH 1000 0
DWIDTH 25 0
BBX 23 9 1 3
BITMAP
040000
080000
100000
700000
FFFFFE
600000
100000
080000
040000
ENDCHAR
STARTCHAR 2191
ENCODING 8593
SWIDTH 520 0
DWIDTH 13 0
BBX 9 22 2 -5
BITMAP
0800
1C00
1C00
3E00
4900
8880
0800
0800
0800
0800
0800
0800
0800
0800
0800
0800
0800
0800
0800
0800
0800
0800
ENDCHAR
STARTCHAR 2192
ENCODING 8594
SWIDTH 1000 0
DWIDTH 25 0
BBX 23 9 1 3
BITMAP
000040
000020
000010
00001C
FFFFFE
00001C
000010
000020
000040
ENDCHAR
STARTCHAR 2193
ENCODING 8595
SWIDTH 520 0
DWIDTH 13 0
BBX 9 22 2 -5
BITMAP
0800
0800
0800
0800
0800
0800
0800
0800
0800
0800
0800
0800
0800
0800
0800
0800
8880
4900
3E00
1C00
1C00
0800
ENDCHAR
STARTCHAR 2194
ENCODING 8596
SWIDTH 1000 0
DWIDTH 25 0
BBX 23 9 1 3
BITMAP
040040
080020
100030
70001C
FFFFFE
60001C
100030
080020
040040
ENDCHAR
STARTCHAR 2195
ENCODING 8597
SWIDTH 520 0
DWIDTH 13 0
BBX 9 23 2 -6
BITMAP
0800
1C00
1C00
3E00
4900
8880
0800
0800
0800
0800
0800
0800
0800
0800
0800
0800
0800
8880
4900
2E00
1C00
1C00
0800
ENDCHAR
STARTCHAR 21A8
ENCODING 8616
SWIDTH 520 0
DWIDTH 13 0
BBX 9 25 2 -8
BITMAP
0800
1C00
1C00
3E00
4900
8880
0800
0800
0800
0800
0800
0800
0800
0800
0800
0800
0800
8880
4900
2E00
1C00
1C00
0800
0000
FF80
ENDCHAR
STARTCHAR 2202
ENCODING 8706
SWIDTH 480 0
DWIDTH 12 0
BBX 11 18 1 0
BITMAP
0700
1FC0
10C0
2060
0020
0020
0020
0F20
18E0
3020
6020
E040
C040
C080
C080
C100
6200
3C00
ENDCHAR
STARTCHAR 2206
ENCODING 8710
SWIDTH 640 0
DWIDTH 16 0
BBX 15 16 0 0
BITMAP
0080
0180
01C0
02C0
02C0
0460
0460
0870
0830
1030
1018
2018
201C
400C
400C
FFFE
ENDCHAR
STARTCHAR 220F
ENCODING 8719
SWIDTH 840 0
DWIDTH 21 0
BBX 19 23 1 -5
BITMAP
FFFFE0
300180
300180
300180
300180
300180
300180
300180
300180
300180
300180
300180
300180
300180
300180
300180
300180
300180
300180
300180
300180
300180
FC07E0
ENDCHAR
STARTCHAR 2211
ENCODING 8721
SWIDTH 720 0
DWIDTH 18 0
BBX 16 23 1 -5
BITMAP
FFFE
6006
2002
3002
1800
0C00
0E00
0600
0300
0180
0180
0100
0100
0200
0400
0400
0800
1800
1000
2001
6003
7FFF
FFFF
ENDCHAR
STARTCHAR 2212
ENCODING 8722
SWIDTH 560 0
DWIDTH 14 0
BBX 13 1 0 8
BITMAP
FFF8
ENDCHAR
STARTCHAR 2215
ENCODING 8725
SWIDTH 160 0
DWIDTH 4 0
BBX 12 18 -4 0
BITMAP
0010
0020
0040
0040
0080
0080
0100
0200
0200
0400
0400
0800
1000
1000
2000
2000
4000
8000
ENDCHAR
STARTCHAR 2219
ENCODING 8729
SWIDTH 280 0
DWIDTH 7 0
BBX 3 3 2 7
BITMAP
E0
E0
E0
ENDCHAR
STARTCHAR 221A
ENCODING 8730
SWIDTH 560 0
DWIDTH 14 0
BBX 13 24 1 -1
BITMAP
0008
0008
0008
0010
0010
0010
0010
0010
0010
0010
2020
D020
1020
0820
0420
0420
0220
0240
0140
0140
00C0
00C0
0040
0040
ENDCHAR
STARTCHAR 221E
ENCODING 8734
SWIDTH 720 0
DWIDTH 18 0
BBX 16 10 1 2
BITMAP
0078
38C6
44C2
8381
8181
8381
8301
8382
4646
3C3C
ENDCHAR
STARTCHAR 221F
ENCODING 8735
SWIDTH 960 0
DWIDTH 24 0
BBX 15 16 4 0
BITMAP
8000
8000
8000
8000
8000
8000
8000
8000
8000
8000
8000
8000
8000
8000
8000
FFFE
ENDCHAR
STARTCHAR 2229
ENCODING 8745
SWIDTH 720 0
DWIDTH 18 0
BBX 13 18 2 0
BITMAP
0F80
3060
6020
4010
8008
8008
8008
8008
8008
8008
8008
8008
8008
8008
8008
8008
8008
8008
ENDCHAR
STARTCHAR 222B
ENCODING 8747
SWIDTH 280 0
DWIDTH 7 0
BBX 8 26 0 -3
BITMAP
06
0F
17
10
10
10
10
18
18
18
18
18
18
18
18
18
18
18
18
18
08
08
08
F0
F0
E0
ENDCHAR
STARTCHAR 2248
ENCODING 8776
SWIDTH 560 0
DWIDTH 14 0
BBX 14 9 0 4
BITMAP
7804
C78C
80F8
0000
0000
0000
7C04
C78C
80F8
ENDCHAR
STARTCHAR 2260
ENCODING 8800
SWIDTH 560 0
DWIDTH 14 0
BBX 13 20 0 -3
BITMAP
0040
0040
0040
0080
0080
0080
0100
FFF8
0100
0200
0200
0400
0400
FFF8
0800
0800
0800
1000
1000
1000
ENDCHAR
STARTCHAR 2261
ENCODING 8801
SWIDTH 560 0
DWIDTH 14 0
BBX 14 9 0 4
BITMAP
FFFC
0000
0000
0000
FFFC
0000
0000
0000
FFFC
ENDCHAR
STARTCHAR 2264
ENCODING 8804
SWIDTH 560 0
DWIDTH 14 0
BBX 12 18 1 -2
BITMAP
0010
0060
0180
0600
1800
6000
8000
6000
1800
0600
0180
0060
0010
0000
0000
0000
0000
FFF0
ENDCHAR
STARTCHAR 2265
ENCODING 8805
SWIDTH 560 0
DWIDTH 14 0
BBX 12 18 1 -2
BITMAP
8000
6000
1800
0600
0180
0060
0010
0060
0180
0600
1800
6000
8000
0000
0000
0000
0000
FFF0
ENDCHAR
STARTCHAR 2302
ENCODING 8962
SWIDTH 600 0
DWIDTH 15 0
BBX 12 13 2 0
BITMAP
0600
0900
1080
2040
4020
8010
8010
8010
8010
8010
8010
8010
FFF0
ENDCHAR
STARTCHAR 2310
ENCODING 8976
SWIDTH 560 0
DWIDTH 14 0
BBX 13 5 0 6
BITMAP
FFF8
8000
8000
8000
8000
ENDCHAR
STARTCHAR 2320
ENCODING 8992
SWIDTH 600 0
DWIDTH 15 0
BBX 5 27 7 -6
BITMAP
38
58
C0
C0
C0
C0
C0
C0
C0
C0
C0
C0
C0
C0
C0
C0
C0
C0
C0
C0
C0
C0
C0
C0
C0
C0
C0
ENDCHAR
STARTCHAR 2321
ENCODING 8993
SWIDTH 600 0
DWIDTH 15 0
BBX 5 27 4 -6
BITMAP
18
18
18
18
18
18
18
18
18
18
18
18
18
18
18
18
18
18
18
18
18
18
18
18
18
D0
E0
ENDCHAR
STARTCHAR 2500
ENCODING 9472
SWIDTH 720 0
DWIDTH 18 0
BBX 18 2 0 7
BITMAP
FFFFC0
FFFFC0
ENDCHAR
STARTCHAR 2502
ENCODING 9474
SWIDTH 720 0
DWIDTH 18 0
BBX 2 31 8 -8
BITMAP
C0
C0
C0
C0
C0
C0
C0
C0
C0
C0
C0
C0
C0
C0
C0
C0
C0
C0
C0
C0
C0
C0
C0
C0
C0
C0
C0
C0
C0
C0
C0
ENDCHAR
STARTCHAR 250C
ENCODING 9484
SWIDTH 720 0
DWIDTH 18 0
BBX 10 17 8 -8
BITMAP
FFC0
FFC0
C000
C000
C000
C000
C000
C000
C000
C000
C000
C000
C000
C000
C000
C000
C000
ENDCHAR
STARTCHAR 2510
ENCODING 9488
SWIDTH 720 0
DWIDTH 18 0
BBX 10 17 0 -8
BITMAP
FFC0
FFC0
00C0
00C0
00C0
00C0
00C0
00C0
00C0
00C0
00C0
00C0
00C0
00C0
00C0
00C0
00C0
ENDCHAR
STARTCHAR 2514
ENCODING 9492
SWIDTH 720 0
DWIDTH 18 0
BBX 10 16 8 7
BITMAP
C000
C000
C000
C000
C000
C000
C000
C000
C000
C000
C000
C000
C000
C000
FFC0
FFC0
ENDCHAR
STARTCHAR 2518
ENCODING 9496
SWIDTH 720 0
DWIDTH 18 0
BBX 10 16 0 7
BITMAP
00C0
00C0
00C0
00C0
00C0
00C0
00C0
00C0
00C0
00C0
00C0
00C0
00C0
00C0
FFC0
FFC0
ENDCHAR
STARTCHAR 251C
ENCODING 9500
SWIDTH 720 0
DWIDTH 18 0
BBX 10 31 8 -8
BITMAP
C000
C000
C000
C000
C000
C000
C000
C000
C000
C000
C000
C000
C000
C000
FFC0
FFC0
C000
C000
C000
C000
C000
C000
C000
C000
C000
C000
C000
C000
C000
C000
C000
ENDCHAR
STARTCHAR 2524
ENCODING 9508
SWIDTH 720 0
DWIDTH 18 0
BBX 10 31 0 -8
BITMAP
00C0
00C0
00C0
00C0
00C0
00C0
00C0
00C0
00C0
00C0
00C0
00C0
00C0
00C0
FFC0
FFC0
00C0
00C0
00C0
00C0
00C0
00C0
00C0
00C0
00C0
00C0
00C0
00C0
00C0
00C0
00C0
ENDCHAR
STARTCHAR 252C
ENCODING 9516
SWIDTH 720 0
DWIDTH 18 0
BBX 18 17 0 -8
BITMAP
FFFFC0
FFFFC0
00C000
00C000
00C000
00C000
00C000
00C000
00C000
00C000
00C000
00C000
00C000
00C000
00C000
00C000
00C000
ENDCHAR
STARTCHAR 2534
ENCODING 9524
SWIDTH 720 0
DWIDTH 18 0
BBX 18 16 0 7
BITMAP
00C000
00C000
00C000
00C000
00C000
00C000
00C000
00C000
00C000
00C000
00C000
00C000
00C000
00C000
FFFFC0
FFFFC0
ENDCHAR
STARTCHAR 253C
ENCODING 9532
SWIDTH 720 0
DWIDTH 18 0
BBX 18 31 0 -8
BITMAP
00C000
00C000
00C000
00C000
00C000
00C000
00C000
00C000
00C000
00C000
00C000
00C000
00C000
00C000
FFFFC0
FFFFC0
00C000
00C000
00C000
00C000
00C000
00C000
00C000
00C000
00C000
00C000
00C000
00C000
00C000
00C000
00C000
ENDCHAR
STARTCHAR 2550
ENCODING 9552
SWIDTH 720 0
DWIDTH 18 0
BBX 18 7 0 4
BITMAP
FFFFC0
FFFFC0
000000
000000
000000
FFFFC0
FFFFC0
ENDCHAR
STARTCHAR 2551
ENCODING 9553
SWIDTH 720 0
DWIDTH 18 0
BBX 7 31 5 -8
BITMAP
C6
C6
C6
C6
C6
C6
C6
C6
C6
C6
C6
C6
C6
C6
C6
C6
C6
C6
C6
C6
C6
C6
C6
C6
C6
C6
C6
C6
C6
C6
C6
ENDCHAR
STARTCHAR 2552
ENCODING 9554
SWIDTH 720 0
DWIDTH 18 0
BBX 10 19 8 -8
BITMAP
FFC0
FFC0
C000
C000
C000
FFC0
FFC0
C000
C000
C000
C000
C000
C000
C000
C000
C000
C000
C000
C000
ENDCHAR
STARTCHAR 2553
ENCODING 9555
SWIDTH 720 0
DWIDTH 18 0
BBX 13 17 5 -8
BITMAP
FFF8
FFF8
C600
C600
C600
C600
C600
C600
C600
C600
C600
C600
C600
C600
C600
C600
C600
ENDCHAR
STARTCHAR 2554
ENCODING 9556
SWIDTH 720 0
DWIDTH 18 0
BBX 13 19 5 -8
BITMAP
FFF8
FFF8
C000
C000
C000
C7F8
C7F8
C600
C600
C600
C600
C600
C600
C600
C600
C600
C600
C600
C600
ENDCHAR
STARTCHAR 2555
ENCODING 9557
SWIDTH 720 0
DWIDTH 18 0
BBX 10 19 0 -8
BITMAP
FFC0
FFC0
00C0
00C0
00C0
FFC0
FFC0
00C0
00C0
00C0
00C0
00C0
00C0
00C0
00C0
00C0
00C0
00C0
00C0
ENDCHAR
STARTCHAR 2556
ENCODING 9558
SWIDTH 720 0
DWIDTH 18 0
BBX 12 17 0 -8
BITMAP
FFF0
FFF0
0630
0630
0630
0630
0630
0630
0630
0630
0630
0630
0630
0630
0630
0630
0630
ENDCHAR
STARTCHAR 2557
ENCODING 9559
SWIDTH 720 0
DWIDTH 18 0
BBX 12 19 0 -8
BITMAP
FFF0
FFF0
0030
0030
0030
FE30
FE30
0630
0630
0630
0630
0630
0630
0630
0630
0630
0630
0630
0630
ENDCHAR
STARTCHAR 2558
ENCODING 9560
SWIDTH 720 0
DWIDTH 18 0
BBX 10 19 8 4
BITMAP
C000
C000
C000
C000
C000
C000
C000
C000
C000
C000
C000
C000
FFC0
FFC0
C000
C000
C000
FFC0
FFC0
ENDCHAR
STARTCHAR 2559
ENCODING 9561
SWIDTH 720 0
DWIDTH 18 0
BBX 13 16 5 7
BITMAP
C600
C600
C600
C600
C600
C600
C600
C600
C600
C600
C600
C600
C600
C600
FFF8
FFF8
ENDCHAR
STARTCHAR 255A
ENCODING 9562
SWIDTH 720 0
DWIDTH 18 0
BBX 13 19 5 4
BITMAP
C600
C600
C600
C600
C600
C600
C600
C600
C600
C600
C600
C600
C7F8
C7F8
C000
C000
C000
FFF8
FFF8
ENDCHAR
STARTCHAR 255B
ENCODING 9563
SWIDTH 720 0
DWIDTH 18 0
BBX 10 19 0 4
BITMAP
00C0
00C0
00C0
00C0
00C0
00C0
00C0
00C0
00C0
00C0
00C0
00C0
FFC0
FFC0
00C0
00C0
00C0
FFC0
FFC0
ENDCHAR
STARTCHAR 255C
ENCODING 9564
SWIDTH 720 0
DWIDTH 18 0
BBX 12 16 0 7
BITMAP
0630
0630
0630
0630
0630
0630
0630
0630
0630
0630
0630
0630
0630
0630
FFF0
FFF0
ENDCHAR
STARTCHAR 255D
ENCODING 9565
SWIDTH 720 0
DWIDTH 18 0
BBX 12 19 0 4
BITMAP
0630
0630
0630
0630
0630
0630
0630
0630
0630
0630
0630
0630
FE30
FE30
0030
0030
0030
FFF0
FFF0
ENDCHAR
STARTCHAR 255E
ENCODING 9566
SWIDTH 720 0
DWIDTH 18 0
BBX 10 31 8 -8
BITMAP
C000
C000
C000
C000
C000
C000
C000
C000
C000
C000
C000
C000
FFC0
FFC0
C000
C000
C000
FFC0
FFC0
C000
C000
C000
C000
C000
C000
C000
C000
C000
C000
C000
C000
ENDCHAR
STARTCHAR 255F
ENCODING 9567
SWIDTH 720 0
DWIDTH 18 0
BBX 13 31 5 -8
BITMAP
C600
C600
C600
C600
C600
C600
C600
C600
C600
C600
C600
C600
C600
C600
C7F8
C7F8
C600
C600
C600
C600
C600
C600
C600
C600
C600
C600
C600
C600
C600
C600
C600
ENDCHAR
STARTCHAR 2560
ENCODING 9568
SWIDTH 720 0
DWIDTH 18 0
BBX 13 31 5 -8
BITMAP
C600
C600
C600
C600
C600
C600
C600
C600
C600
C600
C600
C600
C7F8
C7F8
C000
C000
C000
C7F8
C7F8
C600
C600
C600
C600
C600
C600
C600
C600
C600
C600
C600
C600
ENDCHAR
STARTCHAR 2561
ENCODING 9569
SWIDTH 720 0
DWIDTH 18 0
BBX 10 31 0 -8
BITMAP
00C0
00C0
00C0
00C0
00C0
00C0
00C0
00C0
00C0
00C0
00C0
00C0
FFC0
FFC0
00C0
00C0
00C0
FFC0
FFC0
00C0
00C0
00C0
00C0
00C0
00C0
00C0
00C0
00C0
00C0
00C0
00C0
ENDCHAR
STARTCHAR 2562
ENCODING 9570
SWIDTH 720 0
DWIDTH 18 0
BBX 12 31 0 -8
BITMAP
0630
0630
0630
0630
0630
0630
0630
0630
0630
0630
0630
0630
0630
0630
FE30
FE30
0630
0630
0630
0630
0630
0630
0630
0630
0630
0630
0630
0630
0630
0630
0630
ENDCHAR
STARTCHAR 2563
ENCODING 9571
SWIDTH 720 0
DWIDTH 18 0
BBX 12 31 0 -8
BITMAP
0630
0630
0630
0630
0630
0630
0630
0630
0630
0630
0630
0630
FE30
FE30
0030
0030
0030
FE30
FE30
0630
0630
0630
0630
0630
0630
0630
0630
0630
0630
0630
0630
ENDCHAR
STARTCHAR 2564
ENCODING 9572
SWIDTH 720 0
DWIDTH 18 0
BBX 18 19 0 -8
BITMAP
FFFFC0
FFFFC0
000000
000000
000000
FFFFC0
FFFFC0
00C000
00C000
00C000
00C000
00C000
00C000
00C000
00C000
00C000
00C000
00C000
00C000
ENDCHAR
STARTCHAR 2565
ENCODING 9573
SWIDTH 720 0
DWIDTH 18 0
BBX 18 17 0 -8
BITMAP
FFFFC0
FFFFC0
063000
063000
063000
063000
063000
063000
063000
063000
063000
063000
063000
063000
063000
063000
063000
ENDCHAR
STARTCHAR 2566
ENCODING 9574
SWIDTH 720 0
DWIDTH 18 0
BBX 18 19 0 -8
BITMAP
FFFFC0
FFFFC0
000000
000000
000000
FE3FC0
FE3FC0
063000
063000
063000
063000
063000
063000
063000
063000
063000
063000
063000
063000
ENDCHAR
STARTCHAR 2567
ENCODING 9575
SWIDTH 720 0
DWIDTH 18 0
BBX 18 19 0 4
BITMAP
00C000
00C000
00C000
00C000
00C000
00C000
00C000
00C000
00C000
00C000
00C000
00C000
FFFFC0
FFFFC0
000000
000000
000000
FFFFC0
FFFFC0
ENDCHAR
STARTCHAR 2568
ENCODING 9576
SWIDTH 720 0
DWIDTH 18 0
BBX 18 16 0 7
BITMAP
063000
063000
063000
063000
063000
063000
063000
063000
063000
063000
063000
063000
063000
063000
FFFFC0
FFFFC0
ENDCHAR
STARTCHAR 2569
ENCODING 9577
SWIDTH 720 0
DWIDTH 18 0
BBX 18 19 0 4
BITMAP
063000
063000
063000
063000
063000
063000
063000
063000
063000
063000
063000
063000
FE3FC0
FE3FC0
000000
000000
000000
FFFFC0
FFFFC0
ENDCHAR
STARTCHAR 256A
ENCODING 9578
SWIDTH 720 0
DWIDTH 18 0
BBX 18 31 0 -8
BITMAP
00C000
00C000
00C000
00C000
00C000
00C000
00C000
00C000
00C000
00C000
00C000
00C000
FFFFC0
FFFFC0
00C000
00C000
00C000
FFFFC0
FFFFC0
00C000
00C000
00C000
00C000
00C000
00C000
00C000
00C000
00C000
00C000
00C000
00C000
ENDCHAR
STARTCHAR 256B
ENCODING 9579
SWIDTH 720 0
DWIDTH 18 0
BBX 18 31 0 -8
BITMAP
063000
063000
063000
063000
063000
063000
063000
063000
063000
063000
063000
063000
063000
063000
FFFFC0
FFFFC0
063000
063000
063000
063000
063000
063000
063000
063000
063000
063000
063000
063000
063000
063000
063000
ENDCHAR
STARTCHAR 256C
ENCODING 9580
SWIDTH 720 0
DWIDTH 18 0
BBX 19 31 -1 -8
BITMAP
031800
031800
031800
031800
031800
031800
031800
031800
031800
031800
031800
031800
FF1FE0
FF1FE0
000000
000000
000000
FF1FE0
FF1FE0
031800
031800
031800
031800
031800
031800
031800
031800
031800
031800
031800
031800
ENDCHAR
STARTCHAR 2580
ENCODING 9600
SWIDTH 720 0
DWIDTH 18 0
BBX 18 15 0 8
BITMAP
FFFFC0
FFFFC0
FFFFC0
FFFFC0
FFFFC0
FFFFC0
FFFFC0
FFFFC0
FFFFC0
FFFFC0
FFFFC0
FFFFC0
FFFFC0
FFFFC0
FFFFC0
ENDCHAR
STARTCHAR 2584
ENCODING 9604
SWIDTH 720 0
DWIDTH 18 0
BBX 18 15 0 -8
BITMAP
FFFFC0
FFFFC0
FFFFC0
FFFFC0
FFFFC0
FFFFC0
FFFFC0
FFFFC0
FFFFC0
FFFFC0
FFFFC0
FFFFC0
FFFFC0
FFFFC0
FFFFC0
ENDCHAR
STARTCHAR 2588
ENCODING 9608
SWIDTH 720 0
DWIDTH 18 0
BBX 18 31 0 -8
BITMAP
FFFFC0
FFFFC0
FFFFC0
FFFFC0
FFFFC0
FFFFC0
FFFFC0
FFFFC0
FFFFC0
FFFFC0
FFFFC0
FFFFC0
FFFFC0
FFFFC0
FFFFC0
FFFFC0
FFFFC0
FFFFC0
FFFFC0
FFFFC0
FFFFC0
FFFFC0
FFFFC0
FFFFC0
FFFFC0
FFFFC0
FFFFC0
FFFFC0
FFFFC0
FFFFC0
FFFFC0
ENDCHAR
STARTCHAR 258C
ENCODING 9612
SWIDTH 720 0
DWIDTH 18 0
BBX 9 31 0 -8
BITMAP
FF80
FF80
FF80
FF80
FF80
FF80
FF80
FF80
FF80
FF80
FF80
FF80
FF80
FF80
FF80
FF80
FF80
FF80
FF80
FF80
FF80
FF80
FF80
FF80
FF80
FF80
FF80
FF80
FF80
FF80
FF80
ENDCHAR
STARTCHAR 2590
ENCODING 9616
SWIDTH 720 0
DWIDTH 18 0
BBX 9 31 9 -8
BITMAP
FF80
FF80
FF80
FF80
FF80
FF80
FF80
FF80
FF80
FF80
FF80
FF80
FF80
FF80
FF80
FF80
FF80
FF80
FF80
FF80
FF80
FF80
FF80
FF80
FF80
FF80
FF80
FF80
FF80
FF80
FF80
ENDCHAR
STARTCHAR 2591
ENCODING 9617
SWIDTH 480 0
DWIDTH 12 0
BBX 11 19 1 -6
BITMAP
8880
0000
2220
0000
8880
0000
2220
0000
8880
0000
2220
0000
8880
0000
2220
0000
8880
0000
2220
ENDCHAR
STARTCHAR 2592
ENCODING 9618
SWIDTH 480 0
DWIDTH 12 0
BBX 12 19 0 -6
BITMAP
5550
0000
AAA0
0000
5550
0000
AAA0
0000
5550
0000
AAA0
0000
5550
0000
AAA0
0000
5550
0000
AAA0
ENDCHAR
STARTCHAR 2593
ENCODING 9619
SWIDTH 480 0
DWIDTH 12 0
BBX 12 20 0 -8
BITMAP
5550
FFF0
AAA0
FFF0
5550
FFF0
AAA0
FFF0
5550
FFF0
AAA0
FFF0
5550
FFF0
AAA0
FFF0
5550
FFF0
AAA0
FFF0
ENDCHAR
STARTCHAR 25A0
ENCODING 9632
SWIDTH 640 0
DWIDTH 16 0
BBX 12 12 2 0
BITMAP
FFF0
FFF0
FFF0
FFF0
FFF0
FFF0
FFF0
FFF0
FFF0
FFF0
FFF0
FFF0
ENDCHAR
STARTCHAR 25A1
ENCODING 9633
SWIDTH 640 0
DWIDTH 16 0
BBX 12 12 2 0
BITMAP
FFF0
8010
8010
8010
8010
8010
8010
8010
8010
8010
8010
FFF0
ENDCHAR
STARTCHAR 25AA
ENCODING 9642
SWIDTH 400 0
DWIDTH 10 0
BBX 6 6 2 5
BITMAP
FC
FC
FC
FC
FC
FC
ENDCHAR
STARTCHAR 25AB
ENCODING 9643
SWIDTH 360 0
DWIDTH 9 0
BBX 5 5 2 5
BITMAP
F8
88
88
88
F8
ENDCHAR
STARTCHAR 25AC
ENCODING 9644
SWIDTH 1000 0
DWIDTH 25 0
BBX 25 5 0 4
BITMAP
FFFFFF80
FFFFFF80
FFFFFF80
FFFFFF80
FFFFFF80
ENDCHAR
STARTCHAR 25B2
ENCODING 9650
SWIDTH 1000 0
DWIDTH 25 0
BBX 17 18 3 0
BITMAP
008000
008000
01C000
01C000
03E000
03E000
07F000
07F000
0FF800
0FF800
0FF800
1FFC00
1FFC00
3FFE00
3FFE00
7FFF00
7FFF00
FFFF80
ENDCHAR
STARTCHAR 25BA
ENCODING 9658
SWIDTH 1000 0
DWIDTH 25 0
BBX 18 17 3 0
BITMAP
800000
E00000
F80000
FE0000
FFC000
FFF000
FFFC00
FFFF00
FFFFC0
FFFF00
FFFC00
FFF000
FFC000
FE0000
F80000
E00000
800000
ENDCHAR
STARTCHAR 25BC
ENCODING 9660
SWIDTH 1000 0
DWIDTH 25 0
BBX 17 18 3 0
BITMAP
FFFF80
7FFF00
7FFF00
3FFE00
3FFE00
1FFC00
1FFC00
0FF800
0FF800
0FF800
07F000
07F000
03E000
03E000
01C000
01C000
008000
008000
ENDCHAR
STARTCHAR 25C4
ENCODING 9668
SWIDTH 1000 0
DWIDTH 25 0
BBX 18 17 3 0
BITMAP
000040
0001C0
0007C0
001FC0
00FFC0
03FFC0
0FFFC0
3FFFC0
FFFFC0
3FFFC0
0FFFC0
03FFC0
00FFC0
001FC0
0007C0
0001C0
000040
ENDCHAR
STARTCHAR 25CA
ENCODING 9674
SWIDTH 480 0
DWIDTH 12 0
BBX 11 18 1 0
BITMAP
0400
0A00
0A00
1100
3100
2080
4040
4040
8020
8020
4040
4040
2080
2180
1100
0A00
0A00
0400
ENDCHAR
STARTCHAR 25CB
ENCODING 9675
SWIDTH 600 0
DWIDTH 15 0
BBX 11 11 2 2
BITMAP
1F00
2080
4040
8020
8020
8020
8020
8020
4040
2080
1F00
ENDCHAR
STARTCHAR 25CF
ENCODING 9679
SWIDTH 600 0
DWIDTH 15 0
BBX 11 11 2 2
BITMAP
1F00
3F80
7FC0
FFE0
FFE0
FFE0
FFE0
FFE0
7FC0
3F80
1F00
ENDCHAR
STARTCHAR 25D8
ENCODING 9688
SWIDTH 640 0
DWIDTH 16 0
BBX 12 12 2 0
BITMAP
FFF0
FFF0
F0F0
E070
C030
C030
C030
C030
E070
F0F0
FFF0
FFF0
ENDCHAR
STARTCHAR 25D9
ENCODING 9689
SWIDTH 600 0
DWIDTH 15 0
BBX 14 14 0 0
BITMAP
FFFC
F87C
E01C
C78C
CFCC
9FE4
9FE4
9FE4
9FE4
CFCC
C78C
E01C
F87C
FFFC
ENDCHAR
STARTCHAR 25E6
ENCODING 9702
SWIDTH 320 0
DWIDTH 8 0
BBX 6 6 1 5
BITMAP
78
CC
84
84
CC
78
ENDCHAR
STARTCHAR 263A
ENCODING 9786
SWIDTH 1040 0
DWIDTH 26 0
BBX 16 16 5 -1
BITMAP
07E0
1818
300C
6006
4002
8C31
8C31
8001
8001
8001
8811
4422
63C6
300C
1818
07E0
ENDCHAR
STARTCHAR 263B
ENCODING 9787
SWIDTH 1040 0
DWIDTH 26 0
BBX 16 16 5 -1
BITMAP
07E0
1FF8
3FFC
7FFE
718E
F18F
F18F
FFFF
FFFF
F7EF
F3CF
781E
7C3E
3FFC
1FF8
07E0
ENDCHAR
STARTCHAR 263C
ENCODING 9788
SWIDTH 920 0
DWIDTH 23 0
BBX 23 23 0 -3
BITMAP
001000
001000
001000
101010
087C20
058340
020080
040040
040040
080020
080020
F8003E
080020
080020
040040
040040
020080
058340
087C20
101010
001000
001000
001000
ENDCHAR
STARTCHAR 2640
ENCODING 9792
SWIDTH 760 0
DWIDTH 19 0
BBX 13 24 3 -5
BITMAP
0F80
3060
6030
4010
8008
8008
8008
8008
8008
4010
6030
3060
0F80
0200
0200
0200
0200
0200
FFF8
0200
0200
0200
0200
0200
ENDCHAR
STARTCHAR 2642
ENCODING 9794
SWIDTH 760 0
DWIDTH 19 0
BBX 17 23 1 -3
BITMAP
000600
001E00
006B00
018900
021100
001100
002080
002080
004000
004000
0F8000
304000
602000
401000
800800
800800
800800
800800
800800
401000
603000
306000
0F8000
ENDCHAR
STARTCHAR 2660
ENCODING 9824
SWIDTH 520 0
DWIDTH 13 0
BBX 11 15 1 0
BITMAP
0400
0400
0400
0E00
1F00
3F80
7FC0
FFC0
FFE0
FFE0
FFE0
75C0
0400
1F00
7FC0
ENDCHAR
STARTCHAR 2663
ENCODING 9827
SWIDTH 760 0
DWIDTH 19 0
BBX 17 15 1 0
BITMAP
03E000
07F000
0FF800
0FF800
0FF800
77F700
7FFF00
FFFF80
FFFF80
FFFF80
7EBF00
3C9E00
01C000
03F000
1FFC00
ENDCHAR
STARTCHAR 2665
ENCODING 9829
SWIDTH 600 0
DWIDTH 15 0
BBX 13 15 1 0
BITMAP
78F0
FDF8
FDF8
FFF8
FFF8
7FF0
7FF0
3FE0
1FC0
1FC0
0F80
0700
0700
0200
0200
ENDCHAR
STARTCHAR 2666
ENCODING 9830
SWIDTH 520 0
DWIDTH 13 0
BBX 11 15 1 0
BITMAP
0400
0400
0E00
1F00
3F80
3F80
7FC0
FFE0
7FC0
3F80
3F80
1F00
0E00
0400
0400
ENDCHAR
STARTCHAR 266A
ENCODING 9834
SWIDTH 520 0
DWIDTH 13 0
BBX 11 17 1 0
BITMAP
0780
07C0
07E0
0460
0420
0420
0400
0400
0400
0400
0400
7C00
FC00
FC00
FC00
FC00
7000
ENDCHAR
STARTCHAR 266B
ENCODING 9835
SWIDTH 760 0
DWIDTH 19 0
BBX 14 21 2 -2
BITMAP
000C
007C
03FC
07F4
07C4
0604
0404
0404
0404
0404
0404
0404
047C
04FC
04FC
7CFC
FCF8
FC70
FC00
F800
7000
ENDCHAR
STARTCHAR E801
ENCODING 59393
SWIDTH 280 0
DWIDTH 7 0
BBX 5 17 0 0
BITMAP
80
00
00
40
70
78
08
08
08
08
08
08
08
08
08
08
08
ENDCHAR
STARTCHAR E802
ENCODING 59394
SWIDTH 440 0
DWIDTH 11 0
BBX 9 18 1 -4
BITMAP
8000
FF80
FF80
0180
0100
0100
0100
0100
0100
1100
0100
1100
0100
0100
0100
0100
0100
0100
ENDCHAR
STARTCHAR E803
ENCODING 59395
SWIDTH 440 0
DWIDTH 11 0
BBX 9 18 1 -4
BITMAP
8000
FF80
FF80
0180
0100
0100
0100
0100
0100
7D00
1100
1100
0100
0100
0100
0100
0100
0100
ENDCHAR
STARTCHAR E804
ENCODING 59396
SWIDTH 440 0
DWIDTH 11 0
BBX 11 19 -1 0
BITMAP
4000
6000
A000
2000
2000
2000
3FC0
3FE0
0020
0020
0020
0020
0060
00C0
0180
0300
0600
0600
0600
ENDCHAR
STARTCHAR E805
ENCODING 59397
SWIDTH 440 0
DWIDTH 11 0
BBX 11 19 -1 0
BITMAP
4000
6000
A000
2000
2000
2000
3FC0
3FE0
0020
0020
0020
0020
0860
00C0
0180
0300
0600
0600
0600
ENDCHAR
STARTCHAR E818
ENCODING 59416
SWIDTH 200 0
DWIDTH 5 0
BBX 7 7 0 15
BITMAP
18
60
18
62
12
BC
E0
ENDCHAR
STARTCHAR E83A
ENCODING 59450
SWIDTH 640 0
DWIDTH 16 0
BBX 17 2 -1 4
BITMAP
FFFF80
FFFF80
ENDCHAR
STARTCHAR F001
ENCODING 61441
SWIDTH 560 0
DWIDTH 14 0
BBX 13 18 0 0
BITMAP
07C0
18E0
1060
3000
3000
3000
FFE0
3060
3060
3060
3060
3060
3060
3060
3060
3060
3060
FDF8
ENDCHAR
STARTCHAR F002
ENCODING 61442
SWIDTH 560 0
DWIDTH 14 0
BBX 13 18 0 0
BITMAP
0720
19E0
1060
3060
3060
3060
FFE0
3060
3060
3060
3060
3060
3060
3060
3060
3060
3060
FDF8
ENDCHAR
STARTCHAR F004
ENCODING 61444
SWIDTH 320 0
DWIDTH 8 0
BBX 3 5 2 -6
BITMAP
C0
E0
20
20
C0
ENDCHAR
STARTCHAR F005
ENCODING 61445
SWIDTH 320 0
DWIDTH 8 0
BBX 4 4 2 -5
BITMAP
60
30
30
E0
ENDCHAR
STARTCHAR F006
ENCODING 61446
SWIDTH 0 0
DWIDTH 0 0
BBX 2 2 -6 21
BITMAP
40
80
ENDCHAR
STARTCHAR F007
ENCODING 61447
SWIDTH 0 0
DWIDTH 0 0
BBX 3 2 -10 21
BITMAP
60
80
ENDCHAR
STARTCHAR F008
ENCODING 61448
SWIDTH 0 0
DWIDTH 0 0
BBX 3 4 -6 14
BITMAP
60
40
80
80
ENDCHAR
STARTCHAR F009
ENCODING 61449
SWIDTH 0 0
DWIDTH 0 0
BBX 3 4 -8 19
BITMAP
60
40
80
80
ENDCHAR
STARTCHAR F00A
ENCODING 61450
SWIDTH 760 0
DWIDTH 19 0
BBX 13 16 3 0
BITMAP
FFF8
8008
8008
8008
8008
8008
8008
8008
8008
8008
8008
8008
8008
8008
8008
8008
ENDCHAR
STARTCHAR F00B
ENCODING 61451
SWIDTH 760 0
DWIDTH 19 0
BBX 13 16 3 0
BITMAP
FFF8
8008
8008
8008
8008
8008
8008
8008
8008
8008
8008
8008
8008
8008
8008
8008
ENDCHAR
STARTCHAR F00C
ENCODING 61452
SWIDTH 760 0
DWIDTH 19 0
BBX 13 16 3 0
BITMAP
FFF8
8008
8008
8008
8008
8008
8008
8008
8008
8008
8008
8008
8008
8008
8008
8008
ENDCHAR
STARTCHAR F00D
ENCODING 61453
SWIDTH 760 0
DWIDTH 19 0
BBX 13 16 3 0
BITMAP
FFF8
8008
8008
8008
8008
8008
8008
8008
8008
8008
8008
8008
8008
8008
8008
8008
ENDCHAR
STARTCHAR F00E
ENCODING 61454
SWIDTH 760 0
DWIDTH 19 0
BBX 13 16 3 0
BITMAP
FFF8
8008
8008
8008
8008
8008
8008
8008
8008
8008
8008
8008
8008
8008
8008
8008
ENDCHAR
STARTCHAR F00F
ENCODING 61455
SWIDTH 0 0
DWIDTH 0 0
BBX 3 4 -8 14
BITMAP
C0
40
20
20
ENDCHAR
STARTCHAR F010
ENCODING 61456
SWIDTH 0 0
DWIDTH 0 0
BBX 4 3 -5 20
BITMAP
F0
10
60
ENDCHAR
STARTCHAR F011
ENCODING 61457
SWIDTH 0 0
DWIDTH 0 0
BBX 4 3 -10 20
BITMAP
F0
10
60
ENDCHAR
STARTCHAR F012
ENCODING 61458
SWIDTH 0 0
DWIDTH 0 0
BBX 4 4 -6 14
BITMAP
F0
90
20
40
ENDCHAR
STARTCHAR F013
ENCODING 61459
SWIDTH 0 0
DWIDTH 0 0
BBX 4 4 -8 18
BITMAP
F0
90
20
40
ENDCHAR
STARTCHAR F014
ENCODING 61460
SWIDTH 0 0
DWIDTH 0 0
BBX 4 4 -8 14
BITMAP
F0
90
20
40
ENDCHAR
STARTCHAR F015
ENCODING 61461
SWIDTH 0 0
DWIDTH 0 0
BBX 8 2 -13 21
BITMAP
71
8E
ENDCHAR
STARTCHAR F016
ENCODING 61462
SWIDTH 0 0
DWIDTH 0 0
BBX 9 2 -14 20
BITMAP
7880
8700
ENDCHAR
STARTCHAR F017
ENCODING 61463
SWIDTH 0 0
DWIDTH 0 0
BBX 9 2 -14 20
BITMAP
7880
8700
ENDCHAR
STARTCHAR F018
ENCODING 61464
SWIDTH 0 0
DWIDTH 0 0
BBX 9 2 -15 20
BITMAP
7880
8700
ENDCHAR
STARTCHAR F019
ENCODING 61465
SWIDTH 0 0
DWIDTH 0 0
BBX 9 2 -10 15
BITMAP
7880
8700
ENDCHAR
STARTCHAR F01A
ENCODING 61466
SWIDTH 0 0
DWIDTH 0 0
BBX 9 2 -11 15
BITMAP
7880
8700
ENDCHAR
STARTCHAR F01B
ENCODING 61467
SWIDTH 0 0
DWIDTH 0 0
BBX 9 2 -12 15
BITMAP
7880
8700
ENDCHAR
STARTCHAR F01C
ENCODING 61468
SWIDTH 0 0
DWIDTH 0 0
BBX 9 2 -8 20
BITMAP
7880
8700
ENDCHAR
STARTCHAR F01D
ENCODING 61469
SWIDTH 0 0
DWIDTH 0 0
BBX 9 2 -8 15
BITMAP
7880
8700
ENDCHAR
STARTCHAR F01E
ENCODING 61470
SWIDTH 0 0
DWIDTH 0 0
BBX 2 2 -9 -3
BITMAP
C0
C0
ENDCHAR
STARTCHAR F01F
ENCODING 61471
SWIDTH 0 0
DWIDTH 0 0
BBX 2 2 -10 -3
BITMAP
C0
C0
ENDCHAR
STARTCHAR F020
ENCODING 61472
SWIDTH 0 0
DWIDTH 0 0
BBX 2 2 -10 -3
BITMAP
C0
C0
ENDCHAR
STARTCHAR F021
ENCODING 61473
SWIDTH 0 0
DWIDTH 0 0
BBX 2 2 -10 -3
BITMAP
C0
C0
ENDCHAR
STARTCHAR F022
ENCODING 61474
SWIDTH 0 0
DWIDTH 0 0
BBX 2 2 -11 -3
BITMAP
C0
C0
ENDCHAR
STARTCHAR F023
ENCODING 61475
SWIDTH 0 0
DWIDTH 0 0
BBX 2 2 -7 -3
BITMAP
C0
C0
ENDCHAR
STARTCHAR F024
ENCODING 61476
SWIDTH 0 0
DWIDTH 0 0
BBX 2 2 -6 -3
BITMAP
C0
C0
ENDCHAR
STARTCHAR F025
ENCODING 61477
SWIDTH 0 0
DWIDTH 0 0
BBX 2 2 -7 -3
BITMAP
C0
C0
ENDCHAR
STARTCHAR F026
ENCODING 61478
SWIDTH 0 0
DWIDTH 0 0
BBX 2 2 -8 -3
BITMAP
C0
C0
ENDCHAR
STARTCHAR F027
ENCODING 61479
SWIDTH 0 0
DWIDTH 0 0
BBX 2 2 -7 -3
BITMAP
C0
C0
ENDCHAR
STARTCHAR F028
ENCODING 61480
SWIDTH 0 0
DWIDTH 0 0
BBX 2 2 -8 -3
BITMAP
C0
C0
ENDCHAR
STARTCHAR F029
ENCODING 61481
SWIDTH 0 0
DWIDTH 0 0
BBX 2 2 -5 -3
BITMAP
C0
C0
ENDCHAR
STARTCHAR F02A
ENCODING 61482
SWIDTH 0 0
DWIDTH 0 0
BBX 2 2 -5 -3
BITMAP
C0
C0
ENDCHAR
STARTCHAR F02B
ENCODING 61483
SWIDTH 0 0
DWIDTH 0 0
BBX 2 2 -10 -3
BITMAP
C0
C0
ENDCHAR
STARTCHAR F02C
ENCODING 61484
SWIDTH 0 0
DWIDTH 0 0
BBX 2 2 -4 -3
BITMAP
C0
C0
ENDCHAR
STARTCHAR F02D
ENCODING 61485
SWIDTH 0 0
DWIDTH 0 0
BBX 8 2 -11 21
BITMAP
71
8E
ENDCHAR
STARTCHAR F02E
ENCODING 61486
SWIDTH 0 0
DWIDTH 0 0
BBX 9 2 -12 20
BITMAP
7880
8700
ENDCHAR
STARTCHAR F02F
ENCODING 61487
SWIDTH 0 0
DWIDTH 0 0
BBX 8 2 -13 21
BITMAP
71
8E
ENDCHAR
STARTCHAR F030
ENCODING 61488
SWIDTH 0 0
DWIDTH 0 0
BBX 9 2 -14 20
BITMAP
7880
8700
ENDCHAR
STARTCHAR F031
ENCODING 61489
SWIDTH 240 0
DWIDTH 6 0
BBX 6 12 0 0
BITMAP
30
F0
30
30
30
30
30
30
30
30
30
FC
ENDCHAR
STARTCHAR FB01
ENCODING 64257
SWIDTH 560 0
DWIDTH 14 0
BBX 13 18 0 0
BITMAP
07C0
18E0
1060
3000
3000
3000
FFE0
3060
3060
3060
3060
3060
3060
3060
3060
3060
3060
FDF8
ENDCHAR
STARTCHAR FB02
ENCODING 64258
SWIDTH 560 0
DWIDTH 14 0
BBX 13 18 0 0
BITMAP
0720
19E0
1060
3060
3060
3060
FFE0
3060
3060
3060
3060
3060
3060
3060
3060
3060
3060
FDF8
ENDCHAR
STARTCHAR FB1D
ENCODING 64285
SWIDTH 280 0
DWIDTH 7 0
BBX 5 11 1 3
BITMAP
80
F0
F8
08
08
08
08
10
00
00
20
ENDCHAR
STARTCHAR FB1E
ENCODING 64286
SWIDTH 0 0
DWIDTH 0 0
BBX 8 3 -4 15
BITMAP
C3
7E
3C
ENDCHAR
STARTCHAR FB1F
ENCODING 64287
SWIDTH 520 0
DWIDTH 13 0
BBX 12 10 1 4
BITMAP
8200
F3C0
FBE0
0820
0820
0820
0820
1040
0000
1FF0
ENDCHAR
STARTCHAR FB20
ENCODING 64288
SWIDTH 440 0
DWIDTH 11 0
BBX 9 14 1 0
BITMAP
8400
F780
7380
2080
2100
2100
3100
3200
1200
1200
1200
1200
FE00
FC00
ENDCHAR
STARTCHAR FB2A
ENCODING 64298
SWIDTH 600 0
DWIDTH 15 0
BBX 13 17 1 0
BITMAP
0010
0000
0000
8420
F7B8
F3B8
4108
4108
4210
4210
4210
4420
4420
2420
2840
1FC0
1FC0
ENDCHAR
STARTCHAR FB2B
ENCODING 64299
SWIDTH 600 0
DWIDTH 15 0
BBX 13 17 1 0
BITMAP
2000
0000
0000
8420
F7B8
F3B8
4108
4108
4210
4210
4210
4420
4420
2420
2840
1FC0
1FC0
ENDCHAR
STARTCHAR FB2C
ENCODING 64300
SWIDTH 600 0
DWIDTH 15 0
BBX 13 17 1 0
BITMAP
0010
0000
0000
8420
F7B8
F3B8
4108
4108
4210
4210
4210
44A0
4420
2420
2840
1FC0
1FC0
ENDCHAR
STARTCHAR FB2D
ENCODING 64301
SWIDTH 600 0
DWIDTH 15 0
BBX 13 17 1 0
BITMAP
2000
0000
0000
8420
F7B8
F3B8
4108
4108
4210
4210
4210
44A0
4420
2420
2840
1FC0
1FC0
ENDCHAR
STARTCHAR FB2E
ENCODING 64302
SWIDTH 480 0
DWIDTH 12 0
BBX 10 17 1 -3
BITMAP
8200
8380
C3C0
E100
6100
3200
3A00
4E00
8600
C700
C380
61C0
60C0
E040
0000
0000
1F00
ENDCHAR
STARTCHAR FB2F
ENCODING 64303
SWIDTH 480 0
DWIDTH 12 0
BBX 10 19 1 -5
BITMAP
8200
8380
C3C0
E100
6100
3200
3A00
4E00
8600
C700
C380
61C0
60C0
E040
0000
0000
1F00
0400
0400
ENDCHAR
STARTCHAR FB30
ENCODING 64304
SWIDTH 480 0
DWIDTH 12 0
BBX 10 14 1 0
BITMAP
8200
8380
C3C0
E100
6100
3200
3A00
4E00
8600
C700
C380
61C0
64C0
E040
ENDCHAR
STARTCHAR FB31
ENCODING 64305
SWIDTH 440 0
DWIDTH 11 0
BBX 9 14 1 0
BITMAP
8000
FE00
FF00
0300
0100
0100
0100
1100
0100
0100
0100
0200
FF80
FF80
ENDCHAR
STARTCHAR FB32
ENCODING 64306
SWIDTH 320 0
DWIDTH 8 0
BBX 8 14 0 0
BITMAP
40
7C
3C
0C
04
04
24
04
06
06
0B
13
F3
F1
ENDCHAR
STARTCHAR FB33
ENCODING 64307
SWIDTH 400 0
DWIDTH 10 0
BBX 8 14 1 0
BITMAP
80
FF
FF
03
02
04
04
24
04
04
04
04
04
04
ENDCHAR
STARTCHAR FB34
ENCODING 64308
SWIDTH 480 0
DWIDTH 12 0
BBX 10 14 1 0
BITMAP
8000
FFC0
FFC0
0040
0080
0080
0080
0880
8080
8080
8080
8080
8080
8080
ENDCHAR
STARTCHAR FB35
ENCODING 64309
SWIDTH 280 0
DWIDTH 7 0
BBX 4 14 1 0
BITMAP
80
E0
F0
10
10
10
10
90
10
10
10
10
10
10
ENDCHAR
STARTCHAR FB36
ENCODING 64310
SWIDTH 320 0
DWIDTH 8 0
BBX 7 14 0 0
BITMAP
20
3E
3E
10
10
10
10
90
10
10
10
10
10
10
ENDCHAR
STARTCHAR FB38
ENCODING 64312
SWIDTH 480 0
DWIDTH 12 0
BBX 10 14 1 0
BITMAP
8000
F380
F780
44C0
4840
4840
4040
4440
4040
4040
6080
2080
3F80
3F00
ENDCHAR
STARTCHAR FB39
ENCODING 64313
SWIDTH 280 0
DWIDTH 7 0
BBX 5 8 1 6
BITMAP
80
F0
F8
08
48
08
08
10
ENDCHAR
STARTCHAR FB3A
ENCODING 64314
SWIDTH 440 0
DWIDTH 11 0
BBX 9 18 1 -4
BITMAP
8000
FF80
FF80
0180
0100
0100
0100
1100
0100
0100
0100
0100
0100
0100
0100
0100
0100
0100
ENDCHAR
STARTCHAR FB3B
ENCODING 64315
SWIDTH 440 0
DWIDTH 11 0
BBX 9 14 1 0
BITMAP
8000
FE00
FF00
0100
0080
0080
0080
1080
0080
0080
0080
0180
7F00
FE00
ENDCHAR
STARTCHAR FB3C
ENCODING 64316
SWIDTH 440 0
DWIDTH 11 0
BBX 10 19 0 0
BITMAP
8000
C000
4000
4000
4000
4000
7F80
7FC0
0040
0040
0840
0040
00C0
0180
0300
0600
0C00
0C00
0C00
ENDCHAR
STARTCHAR FB3E
ENCODING 64318
SWIDTH 480 0
DWIDTH 12 0
BBX 10 14 1 0
BITMAP
8000
F200
F780
1980
20C0
2040
4040
4440
4040
8040
8040
8040
8F80
9F80
ENDCHAR
STARTCHAR FB40
ENCODING 64320
SWIDTH 320 0
DWIDTH 8 0
BBX 7 14 0 0
BITMAP
40
7C
3E
02
02
02
02
12
02
02
02
02
7E
FE
ENDCHAR
STARTCHAR FB41
ENCODING 64321
SWIDTH 480 0
DWIDTH 12 0
BBX 10 14 1 0
BITMAP
8000
FF00
FF80
4080
8040
8040
8040
8440
8040
8040
C0C0
6080
7F80
1F00
ENDCHAR
STARTCHAR FB43
ENCODING 64323
SWIDTH 440 0
DWIDTH 11 0
BBX 9 18 1 -4
BITMAP
8000
FE00
FF00
C180
8080
8080
C080
F480
F080
8080
0080
0080
0080
0080
0080
0080
0080
0080
ENDCHAR
STARTCHAR FB44
ENCODING 64324
SWIDTH 440 0
DWIDTH 11 0
BBX 9 14 1 0
BITMAP
8000
FE00
FF00
4100
8080
8080
E080
F480
8080
0080
0080
0180
FF00
FE00
ENDCHAR
STARTCHAR FB46
ENCODING 64326
SWIDTH 480 0
DWIDTH 12 0
BBX 10 14 1 0
BITMAP
8200
F3C0
F3C0
1100
1200
1400
1400
9C00
0C00
0600
0300
0180
FFC0
FFC0
ENDCHAR
STARTCHAR FB47
ENCODING 64327
SWIDTH 480 0
DWIDTH 12 0
BBX 10 18 1 -4
BITMAP
8000
FF80
FFC0
0040
0040
0040
8840
8040
8180
8200
8C00
9800
9800
9800
8000
8000
8000
8000
ENDCHAR
STARTCHAR FB48
ENCODING 64328
SWIDTH 480 0
DWIDTH 12 0
BBX 10 14 1 0
BITMAP
8000
FF80
FFC0
00C0
0040
0040
0040
0840
0040
0040
0040
0040
0040
0040
ENDCHAR
STARTCHAR FB49
ENCODING 64329
SWIDTH 600 0
DWIDTH 15 0
BBX 13 14 1 0
BITMAP
8420
F7B8
F3B8
4108
4108
4210
4210
4210
44A0
4420
2420
2840
1FC0
1FC0
ENDCHAR
STARTCHAR FB4A
ENCODING 64330
SWIDTH 520 0
DWIDTH 13 0
BBX 12 14 0 0
BITMAP
4000
7FC0
7FF0
0830
1010
2010
2010
2210
2010
2010
3010
3010
F010
F010
ENDCHAR
STARTCHAR FB4B
ENCODING 64331
SWIDTH 280 0
DWIDTH 7 0
BBX 4 17 1 0
BITMAP
20
00
00
80
E0
F0
10
10
10
10
10
10
10
10
10
10
10
ENDCHAR
STARTCHAR FB4C
ENCODING 64332
SWIDTH 440 0
DWIDTH 11 0
BBX 9 16 1 0
BITMAP
3E00
0000
8000
FE00
FF00
0300
0100
0100
0100
0100
0100
0100
0100
0200
FF80
FF80
ENDCHAR
STARTCHAR FB4D
ENCODING 64333
SWIDTH 440 0
DWIDTH 11 0
BBX 9 17 1 0
BITMAP
3E00
0000
0000
8000
FE00
FF00
0100
0080
0080
0080
0080
0080
0080
0080
0180
7F00
FE00
ENDCHAR
STARTCHAR FB4E
ENCODING 64334
SWIDTH 440 0
DWIDTH 11 0
BBX 9 16 1 0
BITMAP
3E00
0000
8000
FE00
FF00
4100
8080
8080
E080
F080
8080
0080
0080
0180
FF00
FE00
ENDCHAR
STARTCHAR FB4F
ENCODING 64335
SWIDTH 520 0
DWIDTH 13 0
BBX 12 19 0 0
BITMAP
8000
C000
4000
4000
4000
4080
70E0
7870
0C40
0C40
0680
0B80
1380
2180
30C0
3060
1870
1830
3810
ENDCHAR
STARTCHAR FB50
ENCODING 64336
SWIDTH 200 0
DWIDTH 5 0
BBX 5 19 0 3
BITMAP
38
68
F0
80
10
10
10
10
10
10
10
10
10
10
10
10
10
10
10
ENDCHAR
STARTCHAR FB51
ENCODING 64337
SWIDTH 240 0
DWIDTH 6 0
BBX 6 18 0 4
BITMAP
38
68
F0
80
20
60
60
20
20
20
20
20
20
20
20
30
1C
1C
ENDCHAR
STARTCHAR FB52
ENCODING 64338
SWIDTH 720 0
DWIDTH 18 0
BBX 17 16 1 -4
BITMAP
400100
800100
800180
800080
800080
E00080
7FFF80
3FFF80
000000
000000
008000
01C000
008000
004000
00E000
004000
ENDCHAR
STARTCHAR FB53
ENCODING 64339
SWIDTH 720 0
DWIDTH 18 0
BBX 17 16 1 -4
BITMAP
400100
800100
800180
800080
800080
E00080
7FFF80
3FFF80
000000
000000
008000
01C000
008000
004000
00E000
004000
ENDCHAR
STARTCHAR FB54
ENCODING 64340
SWIDTH 240 0
DWIDTH 6 0
BBX 7 16 -1 -4
BITMAP
04
0E
06
06
02
02
FE
FE
00
00
10
38
10
08
1C
08
ENDCHAR
STARTCHAR FB55
ENCODING 64341
SWIDTH 240 0
DWIDTH 6 0
BBX 7 16 -1 -4
BITMAP
04
0E
06
06
02
02
FE
FE
00
00
10
38
10
08
1C
08
ENDCHAR
STARTCHAR FB56
ENCODING 64342
SWIDTH 720 0
DWIDTH 18 0
BBX 17 16 1 -4
BITMAP
400100
800100
800180
800080
800080
E00080
7FFF80
3FFF80
000000
000000
002000
017000
03A000
014000
00E000
004000
ENDCHAR
STARTCHAR FB57
ENCODING 64343
SWIDTH 720 0
DWIDTH 18 0
BBX 17 16 1 -4
BITMAP
400100
800100
800180
800080
800080
E00080
7FFF80
3FFF80
000000
000000
002000
017000
03A000
014000
00E000
004000
ENDCHAR
STARTCHAR FB58
ENCODING 64344
SWIDTH 240 0
DWIDTH 6 0
BBX 7 16 -1 -4
BITMAP
04
06
06
02
02
02
FE
FE
00
00
04
2E
74
28
1C
08
ENDCHAR
STARTCHAR FB59
ENCODING 64345
SWIDTH 240 0
DWIDTH 6 0
BBX 7 16 -1 -4
BITMAP
04
06
06
02
02
02
FE
FE
00
00
04
2E
74
28
1C
08
ENDCHAR
STARTCHAR FB5A
ENCODING 64346
SWIDTH 720 0
DWIDTH 18 0
BBX 17 17 1 -5
BITMAP
400100
800100
800180
800080
800080
E00080
7FFF80
3FFF80
000000
000000
004000
02E000
074000
022000
017000
03A000
010000
ENDCHAR
STARTCHAR FB5B
ENCODING 64347
SWIDTH 720 0
DWIDTH 18 0
BBX 17 17 1 -5
BITMAP
400100
800100
800180
800080
800080
E00080
7FFF80
3FFF80
000000
000000
004000
02E000
074000
022000
017000
03A000
010000
ENDCHAR
STARTCHAR FB5C
ENCODING 64348
SWIDTH 240 0
DWIDTH 6 0
BBX 7 17 -1 -5
BITMAP
04
0E
06
06
02
02
FE
FE
00
00
08
5C
E8
44
2E
74
20
ENDCHAR
STARTCHAR FB5D
ENCODING 64349
SWIDTH 240 0
DWIDTH 6 0
BBX 7 17 -1 -5
BITMAP
04
0E
06
06
02
02
FE
FE
00
00
08
5C
E8
44
2E
74
20
ENDCHAR
STARTCHAR FB5E
ENCODING 64350
SWIDTH 720 0
DWIDTH 18 0
BBX 17 15 1 4
BITMAP
010000
038000
010000
008000
01C000
008000
000000
400100
800100
800180
800080
800080
E00080
7FFF80
3FFF80
ENDCHAR
STARTCHAR FB5F
ENCODING 64351
SWIDTH 720 0
DWIDTH 18 0
BBX 17 15 1 4
BITMAP
010000
038000
010000
008000
01C000
008000
000000
400100
800100
800180
800080
800080
E00080
7FFF80
3FFF80
ENDCHAR
STARTCHAR FB60
ENCODING 64352
SWIDTH 240 0
DWIDTH 6 0
BBX 7 15 -1 4
BITMAP
10
38
10
08
1C
08
00
04
0E
06
06
02
02
FE
FE
ENDCHAR
STARTCHAR FB61
ENCODING 64353
SWIDTH 240 0
DWIDTH 6 0
BBX 7 15 -1 4
BITMAP
10
38
10
08
1C
08
00
04
0E
06
06
02
02
FE
FE
ENDCHAR
STARTCHAR FB62
ENCODING 64354
SWIDTH 720 0
DWIDTH 18 0
BBX 17 15 1 4
BITMAP
004000
02E000
074000
022000
017000
03A000
010000
400100
800100
800180
800080
800080
E00080
7FFF80
3FFF80
ENDCHAR
STARTCHAR FB63
ENCODING 64355
SWIDTH 720 0
DWIDTH 18 0
BBX 17 15 1 4
BITMAP
004000
02E000
074000
022000
017000
03A000
010000
400100
800100
800180
800080
800080
E00080
7FFF80
3FFF80
ENDCHAR
STARTCHAR FB64
ENCODING 64356
SWIDTH 240 0
DWIDTH 6 0
BBX 7 15 -1 4
BITMAP
08
5C
E8
44
2E
74
20
04
0E
06
06
02
02
FE
FE
ENDCHAR
STARTCHAR FB65
ENCODING 64357
SWIDTH 240 0
DWIDTH 6 0
BBX 7 15 -1 4
BITMAP
08
5C
E8
44
2E
74
20
04
0E
06
06
02
02
FE
FE
ENDCHAR
STARTCHAR FB66
ENCODING 64358
SWIDTH 720 0
DWIDTH 18 0
BBX 17 17 1 4
BITMAP
010000
018000
010000
008000
008000
00B800
00C800
07F800
000000
400100
800100
800180
800080
800080
E00080
7FFF80
3FFF80
ENDCHAR
STARTCHAR FB67
ENCODING 64359
SWIDTH 720 0
DWIDTH 18 0
BBX 17 17 1 4
BITMAP
010000
018000
010000
008000
008000
00B800
00C800
07F800
000000
400100
800100
800180
800080
800080
E00080
7FFF80
3FFF80
ENDCHAR
STARTCHAR FB68
ENCODING 64360
SWIDTH 240 0
DWIDTH 6 0
BBX 8 17 -1 4
BITMAP
20
30
20
10
10
17
19
FF
00
04
0E
06
06
02
02
FE
FE
ENDCHAR
STARTCHAR FB69
ENCODING 64361
SWIDTH 240 0
DWIDTH 6 0
BBX 8 17 -1 4
BITMAP
20
30
20
10
10
17
19
FF
00
04
0E
06
06
02
02
FE
FE
ENDCHAR
STARTCHAR FB6A
ENCODING 64362
SWIDTH 800 0
DWIDTH 20 0
BBX 20 16 0 4
BITMAP
000100
000380
000120
000170
0003A0
000100
000000
000000
400060
8000F0
800190
800190
C001F0
F00070
7FFFF0
1FFFF0
ENDCHAR
STARTCHAR FB6B
ENCODING 64363
SWIDTH 800 0
DWIDTH 20 0
BBX 20 16 0 4
BITMAP
000100
000380
000120
000170
0003A0
000100
000000
000000
400060
8000F0
800190
800190
C001F0
F00070
7FFFF0
1FFFF0
ENDCHAR
STARTCHAR FB6C
ENCODING 64364
SWIDTH 280 0
DWIDTH 7 0
BBX 8 17 -1 4
BITMAP
20
70
24
2E
74
20
00
0C
1E
16
13
1F
0F
01
01
FF
FF
ENDCHAR
STARTCHAR FB6D
ENCODING 64365
SWIDTH 280 0
DWIDTH 7 0
BBX 8 16 -1 4
BITMAP
20
70
24
2E
74
20
00
00
0E
1F
13
11
1F
03
FF
FF
ENDCHAR
STARTCHAR FB6E
ENCODING 64366
SWIDTH 800 0
DWIDTH 20 0
BBX 21 15 0 4
BITMAP
000020
000170
0003A0
000110
0000B8
0001D0
000080
400060
8000F0
800190
800190
C001F0
F00070
7FFFF0
1FFFF0
ENDCHAR
STARTCHAR FB6F
ENCODING 64367
SWIDTH 800 0
DWIDTH 20 0
BBX 21 15 0 4
BITMAP
000020
000170
0003A0
000110
0000B8
0001D0
000080
400060
8000F0
800190
800190
C001F0
F00070
7FFFF0
1FFFF0
ENDCHAR
STARTCHAR FB70
ENCODING 64368
SWIDTH 280 0
DWIDTH 7 0
BBX 8 17 -1 4
BITMAP
08
5C
E8
44
2E
74
20
0C
1E
16
13
1F
0F
01
01
FF
FF
ENDCHAR
STARTCHAR FB71
ENCODING 64369
SWIDTH 280 0
DWIDTH 7 0
BBX 8 17 -1 4
BITMAP
08
5C
E8
44
2E
74
20
00
00
0E
1F
13
11
1F
03
FF
FF
ENDCHAR
STARTCHAR FB72
ENCODING 64370
SWIDTH 560 0
DWIDTH 14 0
BBX 11 15 1 -5
BITMAP
7FE0
FFE0
0F00
1800
2000
4400
8E00
8400
8200
8700
C200
E000
7800
3FE0
0FC0
ENDCHAR
STARTCHAR FB73
ENCODING 64371
SWIDTH 520 0
DWIDTH 13 0
BBX 12 15 1 -5
BITMAP
7FE0
FFE0
0700
1900
21F0
48F0
9C00
8800
8400
8E00
C400
E000
7800
3FE0
0FC0
ENDCHAR
STARTCHAR FB74
ENCODING 64372
SWIDTH 520 0
DWIDTH 13 0
BBX 14 15 -1 -4
BITMAP
0F00
1F80
03C0
00E0
0070
FFFC
FFFC
0000
0000
0200
0700
0200
0100
0380
0100
ENDCHAR
STARTCHAR FB75
ENCODING 64373
SWIDTH 520 0
DWIDTH 13 0
BBX 14 15 -1 -4
BITMAP
0F00
1F80
03C0
00E0
0070
FFFC
FFFC
0000
0000
0200
0700
0200
0100
0380
0100
ENDCHAR
STARTCHAR FB76
ENCODING 64374
SWIDTH 560 0
DWIDTH 14 0
BBX 11 15 1 -5
BITMAP
7FE0
FFE0
0F00
1800
2000
4000
8040
82E0
8740
8200
C000
E000
7800
3FE0
0FC0
ENDCHAR
STARTCHAR FB77
ENCODING 64375
SWIDTH 520 0
DWIDTH 13 0
BBX 12 15 1 -5
BITMAP
7FE0
FFE0
0700
1900
21F0
40F0
8200
9700
BA00
9000
C000
E000
7800
3FE0
0FC0
ENDCHAR
STARTCHAR FB78
ENCODING 64376
SWIDTH 520 0
DWIDTH 13 0
BBX 14 13 -1 -2
BITMAP
0F00
1F80
03C0
00E0
0070
FFFC
FFFC
0000
0000
0080
05C0
0E80
0400
ENDCHAR
STARTCHAR FB79
ENCODING 64377
SWIDTH 520 0
DWIDTH 13 0
BBX 14 13 -1 -2
BITMAP
0F00
1F80
03C0
00E0
0070
FFFC
FFFC
0000
0000
0080
05C0
0E80
0400
ENDCHAR
STARTCHAR FB7A
ENCODING 64378
SWIDTH 560 0
DWIDTH 14 0
BBX 11 15 1 -5
BITMAP
7FE0
FFE0
0F00
1800
2000
4080
85C0
8E80
8500
8380
C100
E000
7800
3FE0
0FC0
ENDCHAR
STARTCHAR FB7B
ENCODING 64379
SWIDTH 520 0
DWIDTH 13 0
BBX 12 15 1 -5
BITMAP
7FE0
FFE0
0700
1900
21F0
40F0
8200
9700
BA00
9200
C700
E200
7800
3FE0
0FC0
ENDCHAR
STARTCHAR FB7C
ENCODING 64380
SWIDTH 520 0
DWIDTH 13 0
BBX 14 15 -1 -4
BITMAP
0F00
1F80
03C0
00E0
0070
FFFC
FFFC
0000
0000
0080
05C0
0E80
0480
01C0
0080
ENDCHAR
STARTCHAR FB7D
ENCODING 64381
SWIDTH 520 0
DWIDTH 13 0
BBX 14 15 -1 -4
BITMAP
0F00
1F80
03C0
00E0
0070
FFFC
FFFC
0000
0000
0080
05C0
0E80
0480
01C0
0080
ENDCHAR
STARTCHAR FB7E
ENCODING 64382
SWIDTH 560 0
DWIDTH 14 0
BBX 11 15 1 -5
BITMAP
7FE0
FFE0
0F00
1800
2000
4100
8B80
9D00
8880
85C0
CE80
E400
7800
3FE0
0FC0
ENDCHAR
STARTCHAR FB7F
ENCODING 64383
SWIDTH 520 0
DWIDTH 13 0
BBX 12 15 1 -5
BITMAP
7FE0
FFE0
0700
1900
25F0
6EF0
F400
A200
9700
BA00
D000
E000
7800
3FE0
0FC0
ENDCHAR
STARTCHAR FB80
ENCODING 64384
SWIDTH 520 0
DWIDTH 13 0
BBX 14 16 -1 -5
BITMAP
0F00
1F80
03C0
00E0
0070
FFFC
FFFC
0000
0000
0080
05C0
0E80
0440
02E0
0740
0200
ENDCHAR
STARTCHAR FB81
ENCODING 64385
SWIDTH 520 0
DWIDTH 13 0
BBX 14 16 -1 -5
BITMAP
0F00
1F80
03C0
00E0
0070
FFFC
FFFC
0000
0000
0080
05C0
0E80
0440
02E0
0740
0200
ENDCHAR
STARTCHAR FB82
ENCODING 64386
SWIDTH 320 0
DWIDTH 8 0
BBX 7 16 1 -2
BITMAP
10
18
0C
04
06
02
02
82
FE
FE
00
00
04
2E
74
20
ENDCHAR
STARTCHAR FB83
ENCODING 64387
SWIDTH 320 0
DWIDTH 8 0
BBX 7 16 1 -2
BITMAP
10
18
0C
04
06
02
02
82
FE
FE
00
00
04
2E
74
20
ENDCHAR
STARTCHAR FB84
ENCODING 64388
SWIDTH 320 0
DWIDTH 8 0
BBX 7 15 1 4
BITMAP
04
2E
74
20
00
10
18
0C
04
06
02
02
82
FE
FE
ENDCHAR
STARTCHAR FB85
ENCODING 64389
SWIDTH 320 0
DWIDTH 8 0
BBX 7 15 1 4
BITMAP
04
2E
74
20
00
10
18
0C
04
06
02
02
82
FE
FE
ENDCHAR
STARTCHAR FB86
ENCODING 64390
SWIDTH 320 0
DWIDTH 8 0
BBX 7 18 1 4
BITMAP
40
E0
48
5C
E8
40
00
00
10
18
0C
04
06
02
02
82
FE
FE
ENDCHAR
STARTCHAR FB87
ENCODING 64391
SWIDTH 320 0
DWIDTH 8 0
BBX 7 18 1 4
BITMAP
40
E0
48
5C
E8
40
00
00
10
18
0C
04
06
02
02
82
FE
FE
ENDCHAR
STARTCHAR FB88
ENCODING 64392
SWIDTH 320 0
DWIDTH 8 0
BBX 8 19 0 4
BITMAP
20
30
20
10
10
17
19
FF
00
08
0C
06
02
03
01
01
41
7F
7F
ENDCHAR
STARTCHAR FB89
ENCODING 64393
SWIDTH 320 0
DWIDTH 8 0
BBX 8 19 0 4
BITMAP
20
30
20
10
10
17
19
FF
00
08
0C
06
02
03
01
01
41
7F
7F
ENDCHAR
ENDFONT
